<?xml version="1.0" encoding="UTF-8"?>
<svg xmlns="http://www.w3.org/2000/svg" viewBox="0 0 150 43.85">
  <defs>
    <style>.cls-1{fill:#8fadb6;}</style>
  </defs>
  <title>99designs-fitted</title>
  <g id="_99designs" data-name="99designs">
    <path class="cls-1" d="M53.39,11.23h4.68V33.58H53.63V31.94a5.44,5.44,0,0,1-2.36,1.78,7.51,7.51,0,0,1-4.07.21,7.63,7.63,0,0,1-4.75-3.15,9.3,9.3,0,0,1,0-10,7.31,7.31,0,0,1,4.34-3.11,7.87,7.87,0,0,1,4.17.1,7,7,0,0,1,2.43,1.51c0-2.63,0-5.33,0-8ZM48.85,21.89a4,4,0,0,0-3,2.91,3.89,3.89,0,0,0,.89,3.62,4.08,4.08,0,0,0,3.21,1.34,4,4,0,1,0-1.09-7.87Z"></path>
    <path class="cls-1" d="M105.65,17.72a5.23,5.23,0,0,1,3.45-2.35c.65,1.09,1.3,2.18,2,3.28A2.69,2.69,0,0,0,109.28,20a6.09,6.09,0,0,1-.82,8,6.18,6.18,0,0,1-4,1.57A7,7,0,0,1,100.8,29a.92.92,0,0,0,.07,1.13,2.66,2.66,0,0,0,1.5.54c1.68.18,3.38-.17,5.09,0a4.7,4.7,0,0,1,3.59,2.26,5.68,5.68,0,0,1-1.23,6.87,7.49,7.49,0,0,1-3.76,1.64,12.35,12.35,0,0,1-6-.41,5.72,5.72,0,0,1-2.81-1.91A4.31,4.31,0,0,1,96.7,35a3.31,3.31,0,0,1,1.09-1.41,4.33,4.33,0,0,1-1.5-3.11A4.83,4.83,0,0,1,97.72,27a5.68,5.68,0,0,1-1.06-4.34,5.8,5.8,0,0,1,1.92-3.42,7.74,7.74,0,0,1,4.58-1.74,7,7,0,0,1,2.49.2Zm-2.56,3.22a2.62,2.62,0,1,0,1,5.16A2.69,2.69,0,0,0,106.13,23a2.62,2.62,0,0,0-3-2.08Zm-.75,13.26a1.76,1.76,0,0,0-1.3,1.95,2.09,2.09,0,0,0,1.47,1.4,5.27,5.27,0,0,0,3.07.07,2.31,2.31,0,0,0,1.51-1.3,1.47,1.47,0,0,0-.41-1.74,3.86,3.86,0,0,0-2.33-.45,6.75,6.75,0,0,0-2,.07Z"></path>
    <path class="cls-1" d="M62.52,19A7.65,7.65,0,0,1,67,17.49a8.1,8.1,0,0,1,4.68,1.33,7.93,7.93,0,0,1,2.94,3.45,8.64,8.64,0,0,1,.65,5H63.61a3.25,3.25,0,0,0,1.33,2.29,4.1,4.1,0,0,0,3.11.51A4.92,4.92,0,0,0,69.93,29h4.82a8.83,8.83,0,0,1-3.65,4.17,8.07,8.07,0,0,1-8.51-.48,8.19,8.19,0,0,1-3.11-4.31,8.83,8.83,0,0,1-.07-4.81A8.24,8.24,0,0,1,62.52,19ZM65,22.1a3.37,3.37,0,0,0-1.23,2h7a3.35,3.35,0,0,0-2.56-2.6A4.21,4.21,0,0,0,65,22.1Z"></path>
    <path class="cls-1" d="M81.32,17.55a6.76,6.76,0,0,1,4.78.89,5.05,5.05,0,0,1,2.15,3.9H83.74a1.2,1.2,0,0,0-.92-1.16,1.55,1.55,0,0,0-1.88.78c-.17.65.41,1.2,1,1.44,1.57.72,3.35.85,4.82,1.74a4.12,4.12,0,0,1,1.81,2.19,4.67,4.67,0,0,1-.55,4A6.26,6.26,0,0,1,83.81,34a7.33,7.33,0,0,1-5.23-.85,5.6,5.6,0,0,1-2.46-4.17h4.51a1.55,1.55,0,0,0,.75,1.12,2.19,2.19,0,0,0,2.36-.1,1.22,1.22,0,0,0,.11-1.71,3.92,3.92,0,0,0-1.61-.95c-1.54-.55-3.25-.86-4.58-1.92a4,4,0,0,1-.82-5.16,6.58,6.58,0,0,1,4.48-2.67Z"></path>
    <path class="cls-1" d="M119.29,17.66a6.16,6.16,0,0,1,5.88,1.47,4.37,4.37,0,0,1,1.3,2.29,17,17,0,0,1,.2,3.48v8.68H122V25.21a4.69,4.69,0,0,0-.51-2.46,2.08,2.08,0,0,0-1.71-.89,2.69,2.69,0,0,0-2.12.68,3.49,3.49,0,0,0-.75,2.29v8.75h-4.69V18h4.45v1.64a4.9,4.9,0,0,1,2.63-2Z"></path>
    <path class="cls-1" d="M130.16,18.55a7.67,7.67,0,0,1,5.54-.93,5.18,5.18,0,0,1,3.24,2.16,5.26,5.26,0,0,1,.86,2.59h-4.51a1.22,1.22,0,0,0-.45-.92,1.79,1.79,0,0,0-2.15.14.94.94,0,0,0-.07,1.23,3.19,3.19,0,0,0,1.54.92c1,.31,2,.55,2.94.89a5.54,5.54,0,0,1,2.36,1.61,4.56,4.56,0,0,1,.17,5,5.93,5.93,0,0,1-3,2.39,8.16,8.16,0,0,1-4.61.31,5.6,5.6,0,0,1-3.52-2.46,5.82,5.82,0,0,1-.82-2.5h4.51A1.63,1.63,0,0,0,133,30.1a2.11,2.11,0,0,0,2.39-.14,1.23,1.23,0,0,0,0-1.74,4.51,4.51,0,0,0-1.81-1,25.49,25.49,0,0,1-3.28-1.17,4.69,4.69,0,0,1-1.64-1.26,4.06,4.06,0,0,1-.65-3.55,4.69,4.69,0,0,1,2.15-2.7Z"></path>
    <path class="cls-1" d="M90.13,18h4.69V33.58H90.13V18Zm1.75-7.15a2.83,2.83,0,0,1,3.21,1.71A2.8,2.8,0,0,1,94,15.91a2.77,2.77,0,0,1-3.21-.1,2.78,2.78,0,0,1,1.06-5Z"></path>
    <path class="cls-1" d="M28,25.62a8.25,8.25,0,0,0,4.51,1.74l-3.59,6.26h5.4l6-10.39a8.33,8.33,0,0,0-.92-9.61,8.35,8.35,0,0,0-14.63,4.86A8,8,0,0,0,28,25.62Zm2.25-9.13a4.06,4.06,0,0,1,2.15-1.23,3.83,3.83,0,0,1,3.8,6,3.9,3.9,0,0,1-2.8,1.6,3.77,3.77,0,0,1-2.4-.61,4,4,0,0,1-1.71-2.74,4,4,0,0,1,1-3Z"></path>
    <path class="cls-1" d="M13,25.62a8.28,8.28,0,0,0,4.51,1.74l-3.59,6.26h5.4l6-10.39a8.33,8.33,0,0,0-.92-9.61,8.32,8.32,0,0,0-14.6,4.82A8,8,0,0,0,13,25.62Zm2.25-9.13a4.09,4.09,0,0,1,2.16-1.23,3.82,3.82,0,0,1,3.79,6,3.9,3.9,0,0,1-2.8,1.6,3.77,3.77,0,0,1-2.4-.61,3.92,3.92,0,0,1-1.7-2.74,4,4,0,0,1,1-3Z"></path>
  </g>
</svg>
