<?xml version="1.0" encoding="UTF-8"?>
<svg xmlns="http://www.w3.org/2000/svg" viewBox="0 0 150 43.85">
  <defs>
    <style>.cls-1{fill:#8fadb6;}</style>
  </defs>
  <title>aarons-fitted</title>
  <g id="aarons">
    <path class="cls-1" d="M31,7.18h9.3a2.26,2.26,0,0,1,2,1.81c.5,3,1,6,1.47,9a11.07,11.07,0,0,1,3.41-3.47,8.8,8.8,0,0,1,4.28-1.34,7.41,7.41,0,0,1,3.89.87,2.42,2.42,0,0,1,1.19-.38h7.28a2.61,2.61,0,0,1,.48.05c.23.07.47-.06.71-.05h7.41a2.21,2.21,0,0,1,1.09.3c.06,0,.13.09.2,0a8.26,8.26,0,0,1,3.69-.82,3.69,3.69,0,0,1,1.32.16,2.21,2.21,0,0,1,1.41,1.53,2.59,2.59,0,0,1,.07.63,13.15,13.15,0,0,1,5-2.1,13.61,13.61,0,0,1,3.25-.22,10.92,10.92,0,0,1,4.71,1.26,8.77,8.77,0,0,1,2,1.49,3.17,3.17,0,0,1,.31-1.09,2.28,2.28,0,0,1,1.94-1.18h7.41a2.37,2.37,0,0,1,1.24.37,8.72,8.72,0,0,1,5.73-.65,6.75,6.75,0,0,1,1.82.71l.6-2.61a2.27,2.27,0,0,1,1.58-1.62,4.58,4.58,0,0,1,1.17-.07h3.39a2.25,2.25,0,0,1,2,3.23c-.09.16-.17.31-.25.49a14.45,14.45,0,0,1,4.1-.31A14.16,14.16,0,0,1,132,14.71a2.25,2.25,0,0,1,.91,3l-2.37,4.07a5,5,0,0,1,1.33,2.61,6.89,6.89,0,0,1-.39,3.54,9.05,9.05,0,0,1-3.85,4.66,12.87,12.87,0,0,1-6.28,1.83h-1.19a16.63,16.63,0,0,1-6.21-1.4,2.31,2.31,0,0,1-1.84.82h-7.45a2.35,2.35,0,0,1-1.29-.38,2.25,2.25,0,0,1-1.18.37H94.57a2.27,2.27,0,0,1-.9-.15,2.22,2.22,0,0,1-1.39-1.64,13.36,13.36,0,0,1-5,2.11,14.59,14.59,0,0,1-2.18.27H84.08a10.85,10.85,0,0,1-5-1.39,8.89,8.89,0,0,1-3.3-3.34,9.26,9.26,0,0,1-1.1-5.05,1.53,1.53,0,0,0-1,.18,1.42,1.42,0,0,0-.52,1q-.57,3.08-1.16,6.15a2.26,2.26,0,0,1-1.35,1.71,2.39,2.39,0,0,1-.92.18H62a2.6,2.6,0,0,0-.68,0,2.42,2.42,0,0,1-.47,0h-7a2.18,2.18,0,0,1-1.23-.41,9.53,9.53,0,0,1-1.36.57,8.23,8.23,0,0,1-2.21.42h-.78a7.05,7.05,0,0,1-3.28-1,2.35,2.35,0,0,1-1.26.4H35A2.24,2.24,0,0,1,33,32.36a4.66,4.66,0,0,1-.17-1.29H30.37c-.21.5-.42,1-.64,1.5a2.27,2.27,0,0,1-2,1.29h-8a3.83,3.83,0,0,1-1.39-.14,2.26,2.26,0,0,1-1.48-1.89v-.45a3,3,0,0,1,.43-1.15L29.23,8.33A2.29,2.29,0,0,1,31,7.18ZM30.39,8.8c-.12.2-.24.41-.35.63L18.22,31.12a1,1,0,0,0,.42,1.39,1.06,1.06,0,0,0,.52.13h8.21a2.93,2.93,0,0,0,.59,0,1.05,1.05,0,0,0,.67-.6c.32-.72.63-1.44.95-2.15H34c0,.63.09,1.26.14,1.89a1,1,0,0,0,1,.9h8.6a1,1,0,0,0,1-.93,5.64,5.64,0,0,0,3.9,1.52,7,7,0,0,0,2.65-.49,9.33,9.33,0,0,0,1.65-.88,1,1,0,0,0,.47.63,1.11,1.11,0,0,0,.64.14h6.88a1,1,0,0,0,.53-.15c.07,0,.14,0,.2,0a1.08,1.08,0,0,0,.5.12h7.28a1.82,1.82,0,0,0,.7-.08,1,1,0,0,0,.62-.76l1.17-6.22a2.83,2.83,0,0,1,.72-1.47,2.59,2.59,0,0,1,2.09-.67,4.42,4.42,0,0,1,1.26.5,3.44,3.44,0,0,1,0,.45,8.18,8.18,0,0,0,.35,3.44,7.63,7.63,0,0,0,2.86,3.84,9.1,9.1,0,0,0,4.67,1.53,12.13,12.13,0,0,0,10.14-4.27c-.14.84-.31,1.67-.46,2.52a1,1,0,0,0,.33.95,1.1,1.1,0,0,0,.72.26h7.63a1,1,0,0,0,1-.83l1.5-8a1.68,1.68,0,0,1,.52-1.06,9.34,9.34,0,0,1-.16,1.06l-1.43,7.58a1,1,0,0,0,.58,1.14,1.4,1.4,0,0,0,.61.1h7.41a1,1,0,0,0,.9-.51,2.68,2.68,0,0,0,.21-.77,14.77,14.77,0,0,0,6.12,1.81,14,14,0,0,0,4.37-.3A9.67,9.67,0,0,0,129,29.81,7.6,7.6,0,0,0,130.46,27a6.08,6.08,0,0,0,.21-2,3.63,3.63,0,0,0-.74-2,4,4,0,0,0-1-.92l0-.06a8.25,8.25,0,0,0,.53-.86c.78-1.33,1.56-2.66,2.34-4a1,1,0,0,0-.42-1.37,14,14,0,0,0-7.05-1.35,11.73,11.73,0,0,0-4.34,1.1,2.75,2.75,0,0,1-.49.23c.08-.13.16-.27.23-.41.48-.94,1-1.88,1.45-2.82a1,1,0,0,0-.86-1.5h-4a1.05,1.05,0,0,0-.81.45,3.19,3.19,0,0,0-.27.86c-.31,1.34-.63,2.68-.92,4a4.44,4.44,0,0,0-.73-.77,5.14,5.14,0,0,0-2.38-1.06,7.35,7.35,0,0,0-3,0,7.83,7.83,0,0,0-2.41,1,1,1,0,0,0-.43-.57,1.18,1.18,0,0,0-.61-.16h-7a2.25,2.25,0,0,0-.63.06,1.07,1.07,0,0,0-.66.73c-.21,1.1-.41,2.21-.63,3.31a7.24,7.24,0,0,0-1.52-2.19,8.48,8.48,0,0,0-4.7-2.26A12.13,12.13,0,0,0,79,18.07a5.65,5.65,0,0,0-.65.74,3.13,3.13,0,0,1,.1-.6c.15-.86.31-1.71.47-2.56a1,1,0,0,0-.51-1.07,1.89,1.89,0,0,0-.91-.16,7.52,7.52,0,0,0-4.14,1.23,1,1,0,0,0-1-.75H65.08a1.16,1.16,0,0,0-.65.2,1.22,1.22,0,0,0-.67-.2H56.54a1,1,0,0,0-1,.77c-.14-.08-.25-.18-.38-.27a5.48,5.48,0,0,0-2.34-.92,7.49,7.49,0,0,0-3.42.32,8.79,8.79,0,0,0-4.1,3.09,13.58,13.58,0,0,0-2.12,4.38l-2-12.62A2.1,2.1,0,0,0,41,8.87a1,1,0,0,0-.87-.47H31.21a1,1,0,0,0-.81.39Z"></path>
    <path class="cls-1" d="M21.73,26.81q4.74-8.7,9.48-17.39h8.88q1.78,11.1,3.59,22.2H35.1c-.06-.93-.13-1.86-.19-2.79h-6c-.4,1-.81,1.85-1.2,2.79H19.12c.86-1.61,1.74-3.2,2.61-4.8ZM34.18,16.23a24.23,24.23,0,0,1-1.66,4.49c-.42,1-.86,1.88-1.29,2.82h3.3c0-.5-.08-1-.12-1.49a25.78,25.78,0,0,1-.07-5.89c-.05,0-.15,0-.16.06Z"></path>
    <path class="cls-1" d="M116.32,12.12c0-.09.1-.06.15-.06h3.79l-2.9,5.68a6.47,6.47,0,0,1-.34.63c-.72,0-1.43,0-2.14,0a1.61,1.61,0,0,0,.09-.29c.45-2,.91-3.95,1.36-5.92Z"></path>
    <path class="cls-1" d="M48.59,16.32a6.28,6.28,0,0,1,2.95-.87A4.69,4.69,0,0,1,56.14,18c.14-.68.25-1.37.4-2h7.29c-1,5.22-2,10.44-2.94,15.67h-7c.13-.79.32-1.58.42-2.36a2.71,2.71,0,0,1-.36.4A8.65,8.65,0,0,1,50.3,32a5.73,5.73,0,0,1-3,.06A4.52,4.52,0,0,1,45,30.54,5.82,5.82,0,0,1,43.82,28a9.94,9.94,0,0,1-.08-3.31,13.74,13.74,0,0,1,1.69-5.13,9,9,0,0,1,3.16-3.25Zm4.77,5.16a2.37,2.37,0,0,0-1.7,1.09,3.18,3.18,0,0,0-.51,1.73,1.64,1.64,0,0,0,.54,1.32,1.72,1.72,0,0,0,1.4.32,2.26,2.26,0,0,0,1.57-1,3.45,3.45,0,0,0,.52-1.65,1.77,1.77,0,0,0-.52-1.41,1.65,1.65,0,0,0-1.3-.36Z"></path>
    <path class="cls-1" d="M87,15.47a10.61,10.61,0,0,1,3.41.29,6.94,6.94,0,0,1,4,2.84,7,7,0,0,1,1,5A9.62,9.62,0,0,1,93,28.43a11.14,11.14,0,0,1-9.81,3.7,8.07,8.07,0,0,1-3.09-1,6.52,6.52,0,0,1-2.93-3.71,8,8,0,0,1,.51-5.68,10.66,10.66,0,0,1,3.23-4,11,11,0,0,1,6-2.27Zm-.76,6.25a2.33,2.33,0,0,0-1.65,1.43A2.81,2.81,0,0,0,84.36,25a1.33,1.33,0,0,0,.73.86,2,2,0,0,0,1.45,0,2.5,2.5,0,0,0,1.38-1.52,2.78,2.78,0,0,0,.1-1.64,1.36,1.36,0,0,0-.6-.77,1.85,1.85,0,0,0-1.22-.16Z"></path>
    <path class="cls-1" d="M106.6,16.29a6.44,6.44,0,0,1,4.67-.68,3.91,3.91,0,0,1,2.08,1.22,4,4,0,0,1,.89,2.09,7.09,7.09,0,0,1-.11,2.25q-1,5.22-2,10.44h-7.62c.45-2.44.92-4.88,1.38-7.31a10,10,0,0,0,.24-1.72,1,1,0,0,0-.25-.75,1,1,0,0,0-.44-.18c0,.07-.14.11,0,0a1.58,1.58,0,0,0-.87.23,2,2,0,0,0-.69.87,7,7,0,0,0-.39,1.56q-.69,3.64-1.37,7.31H94.47c1-5.23,2-10.44,2.94-15.67h7.4c-.14.72-.26,1.43-.4,2.14a9.23,9.23,0,0,1,2.19-1.79Z"></path>
    <path class="cls-1" d="M122.91,15.64a13.74,13.74,0,0,1,4.34-.06,11.56,11.56,0,0,1,3.63,1.1c-.91,1.58-1.84,3.16-2.76,4.74a9.59,9.59,0,0,0-1.06-.74,5,5,0,0,0-1.63-.66,2,2,0,0,0-1,.06,1.07,1.07,0,0,0-.64.56.56.56,0,0,0,.07.58,1.45,1.45,0,0,0,.69.31c.55.16,1.12.26,1.67.41a7.89,7.89,0,0,1,1.58.59,3.64,3.64,0,0,1,1.45,1.22,3.12,3.12,0,0,1,.45,2,6.26,6.26,0,0,1-1,2.86,7.13,7.13,0,0,1-2.09,2A9.54,9.54,0,0,1,123.19,32a13.56,13.56,0,0,1-4,.17A14,14,0,0,1,114.81,31c-.33-.14-.63-.32-1-.47a.11.11,0,0,0,0-.08c1-1.6,1.93-3.2,2.89-4.82a10.91,10.91,0,0,0,1.66,1.11,5.77,5.77,0,0,0,1.56.59,2.45,2.45,0,0,0,1.26-.06,1.06,1.06,0,0,0,.63-.56.73.73,0,0,0,0-.63,1,1,0,0,0-.65-.34,18.83,18.83,0,0,1-1.83-.46,4.84,4.84,0,0,1-2.08-1.2,2.86,2.86,0,0,1-.76-2,5.09,5.09,0,0,1,.13-1.23,1.41,1.41,0,0,0,0-.29.31.31,0,0,0,0,.1A6.09,6.09,0,0,1,119,17.29a9,9,0,0,1,3.87-1.66Z"></path>
    <path class="cls-1" d="M73.59,16.7a6.52,6.52,0,0,1,3-1.2,7.82,7.82,0,0,1,1.37,0c-.36,2-.75,4-1.12,6-.11.54-.19,1.08-.32,1.61a4.78,4.78,0,0,0-1.42-.63,3.56,3.56,0,0,0-1.38,0,3.39,3.39,0,0,0-2,1.1,4,4,0,0,0-.84,1.93c-.38,2-.77,4.07-1.14,6.11H62.06c.41-2.07.78-4.14,1.18-6.21q.88-4.73,1.78-9.47h7.4c-.15.73-.28,1.46-.41,2.18a9.54,9.54,0,0,1,1.57-1.41Z"></path>
    <path class="cls-1" d="M115.29,19.36h.82a6.48,6.48,0,0,0-.58,2.91,3.72,3.72,0,0,0,1,2.39,1.15,1.15,0,0,0-.61.45c-.69,1.14-1.39,2.29-2.07,3.43.44-2.46.92-4.92,1.38-7.38a9,9,0,0,0,.12-1.8Z"></path>
  </g>
</svg>
