<?xml version="1.0" encoding="UTF-8"?>
<svg xmlns="http://www.w3.org/2000/svg" viewBox="0 0 150 43.85">
  <defs>
    <style>.cls-1{fill:#8fadb6;}</style>
  </defs>
  <title>alaska-fitted</title>
  <g id="alaska">
    <path class="cls-1" d="M74,1.51,59.33,26.32a18.68,18.68,0,0,0-2.68,7.58H50.94c.35-3.15,1.63-6.06,4.08-10.37L65.39,6.17c2.09-3.49,4.07-4.66,7.8-4.66Zm-1.17,26c-1,1.05-3.26,2.56-4.89,2.56-1.28,0-1.28-1.16-.47-2.79,3.15-6,6.41-9.09,10.49-9.09h.7Zm5.48-12.7c-7.46,0-12,4.31-16.19,13.87C61.08,31.1,60.49,34,64,33.9a15.59,15.59,0,0,0,7.57-2.8,26.65,26.65,0,0,0-.23,2.68h5.24a20.11,20.11,0,0,1,2.68-7.69l6.52-10.95c-2.33-.12-4.89-.35-7.45-.35Zm48.48,12.7c-1,1.05-3.27,2.56-4.9,2.56-1.28,0-1.28-1.16-.46-2.79,3.14-6,6.4-9.09,10.48-9.09h.67l-5.82,9.32Zm5.47-12.7c-7.46,0-12,4.31-16.19,13.87-1,2.44-1.63,5.35,1.86,5.24a15.59,15.59,0,0,0,7.57-2.8,6.71,6.71,0,0,0-.23,2.56h5.24A20.46,20.46,0,0,1,133.2,26L139.7,15c-2.33,0-4.89-.23-7.45-.23Z"></path>
    <path class="cls-1" d="M115.12,39.14h-1.75a5.07,5.07,0,0,1-4.77-3.73L106,25.62l-4.77,8.16H95.67L111.16,7.34c2.1-3.5,4.08-4.66,7.81-4.66h.7L109.3,20.27l7.8-5.36h6.18l-13,9.09ZM63.64,0c-5.24,0-8,1.4-13.16,5.12L33,17.71H21.94c-3.26,0-5.83.11-7.92,2.09L11.1,22.48s8.39-.35,16.31-.58l-16.77,12h7.22L35,21.55c3.37-.12,5.59-.24,5.59-.24a8.22,8.22,0,0,0,6.17-3.6H40.23l13.85-10L43.84,24.34a26.33,26.33,0,0,0-3.73,9.56h5.94a16.62,16.62,0,0,1,2.68-7.58l14-23.41L64.58,0Zm28,20.15c-.11.46.12.81,1.16,1.51l1.63,1.05a4.44,4.44,0,0,1,2.22,4.2C96,30.75,93.1,34,87.05,34a40.37,40.37,0,0,1-7.11-.58l2.45-4a31.13,31.13,0,0,0,5.12.58c2.33,0,3.27-1.05,3.38-1.86.12-.47-.11-1.05-1.28-1.87l-1.28-.93c-2.1-1.51-2.56-2.68-2.33-4.31C86.47,17.59,90.43,15,96.13,15a51.93,51.93,0,0,1,5.71.35l-2.21,3.85a36.45,36.45,0,0,0-5.12-.12c-1.87-.23-2.8.24-2.92,1Z"></path>
  </g>
</svg>
