<?xml version="1.0" encoding="UTF-8"?>
<svg xmlns="http://www.w3.org/2000/svg" viewBox="0 0 76 76">
  <defs>
    <style>.cls-1{fill:#fff;}.cls-2{fill:#4dbdeb;}.cls-3{fill:#00405c;}.cls-4{fill:#d7e7ed;}.cls-5{fill:#0075a8;}.cls-6{fill:#ffd262;}</style>
  </defs>
  <title>Blogs</title>
  <g id="Artboards">
    <g id="Full_Color" data-name="Full Color">
      <g id="Blogs">
        <g id="Container">
          <path id="Background" class="cls-1" d="M67.49,28.48l-.16-.5a2.32,2.32,0,0,0-.1-3.13L65.37,23a2,2,0,0,0-.47-.36l-.52-.85a29.34,29.34,0,0,0-1.65-2.44l-.8-1V14.81a3.89,3.89,0,0,0-3.76-4H53l-1.94-.91a31,31,0,0,0-26.14,0L23,10.8H17.66a3.9,3.9,0,0,0-3.76,4v3.65l-.8,1.08a31,31,0,1,0,54.39,8.94Z"></path>
          <g id="Circle">
            <path id="Circle-03" class="cls-2" d="M62.08,22.92a2.35,2.35,0,0,1,1.45-.64,27.15,27.15,0,0,0-1.6-2.36v3.15Z"></path>
            <path id="Circle-02" class="cls-2" d="M31.39,10.8a27.71,27.71,0,0,1,13.22,0h6a30,30,0,0,0-25.29,0Z"></path>
            <path id="Circle-01" class="cls-2" d="M66.54,28.79l-.76.74-.72.7h0l-.12.13a28,28,0,1,1-51-6.59V20.14a30,30,0,1,0,52.64,8.65Z"></path>
          </g>
        </g>
        <g id="Illustration">
          <g id="Browser">
            <path id="Search" class="cls-3" d="M55.21,20.3,53.6,18.79a2.34,2.34,0,1,0-3.61.38,2.31,2.31,0,0,0,1.65.69,2.25,2.25,0,0,0,1.24-.37L54.52,21a.5.5,0,0,0,.71,0A.5.5,0,0,0,55.21,20.3ZM50.7,18.47a1.36,1.36,0,0,1,0-1.91,1.32,1.32,0,0,1,.94-.39,1.33,1.33,0,0,1,.94.39,1.34,1.34,0,1,1-1.88,1.91Z"></path>
            <path id="Query" class="cls-3" d="M38.79,18.66h-19a.5.5,0,0,1-.5-.5.5.5,0,0,1,.5-.5h19a.5.5,0,0,1,.5.5A.5.5,0,0,1,38.79,18.66Z"></path>
            <g id="Container-2" data-name="Container">
              <path id="Container-02" class="cls-3" d="M58.93,36.24V56.57a25.66,25.66,0,0,0,2-2.54V34.28Z"></path>
              <path id="Container-01" class="cls-3" d="M58.93,26l.78-.77L60,25l.71-.7.27-.27V14.81a2.9,2.9,0,0,0-2.76-3H17.66a2.9,2.9,0,0,0-2.76,3v39a27.63,27.63,0,0,0,2,2.57V25h42ZM16.9,23V14.81c0-.55.35-1,.76-1H58.17c.41,0,.76.46.76,1V23Z"></path>
            </g>
          </g>
          <g id="Blog_Entry" data-name="Blog Entry">
            <g id="Content">
              <g id="Rows">
                <path id="Line-08" class="cls-4" d="M52,62.26H24.05c.62.36,1.24.7,1.89,1H50.06C50.71,63,51.33,62.62,52,62.26Z"></path>
                <path id="Line-07" class="cls-4" d="M53,59.26H23a.5.5,0,0,1-.5-.5.51.51,0,0,1,.5-.5H53a.5.5,0,0,1,.5.5A.5.5,0,0,1,53,59.26Z"></path>
                <path id="Line-06" class="cls-4" d="M53,55.26H23a.5.5,0,0,1-.5-.5.51.51,0,0,1,.5-.5H53a.5.5,0,0,1,.5.5A.5.5,0,0,1,53,55.26Z"></path>
                <path id="Line-05" class="cls-4" d="M53,51.26H23a.5.5,0,0,1-.5-.5.51.51,0,0,1,.5-.5H53a.5.5,0,0,1,.5.5A.5.5,0,0,1,53,51.26Z"></path>
                <path id="Line-04" class="cls-4" d="M53,47.26H23a.5.5,0,0,1-.5-.5.51.51,0,0,1,.5-.5H53a.5.5,0,0,1,.5.5A.5.5,0,0,1,53,47.26Z"></path>
                <g id="Line-03">
                  <path id="Line-03.2" class="cls-4" d="M53,42.26H51.77l-3.1,1H53a.5.5,0,0,0,.5-.5A.5.5,0,0,0,53,42.26Z"></path>
                  <path id="Line-03.1" class="cls-4" d="M46.17,42.39l0-.13H34a.51.51,0,0,0-.5.5.5.5,0,0,0,.5.5H45.87Z"></path>
                </g>
                <path id="Line-02" class="cls-4" d="M47.59,38.26H34a.51.51,0,0,0-.5.5.5.5,0,0,0,.5.5h13.2Z"></path>
                <path id="Line-01" class="cls-4" d="M48.63,35.25h.86l1-1H34a.51.51,0,0,0-.5.5.5.5,0,0,0,.5.5H48.63Z"></path>
              </g>
              <rect id="Image" class="cls-2" x="22.54" y="34.26" width="8" height="8" rx="2"></rect>
            </g>
            <g id="Title_Bar" data-name="Title Bar">
              <polygon class="cls-5" points="56.4 28.5 56.4 27.45 19.4 27.45 19.4 30.04 54.82 30.04 56.4 28.5"></polygon>
            </g>
            <g id="Page_Outline" data-name="Page Outline">
              <path id="Outline-02" class="cls-3" d="M56.4,38.73V59.08c.34-.3.67-.6,1-.92V37.75Z"></path>
              <path id="Outline-01" class="cls-3" d="M56.4,28.5l1-1V27a.51.51,0,0,0-.5-.5h-38a.5.5,0,0,0-.5.5V58c.32.32.66.63,1,.93V27.45h37Z"></path>
            </g>
          </g>
          <g id="Pencil">
            <rect class="cls-6" x="54.41" y="25.66" width="5.31" height="14.6" transform="translate(73.47 96.78) rotate(-134.43)"></rect>
            <path class="cls-6" d="M65.08,28.82l1.42-1.39a1.34,1.34,0,0,0,0-1.88l-1.86-1.89a1.33,1.33,0,0,0-1.88,0L61.36,25Z"></path>
            <polygon class="cls-6" points="47.11 42.72 52.76 40.9 49.04 37.1 47.11 42.72"></polygon>
          </g>
        </g>
      </g>
    </g>
  </g>
</svg>
