<?xml version="1.0" encoding="UTF-8"?>
<svg xmlns="http://www.w3.org/2000/svg" viewBox="0 0 76 76">
  <defs>
    <style>.cls-1{fill:#fff;}.cls-2{fill:#4dbdeb;}.cls-3{fill:#00405c;}.cls-4{fill:#0075a8;}</style>
  </defs>
  <title>Training</title>
  <g id="Artboards">
    <g id="Full_Color" data-name="Full Color">
      <g id="Training">
        <g id="Container">
          <circle id="Background" class="cls-1" cx="38" cy="38" r="31"></circle>
          <path id="Circle" class="cls-2" d="M38,10A28,28,0,1,1,10,38,28,28,0,0,1,38,10m0-2A30,30,0,1,0,68,38,30,30,0,0,0,38,8Z"></path>
        </g>
        <path class="cls-3" d="M59.09,32.79,38.76,26.32a1,1,0,0,0-.59,0L16.92,32.79a1,1,0,0,0-.71,1,1,1,0,0,0,.71,1L27.64,38c-.23,1.55-.81,4.15-1.9,5.24a1,1,0,0,0,0,1.41,17.47,17.47,0,0,0,24.69,0,1,1,0,0,0,0-1.41c-1.06-1.07-1.64-3.59-1.88-5.15l1.63-.52a12.62,12.62,0,0,0-1.6-1.59L38.46,39.16,20.65,33.74l17.81-5.42,17,5.42L51.85,34.9a19.28,19.28,0,0,1,1.38,1.66l5.86-1.86a1,1,0,0,0,.7-1A1,1,0,0,0,59.09,32.79ZM29.58,38.55l8.59,2.62a1,1,0,0,0,.29,0,.76.76,0,0,0,.3-.05l7.86-2.49a14.08,14.08,0,0,0,1.75,5.14,15.49,15.49,0,0,1-20.57,0A14.38,14.38,0,0,0,29.58,38.55Z"></path>
        <path class="cls-4" d="M62.45,47.11c-3.33-.24-5.49-3.26-6.54-5.18a2.3,2.3,0,0,0,.41-1.32A2.32,2.32,0,0,0,54,38.29a2.4,2.4,0,0,0-.71.12c-2.14-3.39-4.71-5.48-7.65-6.19a10.26,10.26,0,0,0-7.43,1.1A.49.49,0,0,0,38,34a.5.5,0,0,0,.69.16,9.4,9.4,0,0,1,6.67-1c2.67.65,5,2.58,7,5.72a2.31,2.31,0,0,0,1,4c0,2.25.3,6.93,2.58,9.95a.51.51,0,0,0,.4.2.49.49,0,0,0,.3-.1.51.51,0,0,0,.1-.7c-1.92-2.55-2.31-6.53-2.37-8.82.92,2.67,2.66,6.71,5.41,9a.47.47,0,0,0,.32.12.49.49,0,0,0,.38-.18.51.51,0,0,0-.06-.71c-2.53-2.12-4.19-6-5.08-8.52,1.26,2.06,3.52,4.72,6.94,5h0a.51.51,0,0,0,.5-.47A.5.5,0,0,0,62.45,47.11Z"></path>
      </g>
    </g>
  </g>
</svg>
