<?xml version="1.0" encoding="UTF-8"?>
<svg xmlns="http://www.w3.org/2000/svg" viewBox="0 0 150 43.85">
  <defs>
    <style>.cls-1{fill:#8faeb5;}</style>
  </defs>
  <title>razorfish-fitted</title>
  <g id="razorfish">
    <path class="cls-1" d="M99.85,12.38c.22.11.33.11.54.22V14h-.65a13,13,0,0,0-5,.43c-2.72.87-3.15,2.93-3,5,0,.11.33.32.55.32h5.1v1.42H92.46c-.65,0-.76.21-.76.76V33.78H90.18V18.57a9.42,9.42,0,0,1,.22-1.74,4.58,4.58,0,0,1,3.15-3.69,26.13,26.13,0,0,1,2.93-.65,1.85,1.85,0,0,1,.76-.11Z"></path>
    <path class="cls-1" d="M14.26,24.87c.1-.22.1-.54.21-.76a5.06,5.06,0,0,1,3.26-3.8,15.68,15.68,0,0,1,6.74-.65v1.41h-.76a27.62,27.62,0,0,0-4.24.32c-2.5.44-3.58,2-3.58,4.46v8H14.36C14.26,30.84,14.26,27.91,14.26,24.87Z"></path>
    <path class="cls-1" d="M37.83,25.3a3.91,3.91,0,0,0-2.5-3.58A11.26,11.26,0,0,0,30,21.07a7.55,7.55,0,0,0-1.52.11V19.76c.54,0,1.19-.1,1.73-.1a16.15,16.15,0,0,1,5.11.54,5.23,5.23,0,0,1,4,5.1c.11,2.83,0,5.54,0,8.37v.22H37.94V31.5a.43.43,0,0,1-.33.1A9.57,9.57,0,0,1,29.9,34a11.69,11.69,0,0,1-2.72-.65,3.74,3.74,0,0,1-2.6-3.8,3.83,3.83,0,0,1,2.6-3.69A9,9,0,0,1,31,25.2h6.09A1.71,1.71,0,0,0,37.83,25.3ZM33.7,26.72a30.07,30.07,0,0,0-3.15,0,13,13,0,0,0-3,.65A2.25,2.25,0,0,0,26,29.65a2.34,2.34,0,0,0,1.52,2.28,7.48,7.48,0,0,0,2.71.54A7.73,7.73,0,0,0,36,31a4.72,4.72,0,0,0,1.85-3.69c0-.44-.11-.54-.55-.54C36.09,26.82,34.89,26.72,33.7,26.72Z"></path>
    <path class="cls-1" d="M120.05,21.94A14.27,14.27,0,0,0,118.86,23a10,10,0,0,0-8.36-1.74,3.73,3.73,0,0,0-2,1c-1.19,1.09-.87,2.61.65,2.94s3.15.43,4.67.65a35.47,35.47,0,0,1,3.8.76,3,3,0,0,1,2.39,2.6,3.44,3.44,0,0,1-1.63,3.48,7.55,7.55,0,0,1-4,1.3,11,11,0,0,1-8.15-2.17l-.54-.54c.1-.11.21-.11.32-.22.33-.22.55-.43.87-.65H107c2.72,2.39,6,2.5,9.23,1.63a3.09,3.09,0,0,0,1.52-.87,1.65,1.65,0,0,0-.32-2.93,10.36,10.36,0,0,0-3-.76c-1.74-.33-3.48-.44-5.22-.66a2,2,0,0,1-.76-.21,3.15,3.15,0,0,1-1.3-5.33,6.09,6.09,0,0,1,3.47-1.62,12.2,12.2,0,0,1,7.06.86A25.86,25.86,0,0,1,120.05,21.94Z"></path>
    <path class="cls-1" d="M66,34.1a8.69,8.69,0,0,1-4.89-1.3,6.78,6.78,0,0,1-3-6.41c.22-4,2.82-6.52,6.84-6.84a13.14,13.14,0,0,1,4.13.32C72.59,21,74.22,24,73.89,27.48c-.33,4.12-3.26,6.3-7.5,6.51C66.39,34.1,66.18,34.1,66,34.1Zm6.52-7.17a5.23,5.23,0,0,0-3.8-5.43,9,9,0,0,0-5.33,0c-2.5.87-3.69,2.83-3.69,5.65a5,5,0,0,0,3.91,5.11,9.06,9.06,0,0,0,3.8.21A5.41,5.41,0,0,0,72.48,26.93Z"></path>
    <path class="cls-1" d="M56.51,19.87a1.92,1.92,0,0,1-.65,2.07c-3.69,3.26-7.28,6.62-11,10a2.4,2.4,0,0,1-.55.33c0,.1.11.1.11.21H56.84v1.42H42.28A1.71,1.71,0,0,1,42.82,32c3.7-3.37,7.39-6.74,11-10.1.22-.11.33-.33.66-.55H42.93c-1,0-1,0-.87-1v-.55Z"></path>
    <path class="cls-1" d="M135.59,33.89h-1.41v-8a4.45,4.45,0,0,0-4.57-4.78,7.63,7.63,0,0,0-4.34.87.81.81,0,0,0-.55.87v11h-1.41V12.6h1.41v7.92c.22-.1.44-.1.55-.21a8.73,8.73,0,0,1,6.41-.44,5.48,5.48,0,0,1,4,5.22c.1,2.82,0,5.65,0,8.47A.4.4,0,0,1,135.59,33.89Z"></path>
    <path class="cls-1" d="M87,19.76v1.42c-1.19,0-2.28-.11-3.36,0a10.55,10.55,0,0,0-2.61.54,3.84,3.84,0,0,0-2.72,3.69c-.11,2.61,0,5.11,0,7.71v.77H77.15c-.11,0-.33-.33-.33-.55V25.2a4.91,4.91,0,0,1,3.7-4.89A14.62,14.62,0,0,1,87,19.76Z"></path>
    <path class="cls-1" d="M102.57,33.89h-1.42v-14h1.42Z"></path>
  </g>
</svg>
