<?xml version="1.0" encoding="UTF-8"?>
<svg xmlns="http://www.w3.org/2000/svg" xmlns:xlink="http://www.w3.org/1999/xlink" width="370px" height="200px" viewBox="0 0 370 200">
  <!-- Generator: Sketch 53.2 (72643) - https://sketchapp.com -->
  <title>Moz Pro Outlined@1x</title>
  <desc>Created with Sketch.</desc>
  <defs>
    <path d="M72.84375,58 L72.84375,1.16 L1.15625,1.16 L1.15625,58 L0,58 L0,0 L74,0 L74,58 L72.84375,58 Z" id="path-1"></path>
    <rect id="path-2" x="0.991702946" y="0" width="141.778626" height="27.84"></rect>
    <path d="M149.847328,58 L149.847328,1.16 L1.15267176,1.16 L1.15267176,58 L0,58 L0,0 L151,0 L151,58 L149.847328,58 Z" id="path-4"></path>
    <path d="M0,0 L74,0 L74,74 L0,74 L0,0 Z M1.15625,1.15625 L1.15625,72.84375 L72.84375,72.84375 L72.84375,1.15625 L1.15625,1.15625 Z" id="path-5"></path>
    <path d="M0,0 L151,0 L151,74 L0,74 L0,0 Z M1.15267176,1.15625 L1.15267176,72.84375 L149.847328,72.84375 L149.847328,1.15625 L1.15267176,1.15625 Z" id="path-6"></path>
  </defs>
  <g id="Moz-Pro-Outlined" stroke="none" stroke-width="1" fill="none" fill-rule="evenodd">
    <rect id="Sub-Nav" fill="#3493BA" x="0" y="19" width="370" height="21"></rect>
    <path d="M23.1337891,27.7412109 L23.1044922,27.7363281 L21.2001953,33 L20.2431641,33 L18.3486328,27.7558594 L18.3193359,27.7607422 L18.4560547,30.8808594 L18.4560547,31.9990234 L19.2177734,32.1455078 L19.2177734,33 L16.2734375,33 L16.2734375,32.1455078 L17.0302734,31.9990234 L17.0302734,26.8964844 L16.2734375,26.75 L16.2734375,25.890625 L18.890625,25.890625 L20.7021484,31.1298828 L20.7314453,31.1298828 L22.5576172,25.890625 L25.1845703,25.890625 L25.1845703,26.75 L24.4228516,26.8964844 L24.4228516,31.9990234 L25.1845703,32.1455078 L25.1845703,33 L22.2402344,33 L22.2402344,32.1455078 L22.9970703,31.9990234 L22.9970703,30.8808594 L23.1337891,27.7412109 Z M25.6565625,30.3095703 C25.6565625,29.521806 25.8771007,28.8764674 26.3181836,28.3735352 C26.7592665,27.870603 27.3687982,27.6191406 28.1467969,27.6191406 C28.9280508,27.6191406 29.53921,27.8697892 29.980293,28.3710938 C30.4213759,28.8723983 30.6419141,29.5185507 30.6419141,30.3095703 L30.6419141,30.4121094 C30.6419141,31.2063842 30.4213759,31.8533504 29.980293,32.3530273 C29.53921,32.8527043 28.931306,33.1025391 28.1565625,33.1025391 C27.3720534,33.1025391 26.7592665,32.8527043 26.3181836,32.3530273 C25.8771007,31.8533504 25.6565625,31.2063842 25.6565625,30.4121094 L25.6565625,30.3095703 Z M27.0823437,30.4121094 C27.0823437,30.8938826 27.1669783,31.2804347 27.33625,31.5717773 C27.5055217,31.8631199 27.7789564,32.0087891 28.1565625,32.0087891 C28.5244029,32.0087891 28.7937687,31.8623062 28.964668,31.5693359 C29.1355673,31.2763657 29.2210156,30.8906274 29.2210156,30.4121094 L29.2210156,30.3095703 C29.2210156,29.840818 29.1347535,29.4583348 28.9622266,29.1621094 C28.7896997,28.8658839 28.5178925,28.7177734 28.1467969,28.7177734 C27.7757013,28.7177734 27.5055217,28.8658839 27.33625,29.1621094 C27.1669783,29.4583348 27.0823437,29.840818 27.0823437,30.3095703 L27.0823437,30.4121094 Z M33.0035547,31.90625 L34.4781641,31.90625 L34.5367578,31.203125 L35.625625,31.203125 L35.625625,33 L31.2359766,33 L31.2359766,32.1601562 L33.750625,28.8203125 L32.4566797,28.8203125 L32.4029687,29.5185547 L31.3092187,29.5185547 L31.3092187,27.7167969 L35.5377344,27.7167969 L35.5377344,28.5322266 L33.0035547,31.90625 Z M41.9992969,25.890625 C42.813103,25.890625 43.4551864,26.09977 43.9255664,26.5180664 C44.3959464,26.9363628 44.6311328,27.4840461 44.6311328,28.1611328 C44.6311328,28.8414748 44.3959464,29.3883443 43.9255664,29.8017578 C43.4551864,30.2151713 42.813103,30.421875 41.9992969,30.421875 L40.798125,30.421875 L40.798125,31.9990234 L41.5598437,32.1455078 L41.5598437,33 L38.6155078,33 L38.6155078,32.1455078 L39.3723437,31.9990234 L39.3723437,26.8964844 L38.6155078,26.75 L38.6155078,25.890625 L41.9992969,25.890625 Z M40.798125,29.3232422 L41.9992969,29.3232422 C42.3964343,29.3232422 42.6967242,29.2150076 42.9001758,28.9985352 C43.1036273,28.7820627 43.2053516,28.5061866 43.2053516,28.1708984 C43.2053516,27.8290999 43.1036273,27.5467134 42.9001758,27.3237305 C42.6967242,27.1007476 42.3964343,26.9892578 41.9992969,26.9892578 L40.798125,26.9892578 L40.798125,29.3232422 Z M45.1568359,32.1455078 L45.8404297,31.9990234 L45.8404297,28.7226562 L45.0835937,28.5761719 L45.0835937,27.7167969 L47.1685547,27.7167969 L47.2320312,28.4882812 C47.3557298,28.2148424 47.5152334,28.0016284 47.7105469,27.8486328 C47.9058604,27.6956373 48.1320951,27.6191406 48.3892578,27.6191406 C48.464128,27.6191406 48.543066,27.6248372 48.6260742,27.6362305 C48.7090824,27.6476238 48.7782549,27.6614583 48.8335937,27.6777344 L48.6822266,28.9765625 L48.0962891,28.9619141 C47.8879547,28.9619141 47.7154304,29.0026038 47.5787109,29.0839844 C47.4419915,29.165365 47.3378259,29.2809237 47.2662109,29.4306641 L47.2662109,31.9990234 L47.9498047,32.1455078 L47.9498047,33 L45.1568359,33 L45.1568359,32.1455078 Z M49.0907422,30.3095703 C49.0907422,29.521806 49.3112803,28.8764674 49.7523633,28.3735352 C50.1934462,27.870603 50.8029779,27.6191406 51.5809766,27.6191406 C52.3622305,27.6191406 52.9733897,27.8697892 53.4144727,28.3710938 C53.8555556,28.8723983 54.0760937,29.5185507 54.0760937,30.3095703 L54.0760937,30.4121094 C54.0760937,31.2063842 53.8555556,31.8533504 53.4144727,32.3530273 C52.9733897,32.8527043 52.3654856,33.1025391 51.5907422,33.1025391 C50.8062331,33.1025391 50.1934462,32.8527043 49.7523633,32.3530273 C49.3112803,31.8533504 49.0907422,31.2063842 49.0907422,30.4121094 L49.0907422,30.3095703 Z M50.5165234,30.4121094 C50.5165234,30.8938826 50.601158,31.2804347 50.7704297,31.5717773 C50.9397014,31.8631199 51.2131361,32.0087891 51.5907422,32.0087891 C51.9585826,32.0087891 52.2279484,31.8623062 52.3988477,31.5693359 C52.5697469,31.2763657 52.6551953,30.8906274 52.6551953,30.4121094 L52.6551953,30.3095703 C52.6551953,29.840818 52.5689332,29.4583348 52.3964062,29.1621094 C52.2238793,28.8658839 51.9520722,28.7177734 51.5809766,28.7177734 C51.209881,28.7177734 50.9397014,28.8658839 50.7704297,29.1621094 C50.601158,29.4583348 50.5165234,29.840818 50.5165234,30.3095703 L50.5165234,30.4121094 Z" id="MozPro" fill="#FFFFFF" fill-rule="nonzero"></path>
    <rect id="block-2" fill-opacity="0.25" fill="#FFFFFF" x="75" y="27" width="46" height="5"></rect>
    <rect id="block-2-copy-4" fill-opacity="0.25" fill="#FFFFFF" x="297" y="28" width="33" height="4"></rect>
    <rect id="Row-3" stroke="#E2E2E2" fill="#FFFFFF" x="16" y="94" width="87" height="18"></rect>
    <rect id="Row-3-Copy" stroke="#E2E2E2" fill="#FFFFFF" x="16" y="148" width="87" height="18"></rect>
    <rect id="Row-3-Copy-2" stroke="#E2E2E2" fill="#FFFFFF" x="16" y="166" width="87" height="18"></rect>
    <rect id="Row-2" stroke="#E2E2E2" fill="#3493BA" x="16" y="76" width="87" height="18"></rect>
    <rect id="Row-2-Copy" stroke="#E2E2E2" fill="#FFFFFF" x="16" y="130" width="87" height="18"></rect>
    <rect id="Row-1" stroke="#E2E2E2" fill="#8B8B8B" x="16" y="58" width="87" height="18"></rect>
    <rect id="Row-1-Copy" stroke="#E2E2E2" x="16" y="112" width="87" height="18"></rect>
    <rect id="block-2" fill="#E2F3F9" x="29" y="83" width="29" height="4"></rect>
    <rect id="block-2-copy-9" fill="#E2F3F9" x="29" y="65" width="41" height="4"></rect>
    <rect id="block-2-copy-6" fill="#C9C9CC" x="29" y="119" width="29" height="4"></rect>
    <rect id="block-2-copy-5" fill="#C9C9CC" x="29" y="101" width="34" height="4"></rect>
    <rect id="block-2-copy-7" fill="#C9C9CC" x="29" y="137" width="34" height="4"></rect>
    <rect id="block-2-copy-8" fill="#C9C9CC" x="29" y="155" width="29" height="4"></rect>
    <rect id="block-2-copy-10" fill="#C9C9CC" x="29" y="173" width="29" height="4"></rect>
    <circle id="Oval" fill="#E2F3F9" cx="84" cy="67" r="4"></circle>
    <circle id="Oval" fill="#66AECB" cx="343" cy="30" r="4"></circle>
    <g id="Group-3" transform="translate(16.000000, 5.000000)" fill="#4DBDEB">
      <path d="M16.0265752,6.54545455 C14.6656587,6.54545455 13.5616438,5.53807594 13.5616438,4.29552616 C13.5616438,3.05283315 14.6656587,2.04545455 16.0265752,2.04545455 C17.3890445,2.04545455 18.4931507,3.05283315 18.4931507,4.29552616 C18.4931507,5.53807594 17.3890445,6.54545455 16.0265752,6.54545455 L16.0265752,6.54545455 Z M25.5819284,5.8515653 L29.9963953,1.07502899 L20.9073222,1.07502899 C20.7310152,1.08190682 20.5900159,1.22548751 20.5812814,1.40559186 L20.5806344,2.36863076 C19.7327436,0.958627596 18.0699127,0 16.1566937,0 C13.6578952,0 11.5851449,1.63682935 11.1999501,3.77915569 L11.1999501,1.07502899 L9.61697723,1.07502899 C9.24084036,1.08053125 8.90356958,1.25413724 8.66418035,1.51653842 L5.60055272,5.01327606 L2.53632431,1.51653842 C2.29790558,1.25413724 1.9606348,1.08053125 1.58334258,1.07502899 L0,1.07502899 L0,8.05697797 L1.84861173,8.05697797 C2.02658237,8.0479182 2.16762792,7.89916728 2.17492975,7.71579003 L2.1753919,7.71579003 L2.1753919,7.6989512 L2.1753919,4.44028144 L5.60175429,8.35642458 L9.02474305,4.44028144 L9.0265454,7.71579003 C9.03259945,7.89916728 9.17456928,8.0479182 9.35175429,8.05697797 L11.1999501,8.05697797 L11.1999501,5.22074945 C11.5851449,7.36331295 13.6578952,9 16.1566937,9 C18.9306973,9 21.1789689,6.98536418 21.1789689,4.49990513 C21.1789689,4.07679983 21.1123743,3.66792453 20.9905538,3.27968272 L24.9951937,3.27968272 L20.5925577,8.05697797 L21.0486912,8.05697797 L29.6562592,8.05697797 C29.6562592,8.05697797 29.6579692,8.05749974 29.6595404,8.05749974 C29.6605572,8.05749974 29.661389,8.05697797 29.6629603,8.05697797 L29.6722031,8.05697797 C29.8481403,8.0503373 29.9893245,7.90576051 29.9979666,7.72532413 L30,7.72532413 L30,5.8515653 L25.5819284,5.8515653 Z" id="Fill-1"></path>
    </g>
    <g id="Moz-Pro-Welcome-Illustration-3-Copy" transform="translate(117.000000, 57.000000)">
      <g id="Box-4" transform="translate(155.000000, 78.000000)">
        <rect id="BG" fill="#FFFFFF" x="1.15625" y="1.16" width="71.6875" height="56.84"></rect>
        <rect id="Section-BG" fill="#F0F7F7" x="1.15625" y="24.36" width="71.6875" height="33.64"></rect>
        <rect id="Rectangle" fill="#3493BA" x="5.78125" y="47.72" width="41" height="6"></rect>
        <rect id="Rectangle-Copy" fill="#3493BA" x="5.78125" y="33" width="34" height="6"></rect>
        <rect id="Rectangle" fill-opacity="0.25" fill="#282834" x="5.78125" y="10.44" width="41" height="5"></rect>
        <g id="Combined-Shape">
          <use fill="#F0F7F7" xlink:href="#path-1"></use>
          <use fill-opacity="0.05" fill="#000000" xlink:href="#path-1"></use>
        </g>
      </g>
      <g id="Box-3" transform="translate(0.000000, 78.000000)">
        <rect id="BG" fill="#FFFFFF" x="1.15267176" y="1.16" width="148.694656" height="56.84"></rect>
        <g id="Data-Visualization" transform="translate(1.152672, 24.360000)">
          <rect id="Graph-BG" fill="#F0F7F7" x="0" y="0" width="148.694656" height="33.64"></rect>
          <g id="Area-Chart" transform="translate(2.466312, 5.800000)">
            <mask id="mask-3" fill="white">
              <use xlink:href="#path-2"></use>
            </mask>
            <g id="Mask"></g>
            <polygon id="Rectangle" fill="#C1E6F3" mask="url(#mask-3)" points="0.991702946 10.7571875 27.9657979 10.7571875 50.2245199 8.35166016 71.7237055 3.23871094 94.9231945 7.07724609 116.075959 3.23871094 142.770329 3.23871094 142.770329 27.84 0.991702946 27.84"></polygon>
            <polyline id="Rectangle" stroke="#4DBDEB" stroke-width="2" stroke-linecap="square" stroke-linejoin="bevel" mask="url(#mask-3)" points="0.991702946 10.7571875 27.9657979 10.7571875 50.2245199 8.35166016 71.7237055 3.23871094 94.9231945 7.07724609 116.075959 3.23871094 142.770329 3.23871094"></polyline>
            <polygon id="Rectangle" fill="#D2CDED" mask="url(#mask-3)" points="0.991702946 24.923291 49.3370809 24.923291 71.8810159 21.2320215 95.4940428 23.851084 118.59574 19.2949121 142.770329 22.80125 142.770329 27.84 0.991702946 27.84"></polygon>
            <polyline id="Rectangle" stroke="#A58FDE" stroke-width="2" mask="url(#mask-3)" points="2.46505623e-13 24.923291 49.3370809 24.923291 71.8810159 21.2320215 95.4940428 23.851084 118.59574 19.2949121 144.144473 23.0833203"></polyline>
          </g>
        </g>
        <path d="M11.9733588,16.73 L11.9733588,17.84 L7.17335878,17.84 L7.17335878,16.73 L8.93135878,16.73 L8.93135878,11.672 C8.93135878,11.471999 8.93735872,11.2660011 8.94935878,11.054 L7.70135878,12.098 C7.62935842,12.1540003 7.55835913,12.1889999 7.48835878,12.203 C7.41835843,12.2170001 7.35235909,12.2180001 7.29035878,12.206 C7.22835847,12.1939999 7.17335902,12.1730002 7.12535878,12.143 C7.07735854,12.1129999 7.0413589,12.0800002 7.01735878,12.044 L6.54935878,11.402 L9.19535878,9.152 L10.4133588,9.152 L10.4133588,16.73 L11.9733588,16.73 Z M18.5733588,16.46 C18.7333596,16.46 18.8603583,16.5049996 18.9543588,16.595 C19.0483592,16.6850005 19.0953588,16.8039993 19.0953588,16.952 L19.0953588,17.84 L13.1433588,17.84 L13.1433588,17.348 C13.1433588,17.2479995 13.1643586,17.1430006 13.2063588,17.033 C13.248359,16.9229995 13.3153583,16.8240004 13.4073588,16.736 L16.0413588,14.096 C16.2613599,13.8719989 16.4583579,13.658001 16.6323588,13.454 C16.8063596,13.249999 16.9513582,13.048001 17.0673588,12.848 C17.1833594,12.647999 17.2723585,12.445001 17.3343588,12.239 C17.3963591,12.032999 17.4273588,11.8160011 17.4273588,11.588 C17.4273588,11.379999 17.3973591,11.1970008 17.3373588,11.039 C17.2773585,10.8809992 17.1923593,10.7480005 17.0823588,10.64 C16.9723582,10.5319995 16.8403595,10.4510003 16.6863588,10.397 C16.532358,10.3429997 16.3593597,10.316 16.1673588,10.316 C15.9913579,10.316 15.8283595,10.3409998 15.6783588,10.391 C15.528358,10.4410003 15.3953594,10.5109996 15.2793588,10.601 C15.1633582,10.6910005 15.0653592,10.7959994 14.9853588,10.916 C14.9053584,11.0360006 14.845359,11.1679993 14.8053588,11.312 C14.7373584,11.4960009 14.6493593,11.6179997 14.5413588,11.678 C14.4333582,11.7380003 14.2773598,11.7520002 14.0733588,11.72 L13.2933588,11.582 C13.3533591,11.1659979 13.4693579,10.8010016 13.6413588,10.487 C13.8133596,10.1729984 14.0283575,9.91100105 14.2863588,9.701 C14.5443601,9.49099895 14.8403571,9.33300053 15.1743588,9.227 C15.5083604,9.12099947 15.8673569,9.068 16.2513588,9.068 C16.6513608,9.068 17.0173571,9.12699941 17.3493588,9.245 C17.6813604,9.36300059 17.9653576,9.52999892 18.2013588,9.746 C18.43736,9.96200108 18.6213581,10.2219985 18.7533588,10.526 C18.8853594,10.8300015 18.9513588,11.1679981 18.9513588,11.54 C18.9513588,11.8600016 18.9043592,12.1559986 18.8103588,12.428 C18.7163583,12.7000014 18.5903596,12.9599988 18.4323588,13.208 C18.274358,13.4560012 18.0893598,13.6959988 17.8773588,13.928 C17.6653577,14.1600012 17.4433599,14.3959988 17.2113588,14.636 L15.2553588,16.634 C15.4433597,16.5779997 15.6303578,16.5350002 15.8163588,16.505 C16.0023597,16.4749999 16.1793579,16.46 16.3473588,16.46 L18.5733588,16.46 Z M20.3193588,19.31 C20.2473584,19.2499997 20.2113588,19.1760004 20.2113588,19.088 C20.2113588,19.0559998 20.2223587,19.0200002 20.2443588,18.98 C20.2663589,18.9399998 20.2933586,18.9040002 20.3253588,18.872 C20.369359,18.8239998 20.4233585,18.7650004 20.4873588,18.695 C20.5513591,18.6249997 20.6153585,18.5450005 20.6793588,18.455 C20.7433591,18.3649996 20.8023585,18.2670005 20.8563588,18.161 C20.910359,18.0549995 20.9513586,17.9420006 20.9793588,17.822 C20.8513581,17.822 20.7353593,17.7990002 20.6313588,17.753 C20.5273583,17.7069998 20.4383591,17.6440004 20.3643588,17.564 C20.2903584,17.4839996 20.232359,17.3900005 20.1903588,17.282 C20.1483586,17.1739995 20.1273588,17.0560006 20.1273588,16.928 C20.1273588,16.8159994 20.1483586,16.7110005 20.1903588,16.613 C20.232359,16.5149995 20.2913584,16.4290004 20.3673588,16.355 C20.4433592,16.2809996 20.5353582,16.2230002 20.6433588,16.181 C20.7513593,16.1389998 20.8693581,16.118 20.9973588,16.118 C21.1493595,16.118 21.2823582,16.1449997 21.3963588,16.199 C21.5103593,16.2530003 21.6043584,16.3269995 21.6783588,16.421 C21.7523591,16.5150005 21.8083586,16.6229994 21.8463588,16.745 C21.884359,16.8670006 21.9033588,16.9959993 21.9033588,17.132 C21.9033588,17.324001 21.8743591,17.5259989 21.8163588,17.738 C21.7583585,17.9500011 21.6733593,18.1619989 21.5613588,18.374 C21.4493582,18.5860011 21.3103596,18.791999 21.1443588,18.992 C20.9783579,19.192001 20.7893598,19.3759992 20.5773588,19.544 L20.3193588,19.31 Z M24.3633588,11.768 C24.3633588,12.2520024 24.4883575,12.6209987 24.7383588,12.875 C24.98836,13.1290013 25.3433565,13.256 25.8033588,13.256 C26.04336,13.256 26.2573578,13.2180004 26.4453588,13.142 C26.6333597,13.0659996 26.7913581,12.9620007 26.9193588,12.83 C27.0473594,12.6979993 27.1443584,12.5420009 27.2103588,12.362 C27.2763591,12.1819991 27.3093588,11.988001 27.3093588,11.78 C27.3093588,11.5439988 27.2733591,11.3330009 27.2013588,11.147 C27.1293584,10.9609991 27.0273594,10.8040006 26.8953588,10.676 C26.7633581,10.5479994 26.6063597,10.4500003 26.4243588,10.382 C26.2423579,10.3139997 26.0433599,10.28 25.8273588,10.28 C25.6033577,10.28 25.4013597,10.3169996 25.2213588,10.391 C25.0413579,10.4650004 24.8873594,10.5679993 24.7593588,10.7 C24.6313581,10.8320007 24.5333591,10.9889991 24.4653588,11.171 C24.3973584,11.3530009 24.3633588,11.5519989 24.3633588,11.768 Z M26.3313588,14.474 C26.3993591,14.3899996 26.4633585,14.3080004 26.5233588,14.228 C26.5833591,14.1479996 26.6413585,14.0680004 26.6973588,13.988 C26.4973578,14.1160006 26.27736,14.2129997 26.0373588,14.279 C25.7973576,14.3450003 25.5453601,14.378 25.2813588,14.378 C24.9813573,14.378 24.6873602,14.3260005 24.3993588,14.222 C24.1113573,14.1179995 23.8553599,13.9610011 23.6313588,13.751 C23.4073577,13.540999 23.2263595,13.2810016 23.0883588,12.971 C22.9503581,12.6609985 22.8813588,12.2980021 22.8813588,11.882 C22.8813588,11.4939981 22.9533581,11.1300017 23.0973588,10.79 C23.2413595,10.4499983 23.4433575,10.1520013 23.7033588,9.896 C23.9633601,9.63999872 24.275357,9.43800074 24.6393588,9.29 C25.0033606,9.14199926 25.4053566,9.068 25.8453588,9.068 C26.289361,9.068 26.688357,9.1379993 27.0423588,9.278 C27.3963605,9.4180007 27.6983575,9.61399874 27.9483588,9.866 C28.19836,10.1180013 28.3903581,10.4199982 28.5243588,10.772 C28.6583594,11.1240018 28.7253588,11.5099979 28.7253588,11.93 C28.7253588,12.1980013 28.702359,12.4519988 28.6563588,12.692 C28.6103585,12.9320012 28.5453592,13.1629989 28.4613588,13.385 C28.3773584,13.6070011 28.2753594,13.8239989 28.1553588,14.036 C28.0353582,14.2480011 27.9013595,14.457999 27.7533588,14.666 L25.7673588,17.498 C25.6993584,17.5940005 25.5973595,17.6749997 25.4613588,17.741 C25.3253581,17.8070003 25.1713596,17.84 24.9993588,17.84 L23.6373588,17.84 L26.3313588,14.474 Z M31.2873588,11.768 C31.2873588,12.2520024 31.4123575,12.6209987 31.6623588,12.875 C31.91236,13.1290013 32.2673565,13.256 32.7273588,13.256 C32.96736,13.256 33.1813578,13.2180004 33.3693588,13.142 C33.5573597,13.0659996 33.7153581,12.9620007 33.8433588,12.83 C33.9713594,12.6979993 34.0683584,12.5420009 34.1343588,12.362 C34.2003591,12.1819991 34.2333588,11.988001 34.2333588,11.78 C34.2333588,11.5439988 34.1973591,11.3330009 34.1253588,11.147 C34.0533584,10.9609991 33.9513594,10.8040006 33.8193588,10.676 C33.6873581,10.5479994 33.5303597,10.4500003 33.3483588,10.382 C33.1663579,10.3139997 32.9673599,10.28 32.7513588,10.28 C32.5273577,10.28 32.3253597,10.3169996 32.1453588,10.391 C31.9653579,10.4650004 31.8113594,10.5679993 31.6833588,10.7 C31.5553581,10.8320007 31.4573591,10.9889991 31.3893588,11.171 C31.3213584,11.3530009 31.2873588,11.5519989 31.2873588,11.768 Z M33.2553588,14.474 C33.3233591,14.3899996 33.3873585,14.3080004 33.4473588,14.228 C33.5073591,14.1479996 33.5653585,14.0680004 33.6213588,13.988 C33.4213578,14.1160006 33.20136,14.2129997 32.9613588,14.279 C32.7213576,14.3450003 32.4693601,14.378 32.2053588,14.378 C31.9053573,14.378 31.6113602,14.3260005 31.3233588,14.222 C31.0353573,14.1179995 30.7793599,13.9610011 30.5553588,13.751 C30.3313577,13.540999 30.1503595,13.2810016 30.0123588,12.971 C29.8743581,12.6609985 29.8053588,12.2980021 29.8053588,11.882 C29.8053588,11.4939981 29.8773581,11.1300017 30.0213588,10.79 C30.1653595,10.4499983 30.3673575,10.1520013 30.6273588,9.896 C30.8873601,9.63999872 31.199357,9.43800074 31.5633588,9.29 C31.9273606,9.14199926 32.3293566,9.068 32.7693588,9.068 C33.213361,9.068 33.612357,9.1379993 33.9663588,9.278 C34.3203605,9.4180007 34.6223575,9.61399874 34.8723588,9.866 C35.12236,10.1180013 35.3143581,10.4199982 35.4483588,10.772 C35.5823594,11.1240018 35.6493588,11.5099979 35.6493588,11.93 C35.6493588,12.1980013 35.626359,12.4519988 35.5803588,12.692 C35.5343585,12.9320012 35.4693592,13.1629989 35.3853588,13.385 C35.3013584,13.6070011 35.1993594,13.8239989 35.0793588,14.036 C34.9593582,14.2480011 34.8253595,14.457999 34.6773588,14.666 L32.6913588,17.498 C32.6233584,17.5940005 32.5213595,17.6749997 32.3853588,17.741 C32.2493581,17.8070003 32.0953596,17.84 31.9233588,17.84 L30.5613588,17.84 L33.2553588,14.474 Z M42.4413588,16.73 L42.4413588,17.84 L37.6413588,17.84 L37.6413588,16.73 L39.3993588,16.73 L39.3993588,11.672 C39.3993588,11.471999 39.4053587,11.2660011 39.4173588,11.054 L38.1693588,12.098 C38.0973584,12.1540003 38.0263591,12.1889999 37.9563588,12.203 C37.8863584,12.2170001 37.8203591,12.2180001 37.7583588,12.206 C37.6963585,12.1939999 37.641359,12.1730002 37.5933588,12.143 C37.5453585,12.1129999 37.5093589,12.0800002 37.4853588,12.044 L37.0173588,11.402 L39.6633588,9.152 L40.8813588,9.152 L40.8813588,16.73 L42.4413588,16.73 Z" id="12,991" fill="#8B8B8B" fill-rule="nonzero"></path>
        <rect id="Rectangle" fill-opacity="0.25" fill="#282834" x="53.0229008" y="12.76" width="50.7175573" height="5.8"></rect>
        <g id="Border">
          <use fill="#F0F7F7" xlink:href="#path-4"></use>
          <use fill-opacity="0.05" fill="#000000" xlink:href="#path-4"></use>
        </g>
      </g>
      <g id="Box-2" transform="translate(155.000000, 0.000000)">
        <rect id="BG" fill="#FFFFFF" x="1.15625" y="1.15625" width="71.6875" height="71.6875"></rect>
        <g id="Subsection" transform="translate(1.156250, 24.281250)">
          <rect id="Section-BG" fill="#F0F7F7" x="0" y="0" width="71.6875" height="48.5625"></rect>
          <g id="Donut-4" transform="translate(53.656250, 33.531250)">
            <path d="M5.78125,11.5625 C2.58835379,11.5625 0,8.97414621 0,5.78125 C0,2.58835379 2.58835379,0 5.78125,0 C8.97414621,0 11.5625,2.58835379 11.5625,5.78125 C11.5625,8.97414621 8.97414621,11.5625 5.78125,11.5625 Z M5.78125,8.671875 C7.3776981,8.671875 8.671875,7.3776981 8.671875,5.78125 C8.671875,4.1848019 7.3776981,2.890625 5.78125,2.890625 C4.1848019,2.890625 2.890625,4.1848019 2.890625,5.78125 C2.890625,7.3776981 4.1848019,8.671875 5.78125,8.671875 Z" id="BG" fill="#EEEEEF"></path>
            <path d="M0,5.78125 L2.890625,5.78125 C2.890625,7.3776981 4.1848019,8.671875 5.78125,8.671875 C7.3776981,8.671875 8.671875,7.3776981 8.671875,5.78125 C8.671875,4.1848019 7.3776981,2.890625 5.78125,2.890625 L5.78125,0 C8.97414621,0 11.5625,2.58835379 11.5625,5.78125 C11.5625,8.97414621 8.97414621,11.5625 5.78125,11.5625 C2.58835379,11.5625 0,8.97414621 0,5.78125 Z" id="Combined-Shape" fill="#4DBDEB"></path>
          </g>
          <rect id="Rectangle" fill-opacity="0.25" fill="#282834" x="4.625" y="38.15625" width="31" height="6"></rect>
          <rect id="Rectangle-Copy-2" fill-opacity="0.25" fill="#282834" x="55.84375" y="86.71875" width="7" height="6"></rect>
          <rect id="Rectangle-Copy-3" fill-opacity="0.25" fill="#282834" x="55.84375" y="100.71875" width="7" height="6"></rect>
          <g id="Donut-3" transform="translate(53.656250, 18.500000)">
            <path d="M5.78125,11.5625 C2.58835379,11.5625 0,8.97414621 0,5.78125 C0,2.58835379 2.58835379,0 5.78125,0 C8.97414621,0 11.5625,2.58835379 11.5625,5.78125 C11.5625,8.97414621 8.97414621,11.5625 5.78125,11.5625 Z M5.78125,8.671875 C7.3776981,8.671875 8.671875,7.3776981 8.671875,5.78125 C8.671875,4.1848019 7.3776981,2.890625 5.78125,2.890625 C4.1848019,2.890625 2.890625,4.1848019 2.890625,5.78125 C2.890625,7.3776981 4.1848019,8.671875 5.78125,8.671875 Z" id="BG" fill="#EEEEEF"></path>
            <path d="M0,5.78125 L2.890625,5.78125 C2.890625,7.3776981 4.1848019,8.671875 5.78125,8.671875 C7.3776981,8.671875 8.671875,7.3776981 8.671875,5.78125 C8.671875,4.1848019 7.3776981,2.890625 5.78125,2.890625 L5.78125,0 C8.97414621,0 11.5625,2.58835379 11.5625,5.78125 C11.5625,8.97414621 8.97414621,11.5625 5.78125,11.5625 C2.58835379,11.5625 0,8.97414621 0,5.78125 Z" id="Combined-Shape" fill="#4DBDEB"></path>
          </g>
          <rect id="Rectangle" fill-opacity="0.25" fill="#282834" x="4.625" y="21.96875" width="39" height="5.78125"></rect>
          <g id="Donut-2" transform="translate(51.656250, 3.468750)">
            <path d="M5.78125,11.5625 C2.58835379,11.5625 0,8.97414621 0,5.78125 C0,2.58835379 2.58835379,0 5.78125,0 C8.97414621,0 11.5625,2.58835379 11.5625,5.78125 C11.5625,8.97414621 8.97414621,11.5625 5.78125,11.5625 Z M5.78125,8.671875 C7.3776981,8.671875 8.671875,7.3776981 8.671875,5.78125 C8.671875,4.1848019 7.3776981,2.890625 5.78125,2.890625 C4.1848019,2.890625 2.890625,4.1848019 2.890625,5.78125 C2.890625,7.3776981 4.1848019,8.671875 5.78125,8.671875 Z" id="BG" fill="#EEEEEF"></path>
            <path d="M0,5.78125 L2.890625,5.78125 C2.890625,7.3776981 4.1848019,8.671875 5.78125,8.671875 C7.3776981,8.671875 8.671875,7.3776981 8.671875,5.78125 C8.671875,4.1848019 7.3776981,2.890625 5.78125,2.890625 L5.78125,0 C8.97414621,0 11.5625,2.58835379 11.5625,5.78125 C11.5625,8.97414621 8.97414621,11.5625 5.78125,11.5625 C2.58835379,11.5625 0,8.97414621 0,5.78125 Z" id="Combined-Shape" fill="#4DBDEB"></path>
          </g>
          <rect id="Rectangle" fill-opacity="0.25" fill="#282834" x="4.625" y="5.78125" width="31" height="6"></rect>
        </g>
        <g id="Donut-1" transform="translate(5.781250, 3.468750)">
          <path d="M9.25,18.5 C4.14136606,18.5 0,14.3586339 0,9.25 C0,4.14136606 4.14136606,0 9.25,0 C14.3586339,0 18.5,4.14136606 18.5,9.25 C18.5,14.3586339 14.3586339,18.5 9.25,18.5 Z M9.25,13.875 C11.804317,13.875 13.875,11.804317 13.875,9.25 C13.875,6.69568303 11.804317,4.625 9.25,4.625 C6.69568303,4.625 4.625,6.69568303 4.625,9.25 C4.625,11.804317 6.69568303,13.875 9.25,13.875 Z" id="BG" fill="#EEEEEF"></path>
          <path d="M0,9.25 L4.625,9.25 C4.625,11.804317 6.69568303,13.875 9.25,13.875 C11.804317,13.875 13.875,11.804317 13.875,9.25 C13.875,6.69568303 11.804317,4.625 9.25,4.625 L9.25,0 C14.3586339,0 18.5,4.14136606 18.5,9.25 C18.5,14.3586339 14.3586339,18.5 9.25,18.5 C4.14136606,18.5 0,14.3586339 0,9.25 Z" id="Combined-Shape" fill="#4DBDEB"></path>
        </g>
        <g id="Combined-Shape">
          <use fill="#F0F7F7" xlink:href="#path-5"></use>
          <use fill-opacity="0.05" fill="#000000" xlink:href="#path-5"></use>
        </g>
      </g>
      <g id="Box-1">
        <rect id="BG" fill="#FFFFFF" x="1.15267176" y="1.15625" width="148.694656" height="71.6875"></rect>
        <g id="Data-Visualization" transform="translate(1.152672, 24.281250)">
          <rect id="Graph-BG" fill="#F0F7F7" x="0" y="0" width="148.694656" height="48.5625"></rect>
          <polyline id="Line-3" stroke="#A58FDE" stroke-width="2" stroke-linecap="round" stroke-linejoin="bevel" points="3.78895813 38.0966873 53.0504793 38.0966873 74.1900178 34.2397919 97.0726346 37.2190552 120.729984 32.5649796 144.591077 36.2166519"></polyline>
          <polyline id="Line-2" stroke="#FDB502" stroke-width="2" stroke-linecap="round" stroke-linejoin="bevel" points="3.78895813 34.2397919 30.7306905 34.2397919 52.0756612 31.7838898 74.3473282 26.6586761 96.9167313 30.449234 120.92219 26.6586761 144.591077 26.6586761"></polyline>
          <polyline id="Line-1" stroke="#4DBDEB" stroke-width="2" stroke-linecap="round" stroke-linejoin="bevel" points="3.78895813 11.2728729 27.6207844 16.0102234 49.3467896 11.2728729 74.3473282 11.2728729 97.1342643 19.1362762 120.658224 9.94245148 144.591077 7.51929474"></polyline>
        </g>
        <rect id="Rectangle" fill-opacity="0.25" fill="#282834" x="66.8549618" y="12.71875" width="49.5648855" height="5.78125"></rect>
        <rect id="Rectangle" fill-opacity="0.25" fill="#282834" x="44.9541985" y="12.71875" width="16.1374046" height="5.78125"></rect>
        <path d="M36.7799809,13.021125 C36.7799809,13.2671262 36.7387313,13.489124 36.6562309,13.687125 C36.5737305,13.885126 36.4634816,14.0538743 36.3254809,14.193375 C36.1874802,14.3328757 36.0269818,14.4401246 35.8439809,14.515125 C35.66098,14.5901254 35.4704819,14.627625 35.2724809,14.627625 C35.0564798,14.627625 34.8569818,14.5901254 34.6739809,14.515125 C34.49098,14.4401246 34.3327316,14.3328757 34.1992309,14.193375 C34.0657302,14.0538743 33.9614813,13.885126 33.8864809,13.687125 C33.8114805,13.489124 33.7739809,13.2671262 33.7739809,13.021125 C33.7739809,12.7691237 33.8114805,12.541126 33.8864809,12.337125 C33.9614813,12.133124 34.0657302,11.9606257 34.1992309,11.819625 C34.3327316,11.6786243 34.49098,11.5698754 34.6739809,11.493375 C34.8569818,11.4168746 35.0564798,11.378625 35.2724809,11.378625 C35.488482,11.378625 35.68873,11.4168746 35.8732309,11.493375 C36.0577318,11.5698754 36.2174802,11.6786243 36.3524809,11.819625 C36.4874816,11.9606257 36.5924805,12.133124 36.6674809,12.337125 C36.7424813,12.541126 36.7799809,12.7691237 36.7799809,13.021125 Z M35.9249809,13.021125 C35.9249809,12.8471241 35.9077311,12.7016256 35.8732309,12.584625 C35.8387307,12.4676244 35.7922312,12.3731254 35.7337309,12.301125 C35.6752306,12.2291246 35.6062313,12.1773752 35.5267309,12.145875 C35.4472305,12.1143748 35.3624814,12.098625 35.2724809,12.098625 C35.1824805,12.098625 35.0984813,12.1143748 35.0204809,12.145875 C34.9424805,12.1773752 34.8757312,12.2291246 34.8202309,12.301125 C34.7647306,12.3731254 34.7204811,12.4676244 34.6874809,12.584625 C34.6544808,12.7016256 34.6379809,12.8471241 34.6379809,13.021125 C34.6379809,13.1891258 34.6544808,13.3293744 34.6874809,13.441875 C34.7204811,13.5543756 34.7647306,13.6451247 34.8202309,13.714125 C34.8757312,13.7831253 34.9424805,13.8326248 35.0204809,13.862625 C35.0984813,13.8926252 35.1824805,13.907625 35.2724809,13.907625 C35.3624814,13.907625 35.4472305,13.8926252 35.5267309,13.862625 C35.6062313,13.8326248 35.6752306,13.7831253 35.7337309,13.714125 C35.7922312,13.6451247 35.8387307,13.5543756 35.8732309,13.441875 C35.9077311,13.3293744 35.9249809,13.1891258 35.9249809,13.021125 Z M38.9444809,11.621625 C38.9834811,11.5766248 39.0292307,11.5361252 39.0817309,11.500125 C39.1342312,11.4641248 39.2084804,11.446125 39.3044809,11.446125 L40.1144809,11.446125 L35.2814809,17.786625 C35.2424807,17.8346252 35.1959812,17.8743748 35.1419809,17.905875 C35.0879806,17.9373752 35.0219813,17.953125 34.9439809,17.953125 L34.1159809,17.953125 L38.9444809,11.621625 Z M40.4564809,16.423125 C40.4564809,16.6691262 40.4152313,16.891124 40.3327309,17.089125 C40.2502305,17.287126 40.1399816,17.4558743 40.0019809,17.595375 C39.8639802,17.7348757 39.7034818,17.8428746 39.5204809,17.919375 C39.33748,17.9958754 39.1469819,18.034125 38.9489809,18.034125 C38.7329798,18.034125 38.5334818,17.9958754 38.3504809,17.919375 C38.16748,17.8428746 38.0092316,17.7348757 37.8757309,17.595375 C37.7422302,17.4558743 37.6379813,17.287126 37.5629809,17.089125 C37.4879805,16.891124 37.4504809,16.6691262 37.4504809,16.423125 C37.4504809,16.1711237 37.4879805,15.943126 37.5629809,15.739125 C37.6379813,15.535124 37.7422302,15.3626257 37.8757309,15.221625 C38.0092316,15.0806243 38.16748,14.9718754 38.3504809,14.895375 C38.5334818,14.8188746 38.7329798,14.780625 38.9489809,14.780625 C39.164982,14.780625 39.36523,14.8188746 39.5497309,14.895375 C39.7342318,14.9718754 39.8932302,15.0806243 40.0267309,15.221625 C40.1602316,15.3626257 40.2652305,15.535124 40.3417309,15.739125 C40.4182313,15.943126 40.4564809,16.1711237 40.4564809,16.423125 Z M39.5969809,16.423125 C39.5969809,16.2491241 39.5804811,16.1036256 39.5474809,15.986625 C39.5144808,15.8696244 39.4687312,15.7751254 39.4102309,15.703125 C39.3517306,15.6311246 39.2827313,15.5793752 39.2032309,15.547875 C39.1237305,15.5163748 39.0389814,15.500625 38.9489809,15.500625 C38.8589805,15.500625 38.7749813,15.5163748 38.6969809,15.547875 C38.6189805,15.5793752 38.5514812,15.6311246 38.4944809,15.703125 C38.4374806,15.7751254 38.3932311,15.8696244 38.3617309,15.986625 C38.3302308,16.1036256 38.3144809,16.2491241 38.3144809,16.423125 C38.3144809,16.5911258 38.3302308,16.7321244 38.3617309,16.846125 C38.3932311,16.9601256 38.4374806,17.0516247 38.4944809,17.120625 C38.5514812,17.1896253 38.6189805,17.2391248 38.6969809,17.269125 C38.7749813,17.2991252 38.8589805,17.314125 38.9489809,17.314125 C39.0389814,17.314125 39.1237305,17.2991252 39.2032309,17.269125 C39.2827313,17.2391248 39.3517306,17.1896253 39.4102309,17.120625 C39.4687312,17.0516247 39.5144808,16.9601256 39.5474809,16.846125 C39.5804811,16.7321244 39.5969809,16.5911258 39.5969809,16.423125 Z" id="%" fill="#8B8B8B" fill-rule="nonzero"></path>
        <path d="M11.6493588,16.416875 C11.8093596,16.416875 11.9363583,16.4618746 12.0303588,16.551875 C12.1243592,16.6418755 12.1713588,16.7608743 12.1713588,16.908875 L12.1713588,17.796875 L6.21935878,17.796875 L6.21935878,17.304875 C6.21935878,17.2048745 6.24035857,17.0998756 6.28235878,16.989875 C6.32435899,16.8798744 6.39135832,16.7808754 6.48335878,16.692875 L9.11735878,14.052875 C9.33735988,13.8288739 9.53435791,13.614876 9.70835878,13.410875 C9.88235965,13.206874 10.0273582,13.004876 10.1433588,12.804875 C10.2593594,12.604874 10.3483585,12.401876 10.4103588,12.195875 C10.4723591,11.989874 10.5033588,11.7728761 10.5033588,11.544875 C10.5033588,11.336874 10.4733591,11.1538758 10.4133588,10.995875 C10.3533585,10.8378742 10.2683593,10.7048755 10.1583588,10.596875 C10.0483582,10.4888745 9.91635955,10.4078753 9.76235878,10.353875 C9.60835801,10.2998747 9.43535974,10.272875 9.24335878,10.272875 C9.0673579,10.272875 8.90435953,10.2978747 8.75435878,10.347875 C8.60435803,10.3978753 8.47135936,10.4678745 8.35535878,10.557875 C8.2393582,10.6478755 8.14135918,10.7528744 8.06135878,10.872875 C7.98135838,10.9928756 7.92135898,11.1248743 7.88135878,11.268875 C7.81335844,11.4528759 7.72535932,11.5748747 7.61735878,11.634875 C7.50935824,11.6948753 7.3533598,11.7088752 7.14935878,11.676875 L6.36935878,11.538875 C6.42935908,11.1228729 6.54535792,10.7578766 6.71735878,10.443875 C6.88935964,10.1298734 7.10435749,9.86787605 7.36235878,9.657875 C7.62036007,9.44787395 7.91635711,9.28987553 8.25035878,9.183875 C8.58436045,9.07787447 8.94335686,9.024875 9.32735878,9.024875 C9.72736078,9.024875 10.0933571,9.08387441 10.4253588,9.201875 C10.7573604,9.31987559 11.0413576,9.48687392 11.2773588,9.702875 C11.51336,9.91887608 11.6973581,10.1788735 11.8293588,10.482875 C11.9613594,10.7868765 12.0273588,11.1248731 12.0273588,11.496875 C12.0273588,11.8168766 11.9803592,12.1128736 11.8863588,12.384875 C11.7923583,12.6568764 11.6663596,12.9168738 11.5083588,13.164875 C11.350358,13.4128762 11.1653598,13.6528738 10.9533588,13.884875 C10.7413577,14.1168762 10.5193599,14.3528738 10.2873588,14.592875 L8.33135878,16.590875 C8.51935972,16.5348747 8.70635785,16.4918751 8.89235878,16.461875 C9.07835971,16.4318748 9.25535794,16.416875 9.42335878,16.416875 L11.6493588,16.416875 Z M16.9593588,14.526875 L16.9593588,11.688875 C16.9593588,11.4208737 16.9773586,11.1248766 17.0133588,10.800875 L14.3193588,14.526875 L16.9593588,14.526875 Z M19.3413588,14.526875 L19.3413588,15.384875 C19.3413588,15.4648754 19.315359,15.5338747 19.2633588,15.591875 C19.2113585,15.6498753 19.1373593,15.678875 19.0413588,15.678875 L18.2493588,15.678875 L18.2493588,17.796875 L16.9593588,17.796875 L16.9593588,15.678875 L13.2993588,15.678875 C13.1993583,15.678875 13.1113592,15.6478753 13.0353588,15.585875 C12.9593584,15.5238747 12.9113589,15.4468755 12.8913588,15.354875 L12.7353588,14.604875 L16.8453588,9.114875 L18.2493588,9.114875 L18.2493588,14.526875 L19.3413588,14.526875 Z M20.1273588,16.980875 C20.1273588,16.8568744 20.1503585,16.7388756 20.1963588,16.626875 C20.242359,16.5148744 20.3053584,16.4188754 20.3853588,16.338875 C20.4653592,16.2588746 20.5613582,16.1948752 20.6733588,16.146875 C20.7853593,16.0988748 20.9053581,16.074875 21.0333588,16.074875 C21.1613594,16.074875 21.2803582,16.0988748 21.3903588,16.146875 C21.5003593,16.1948752 21.5963584,16.2588746 21.6783588,16.338875 C21.7603592,16.4188754 21.8253585,16.5148744 21.8733588,16.626875 C21.921359,16.7388756 21.9453588,16.8568744 21.9453588,16.980875 C21.9453588,17.1088756 21.921359,17.2278745 21.8733588,17.337875 C21.8253585,17.4478755 21.7603592,17.5428746 21.6783588,17.622875 C21.5963584,17.7028754 21.5003593,17.7658748 21.3903588,17.811875 C21.2803582,17.8578752 21.1613594,17.880875 21.0333588,17.880875 C20.9053581,17.880875 20.7853593,17.8578752 20.6733588,17.811875 C20.5613582,17.7658748 20.4653592,17.7028754 20.3853588,17.622875 C20.3053584,17.5428746 20.242359,17.4478755 20.1963588,17.337875 C20.1503585,17.2278745 20.1273588,17.1088756 20.1273588,16.980875 Z M24.8613588,12.270875 C25.0533597,12.2308748 25.2373579,12.2018751 25.4133588,12.183875 C25.5893597,12.1658749 25.759358,12.156875 25.9233588,12.156875 C26.3793611,12.156875 26.781357,12.2248743 27.1293588,12.360875 C27.4773605,12.4968757 27.7693576,12.6848738 28.0053588,12.924875 C28.24136,13.1648762 28.4193582,13.4458734 28.5393588,13.767875 C28.6593594,14.0898766 28.7193588,14.4368731 28.7193588,14.808875 C28.7193588,15.2688773 28.6383596,15.6888731 28.4763588,16.068875 C28.314358,16.4488769 28.0893602,16.7738736 27.8013588,17.043875 C27.5133573,17.3138764 27.1723607,17.5228743 26.7783588,17.670875 C26.3843568,17.8188757 25.9553611,17.892875 25.4913588,17.892875 C25.2193574,17.892875 24.96136,17.8648753 24.7173588,17.808875 C24.4733576,17.7528747 24.2443598,17.6778755 24.0303588,17.583875 C23.8163577,17.4898745 23.6183597,17.3818756 23.4363588,17.259875 C23.2543579,17.1378744 23.0913595,17.0088757 22.9473588,16.872875 L23.4033588,16.242875 C23.4993593,16.1068743 23.625358,16.038875 23.7813588,16.038875 C23.8813593,16.038875 23.9833583,16.0708747 24.0873588,16.134875 C24.1913593,16.1988753 24.3103581,16.2688746 24.4443588,16.344875 C24.5783594,16.4208754 24.7363579,16.4908747 24.9183588,16.554875 C25.1003597,16.6188753 25.3193575,16.650875 25.5753588,16.650875 C25.8473601,16.650875 26.0873577,16.6068754 26.2953588,16.518875 C26.5033598,16.4308746 26.6763581,16.3078758 26.8143588,16.149875 C26.9523595,15.9918742 27.0563584,15.8038761 27.1263588,15.585875 C27.1963591,15.3678739 27.2313588,15.1308763 27.2313588,14.874875 C27.2313588,14.4028726 27.0943601,14.0338763 26.8203588,13.767875 C26.5463574,13.5018737 26.1413615,13.368875 25.6053588,13.368875 C25.1933567,13.368875 24.7713609,13.4448742 24.3393588,13.596875 L23.4153588,13.332875 L24.1353588,9.120875 L28.4193588,9.120875 L28.4193588,9.750875 C28.4193588,9.96287606 28.3533594,10.1348743 28.2213588,10.266875 C28.0893581,10.3988757 27.8653604,10.464875 27.5493588,10.464875 L25.1673588,10.464875 L24.8613588,12.270875 Z" id="24.5" fill="#8B8B8B" fill-rule="nonzero"></path>
        <g id="Border">
          <use fill="#F0F7F7" xlink:href="#path-6"></use>
          <use fill-opacity="0.05" fill="#000000" xlink:href="#path-6"></use>
        </g>
      </g>
    </g>
    <polygon id="Path-10" fill="#C9C9CC" points="93 101 93 106 97 103.5"></polygon>
    <polygon id="Path-10-Copy" fill="#C9C9CC" points="93 136 93 141 97 138.5"></polygon>
    <polygon id="Path-10-Copy-2" fill="#C9C9CC" points="93 155 93 160 97 157.5"></polygon>
    <rect id="Rectangle" fill="#E5E5E5" x="0" y="199" width="370" height="1"></rect>
  </g>
</svg>
