<?xml version="1.0" encoding="UTF-8"?>
<svg xmlns="http://www.w3.org/2000/svg" xmlns:xlink="http://www.w3.org/1999/xlink" width="370px" height="200px" viewBox="0 0 370 200">
  <!-- Generator: Sketch 58 (84663) - https://sketch.com -->
  <title>Moz Local - v2</title>
  <desc>Created with Sketch.</desc>
  <g id="Moz-Local---v2" stroke="none" stroke-width="1" fill="none" fill-rule="evenodd">
    <rect id="Sub-Nav" fill="#4DBDEB" x="0" y="19" width="370" height="21"></rect>
    <path d="M20.1337891,27.7412109 L20.1044922,27.7363281 L18.2001953,33 L17.2431641,33 L15.3486328,27.7558594 L15.3193359,27.7607422 L15.4560547,30.8808594 L15.4560547,31.9990234 L16.2177734,32.1455078 L16.2177734,33 L13.2734375,33 L13.2734375,32.1455078 L14.0302734,31.9990234 L14.0302734,26.8964844 L13.2734375,26.75 L13.2734375,25.890625 L15.890625,25.890625 L17.7021484,31.1298828 L17.7314453,31.1298828 L19.5576172,25.890625 L22.1845703,25.890625 L22.1845703,26.75 L21.4228516,26.8964844 L21.4228516,31.9990234 L22.1845703,32.1455078 L22.1845703,33 L19.2402344,33 L19.2402344,32.1455078 L19.9970703,31.9990234 L19.9970703,30.8808594 L20.1337891,27.7412109 Z M22.6565625,30.3095703 C22.6565625,29.521806 22.8771007,28.8764674 23.3181836,28.3735352 C23.7592665,27.870603 24.3687982,27.6191406 25.1467969,27.6191406 C25.9280508,27.6191406 26.53921,27.8697892 26.980293,28.3710938 C27.4213759,28.8723983 27.6419141,29.5185507 27.6419141,30.3095703 L27.6419141,30.4121094 C27.6419141,31.2063842 27.4213759,31.8533504 26.980293,32.3530273 C26.53921,32.8527043 25.931306,33.1025391 25.1565625,33.1025391 C24.3720534,33.1025391 23.7592665,32.8527043 23.3181836,32.3530273 C22.8771007,31.8533504 22.6565625,31.2063842 22.6565625,30.4121094 L22.6565625,30.3095703 Z M24.0823437,30.4121094 C24.0823437,30.8938826 24.1669783,31.2804347 24.33625,31.5717773 C24.5055217,31.8631199 24.7789564,32.0087891 25.1565625,32.0087891 C25.5244029,32.0087891 25.7937687,31.8623062 25.964668,31.5693359 C26.1355673,31.2763657 26.2210156,30.8906274 26.2210156,30.4121094 L26.2210156,30.3095703 C26.2210156,29.840818 26.1347535,29.4583348 25.9622266,29.1621094 C25.7896997,28.8658839 25.5178925,28.7177734 25.1467969,28.7177734 C24.7757013,28.7177734 24.5055217,28.8658839 24.33625,29.1621094 C24.1669783,29.4583348 24.0823437,29.840818 24.0823437,30.3095703 L24.0823437,30.4121094 Z M30.0035547,31.90625 L31.4781641,31.90625 L31.5367578,31.203125 L32.625625,31.203125 L32.625625,33 L28.2359766,33 L28.2359766,32.1601562 L30.750625,28.8203125 L29.4566797,28.8203125 L29.4029687,29.5185547 L28.3092187,29.5185547 L28.3092187,27.7167969 L32.5377344,27.7167969 L32.5377344,28.5322266 L30.0035547,31.90625 Z M35.6155078,33 L35.6155078,32.1455078 L36.3723437,31.9990234 L36.3723437,26.8964844 L35.6155078,26.75 L35.6155078,25.890625 L38.5598437,25.890625 L38.5598437,26.75 L37.798125,26.8964844 L37.798125,31.90625 L39.8049609,31.90625 L39.8733203,31.0126953 L40.9621875,31.0126953 L40.9621875,33 L35.6155078,33 Z M41.4390625,30.3095703 C41.4390625,29.521806 41.6596007,28.8764674 42.1006836,28.3735352 C42.5417665,27.870603 43.1512982,27.6191406 43.9292969,27.6191406 C44.7105508,27.6191406 45.32171,27.8697892 45.762793,28.3710938 C46.2038759,28.8723983 46.4244141,29.5185507 46.4244141,30.3095703 L46.4244141,30.4121094 C46.4244141,31.2063842 46.2038759,31.8533504 45.762793,32.3530273 C45.32171,32.8527043 44.713806,33.1025391 43.9390625,33.1025391 C43.1545534,33.1025391 42.5417665,32.8527043 42.1006836,32.3530273 C41.6596007,31.8533504 41.4390625,31.2063842 41.4390625,30.4121094 L41.4390625,30.3095703 Z M42.8648437,30.4121094 C42.8648437,30.8938826 42.9494783,31.2804347 43.11875,31.5717773 C43.2880217,31.8631199 43.5614564,32.0087891 43.9390625,32.0087891 C44.3069029,32.0087891 44.5762687,31.8623062 44.747168,31.5693359 C44.9180673,31.2763657 45.0035156,30.8906274 45.0035156,30.4121094 L45.0035156,30.3095703 C45.0035156,29.840818 44.9172535,29.4583348 44.7447266,29.1621094 C44.5721997,28.8658839 44.3003925,28.7177734 43.9292969,28.7177734 C43.5582013,28.7177734 43.2880217,28.8658839 43.11875,29.1621094 C42.9494783,29.4583348 42.8648437,29.840818 42.8648437,30.3095703 L42.8648437,30.4121094 Z M49.455,32.0087891 C49.7089075,32.0087891 49.912356,31.9347338 50.0653516,31.7866211 C50.2183471,31.6385084 50.2948437,31.4407564 50.2948437,31.1933594 L51.5839062,31.1933594 L51.5985547,31.2226562 C51.6115756,31.7565131 51.4113823,32.203286 50.9979687,32.5629883 C50.5845552,32.9226906 50.0702374,33.1025391 49.455,33.1025391 C48.6672356,33.1025391 48.0601454,32.8535181 47.6337109,32.3554688 C47.2072765,31.8574194 46.9940625,31.2177773 46.9940625,30.4365234 L46.9940625,30.2900391 C46.9940625,29.5120404 47.2129731,28.8723983 47.6508008,28.3710938 C48.0886285,27.8697892 48.7128084,27.6191406 49.5233594,27.6191406 C49.9497938,27.6191406 50.332277,27.6826166 50.6708203,27.8095703 C51.0093637,27.9365241 51.2909364,28.1155587 51.5155469,28.3466797 L51.5350781,29.7578125 L50.3778516,29.7578125 L50.1434766,28.9326172 C50.0718616,28.8707679 49.9839719,28.8194989 49.8798047,28.7788086 C49.7756375,28.7381183 49.6568236,28.7177734 49.5233594,28.7177734 C49.1197115,28.7177734 48.8348836,28.8642563 48.6688672,29.1572266 C48.5028507,29.4501968 48.4198437,29.8277972 48.4198437,30.2900391 L48.4198437,30.4365234 C48.4198437,30.908531 48.4963404,31.2885728 48.6493359,31.5766602 C48.8023315,31.8647475 49.0708835,32.0087891 49.455,32.0087891 Z M55.5373437,33 C55.4982811,32.9121089 55.4641017,32.8217778 55.4348047,32.7290039 C55.4055077,32.63623 55.3827214,32.5426437 55.3664453,32.4482422 C55.1971736,32.6435557 54.9912838,32.8014317 54.7487695,32.921875 C54.5062553,33.0423183 54.2287516,33.1025391 53.91625,33.1025391 C53.3986693,33.1025391 52.9877033,32.9617527 52.6833398,32.6801758 C52.3789763,32.3985989 52.2267969,32.0153019 52.2267969,31.5302734 C52.2267969,31.0354793 52.4253626,30.6529961 52.8225,30.3828125 C53.2196374,30.1126289 53.8023139,29.9775391 54.5705469,29.9775391 L55.2980859,29.9775391 L55.2980859,29.4599609 C55.2980859,29.2060534 55.2248445,29.0091153 55.0783594,28.8691406 C54.9318743,28.729166 54.7154051,28.6591797 54.4289453,28.6591797 C54.2661841,28.6591797 54.1213288,28.6778969 53.994375,28.715332 C53.8674212,28.7527671 53.7648832,28.7975258 53.6867578,28.8496094 L53.5939844,29.4160156 L52.5197656,29.4160156 L52.5246484,28.2441406 C52.7850664,28.0683585 53.0837288,27.920248 53.4206445,27.7998047 C53.7575603,27.6793614 54.1245813,27.6191406 54.5217187,27.6191406 C55.1760189,27.6191406 55.7074263,27.779458 56.115957,28.1000977 C56.5244877,28.4207373 56.72875,28.8772757 56.72875,29.4697266 L56.72875,31.6523438 C56.72875,31.7337244 56.7295638,31.810221 56.7311914,31.8818359 C56.732819,31.9534509 56.7385156,32.0218096 56.7482812,32.0869141 L57.1828516,32.1455078 L57.1828516,33 L55.5373437,33 Z M54.3019922,32.0478516 C54.516837,32.0478516 54.7121476,32.0014653 54.8879297,31.9086914 C55.0637118,31.8159175 55.2004292,31.699545 55.2980859,31.5595703 L55.2980859,30.7539062 L54.5705469,30.7539062 C54.267811,30.7539062 54.0383211,30.8247063 53.8820703,30.9663086 C53.7258195,31.1079109 53.6476953,31.2779938 53.6476953,31.4765625 C53.6476953,31.6555999 53.7054747,31.7955724 53.8210352,31.8964844 C53.9365956,31.9973963 54.096913,32.0478516 54.3019922,32.0478516 Z M57.4448828,26.2421875 L57.4448828,25.3828125 L59.6323828,25.3828125 L59.6323828,31.9990234 L60.3208594,32.1455078 L60.3208594,33 L57.518125,33 L57.518125,32.1455078 L58.2066016,31.9990234 L58.2066016,26.3886719 L57.4448828,26.2421875 Z" id="MozLocal" fill="#FFFFFF" fill-rule="nonzero"></path>
    <rect id="block-2" fill-opacity="0.25" fill="#FFFFFF" x="103" y="28" width="19" height="4"></rect>
    <rect id="block-2-copy" fill-opacity="0.25" fill="#FFFFFF" x="131" y="28" width="19" height="4"></rect>
    <rect id="block-2-copy-2" fill-opacity="0.25" fill="#FFFFFF" x="160" y="28" width="18" height="4"></rect>
    <rect id="block-2-copy-3" fill-opacity="0.25" fill="#FFFFFF" x="188" y="28" width="19" height="4"></rect>
    <rect id="block-2-copy-4" fill-opacity="0.25" fill="#FFFFFF" x="216" y="28" width="19" height="4"></rect>
    <rect id="block-2-copy-4" fill-opacity="0.25" fill="#FFFFFF" x="297" y="28" width="33" height="4"></rect>
    <rect id="block-2-copy-9" fill="#C9C9CC" x="47" y="83" width="41" height="4"></rect>
    <circle id="Oval" fill="#C9C9CC" cx="33" cy="85" r="4"></circle>
    <rect id="block-2-copy-9" fill="#C9C9CC" x="47" y="101" width="41" height="4"></rect>
    <circle id="Oval" fill="#C9C9CC" cx="33" cy="103" r="4"></circle>
    <rect id="block-2-copy-9" fill="#C9C9CC" x="47" y="119" width="41" height="4"></rect>
    <circle id="Oval" fill="#C9C9CC" cx="33" cy="121" r="4"></circle>
    <rect id="block-2-copy-9" fill="#C9C9CC" x="47" y="137" width="41" height="4"></rect>
    <circle id="Oval" fill="#C9C9CC" cx="33" cy="139" r="4"></circle>
    <rect id="block-2-copy-9" fill="#C9C9CC" x="47" y="155" width="41" height="4"></rect>
    <circle id="Oval" fill="#C9C9CC" cx="33" cy="157" r="4"></circle>
    <rect id="block-2-copy-9" fill="#C9C9CC" x="47" y="173" width="41" height="4"></rect>
    <circle id="Oval" fill="#C9C9CC" cx="33" cy="175" r="4"></circle>
    <circle id="Oval" fill="#79CDF0" cx="343" cy="30" r="4"></circle>
    <g id="Group-3" transform="translate(16.000000, 5.000000)" fill="#4DBDEB">
      <path d="M16.0265752,6.54545455 C14.6656587,6.54545455 13.5616438,5.53807594 13.5616438,4.29552616 C13.5616438,3.05283315 14.6656587,2.04545455 16.0265752,2.04545455 C17.3890445,2.04545455 18.4931507,3.05283315 18.4931507,4.29552616 C18.4931507,5.53807594 17.3890445,6.54545455 16.0265752,6.54545455 L16.0265752,6.54545455 Z M25.5819284,5.8515653 L29.9963953,1.07502899 L20.9073222,1.07502899 C20.7310152,1.08190682 20.5900159,1.22548751 20.5812814,1.40559186 L20.5806344,2.36863076 C19.7327436,0.958627596 18.0699127,0 16.1566937,0 C13.6578952,0 11.5851449,1.63682935 11.1999501,3.77915569 L11.1999501,1.07502899 L9.61697723,1.07502899 C9.24084036,1.08053125 8.90356958,1.25413724 8.66418035,1.51653842 L5.60055272,5.01327606 L2.53632431,1.51653842 C2.29790558,1.25413724 1.9606348,1.08053125 1.58334258,1.07502899 L0,1.07502899 L0,8.05697797 L1.84861173,8.05697797 C2.02658237,8.0479182 2.16762792,7.89916728 2.17492975,7.71579003 L2.1753919,7.71579003 L2.1753919,7.6989512 L2.1753919,4.44028144 L5.60175429,8.35642458 L9.02474305,4.44028144 L9.0265454,7.71579003 C9.03259945,7.89916728 9.17456928,8.0479182 9.35175429,8.05697797 L11.1999501,8.05697797 L11.1999501,5.22074945 C11.5851449,7.36331295 13.6578952,9 16.1566937,9 C18.9306973,9 21.1789689,6.98536418 21.1789689,4.49990513 C21.1789689,4.07679983 21.1123743,3.66792453 20.9905538,3.27968272 L24.9951937,3.27968272 L20.5925577,8.05697797 L21.0486912,8.05697797 L29.6562592,8.05697797 C29.6562592,8.05697797 29.6579692,8.05749974 29.6595404,8.05749974 C29.6605572,8.05749974 29.661389,8.05697797 29.6629603,8.05697797 L29.6722031,8.05697797 C29.8481403,8.0503373 29.9893245,7.90576051 29.9979666,7.72532413 L30,7.72532413 L30,5.8515653 L25.5819284,5.8515653 Z" id="Fill-1"></path>
    </g>
    <rect id="Rectangle" fill="#E5E5E5" x="0" y="199" width="370" height="1"></rect>
    <rect id="Rectangle" fill="#E7EBEC" x="103" y="58" width="267" height="141"></rect>
    <rect id="Rectangle" fill="#FFFFFF" x="116" y="64" width="87.3684211" height="62.1052632"></rect>
    <rect id="Rectangle" fill="#FFFFFF" x="208.631579" y="64" width="87.3684211" height="62.1052632"></rect>
    <rect id="Rectangle" fill="#FFFFFF" x="208.631579" y="131.368421" width="87.3684211" height="62"></rect>
    <rect id="Rectangle" fill="#FFFFFF" x="116" y="131.368421" width="87.3684211" height="62"></rect>
    <rect id="block-2-copy-9" fill="#C9C9CC" x="120.210526" y="68.2105263" width="43.1578947" height="4.21052632"></rect>
    <rect id="block-2-copy-9" fill="#C9C9CC" x="177.052632" y="78.7368421" width="21.0526316" height="6.31578947"></rect>
    <rect id="block-2-copy-9" fill="#C9C9CC" x="212.842105" y="68.2105263" width="36.8421053" height="4.21052632"></rect>
    <rect id="block-2-copy-9" fill="#C9C9CC" x="269.684211" y="78.7368421" width="21.0526316" height="6.31578947"></rect>
    <rect id="block-2-copy-9" fill="#C9C9CC" x="212.842105" y="135.578947" width="30.5263158" height="4.21052632"></rect>
    <rect id="block-2-copy-9" fill="#C9C9CC" x="120.210526" y="135.578947" width="18.9473684" height="4.21052632"></rect>
    <rect id="block-2-copy-9" fill="#C9C9CC" x="269.684211" y="146.105263" width="21.0526316" height="6.31578947"></rect>
    <g id="graph-01_Graph" transform="translate(120.210526, 89.263158)">
      <polygon id="Path" fill="#E2F3F9" fill-rule="nonzero" points="77.511343 7.00317604 72.6043557 4.99546279 67.6973684 12.7132486 62.7903811 4.99546279 57.8833938 7.53402904 52.9764065 13.5163339 48.0694192 12.4614338 43.1624319 19.7096189 38.2554446 22.5204174 33.3484574 21.9147005 28.4414701 15.8166969 23.5344828 18.2940109 18.6274955 12.4614338 13.7205082 12.4614338 8.81352087 14.5303993 3.90653358 12.4614338 3.90653358 31.1433757 77.511343 31.1433757"></polygon>
      <path d="M77.6270417,2.11660617 L0.238203267,2.11660617" id="Path" stroke="#DFDFDF" stroke-width="0.31" stroke-dasharray="0.93"></path>
      <path d="M77.511343,9.22186933 L0.183756806,9.22186933" id="Path" stroke="#DFDFDF" stroke-width="0.31" stroke-dasharray="0.93"></path>
      <path d="M77.6270417,16.3271325 L0.238203267,16.3271325" id="Path" stroke="#DFDFDF" stroke-width="0.31" stroke-dasharray="0.93"></path>
      <path d="M77.6270417,23.6161525 L0.238203267,23.6161525" id="Path" stroke="#DFDFDF" stroke-width="0.31" stroke-dasharray="0.93"></path>
      <path d="M77.6270417,31.1093466 L0.238203267,31.1093466" id="Path" stroke="#378B89" stroke-width="0.31"></path>
      <path d="M3.84528131,0.170145191 L3.84528131,30.9800363" id="Path" stroke="#DFDFDF" stroke-width="0.31"></path>
      <polyline id="Path" stroke="#4DBDEB" stroke-width="0.5" points="3.90653358 12.4614338 8.81352087 14.5303993 13.7205082 12.4614338 18.6274955 12.4614338 23.5344828 18.2940109 28.4414701 15.8166969 33.3484574 21.9147005 38.2554446 22.5204174 43.1624319 19.7096189 48.0694192 12.4614338 52.9764065 13.5163339 57.8833938 7.53402904 62.7903811 4.99546279 67.6973684 12.7132486 72.6043557 4.99546279 77.511343 7.00317604"></polyline>
      <path d="M3.90653358,13.4618875 C3.4985178,13.4618782 3.13081118,13.2157243 2.97531374,12.838501 C2.8198163,12.4612777 2.90724791,12.0275087 3.19673498,11.7399776 C3.48622204,11.4524466 3.92057385,11.3679577 4.29673428,11.526009 C4.67289471,11.6840603 4.91654997,12.0534273 4.9137931,12.4614338 C4.91381626,12.727954 4.8074609,12.9834602 4.61836488,13.1712785 C4.42926887,13.3590968 4.17304763,13.4637005 3.90653358,13.4618875 L3.90653358,13.4618875 Z" id="Path" fill="#4DBDEB" fill-rule="nonzero"></path>
      <path d="M3.90653358,11.6991833 C4.32751288,11.6991833 4.66878403,12.0404545 4.66878403,12.4614338 C4.66878403,12.8824131 4.32751288,13.2236842 3.90653358,13.2236842 C3.48555427,13.2236842 3.14428312,12.8824131 3.14428312,12.4614338 C3.14428312,12.0404545 3.48555427,11.6991833 3.90653358,11.6991833 L3.90653358,11.6991833 Z M3.90653358,11.2091465 C3.39942797,11.2064091 2.94072078,11.5097609 2.74474719,11.9774767 C2.5487736,12.4451925 2.65422596,12.984928 3.01183067,13.3444868 C3.36943538,13.7040457 3.90858821,13.8124378 4.37736501,13.6190159 C4.8461418,13.4255941 5.15199637,12.9685468 5.15199637,12.4614338 C5.15199637,11.772474 4.59548311,11.2129095 3.90653358,11.2091465 L3.90653358,11.2091465 Z" id="Shape" fill="#FFFFFF" fill-rule="nonzero"></path>
      <path d="M8.84754991,15.5376588 C8.29125583,15.5376588 7.84029038,15.0866934 7.84029038,14.5303993 C7.84029038,13.9741052 8.29125583,13.5231397 8.84754991,13.5231397 C9.40384399,13.5231397 9.85480944,13.9741052 9.85480944,14.5303993 C9.85663679,14.7980971 9.75110201,15.0553606 9.56180664,15.244656 C9.37251126,15.4339514 9.11524776,15.5394862 8.84754991,15.5376588 L8.84754991,15.5376588 Z" id="Path" fill="#4DBDEB" fill-rule="nonzero"></path>
      <path d="M8.84754991,13.7749546 C9.15646813,13.7749546 9.43483318,13.9614283 9.55240516,14.2470982 C9.66997714,14.5327681 9.60350509,14.8611527 9.38408959,15.0786091 C9.16467409,15.2960655 8.83570659,15.3595898 8.55110261,15.2394606 C8.26649863,15.1193313 8.08254126,14.8393052 8.08529946,14.5303993 C8.0890346,14.1120802 8.42921418,13.774938 8.84754991,13.7749546 L8.84754991,13.7749546 Z M8.84754991,13.284918 C8.33982641,13.2821845 7.88069089,13.5862767 7.68512013,14.0548306 C7.48954938,14.5233846 7.59625487,15.0636543 7.95527488,15.4226743 C8.31429488,15.7816943 8.85456461,15.8883998 9.32311857,15.692829 C9.79167253,15.4972583 10.0957647,15.0381228 10.0930312,14.5303993 C10.0930312,14.200082 9.96179468,13.8832937 9.7282251,13.6497241 C9.49465552,13.4161545 9.17786718,13.284918 8.84754991,13.284918 L8.84754991,13.284918 Z" id="Shape" fill="#FFFFFF" fill-rule="nonzero"></path>
      <path d="M13.7205082,13.4618875 C13.3124924,13.4618782 12.9447858,13.2157243 12.7892883,12.838501 C12.6337909,12.4612777 12.7212225,12.0275087 13.0107096,11.7399776 C13.3001966,11.4524466 13.7345484,11.3679577 14.1107089,11.526009 C14.4868693,11.6840603 14.7305246,12.0534273 14.7277677,12.4614338 C14.7277908,12.727954 14.6214355,12.9834602 14.4323395,13.1712785 C14.2432435,13.3590968 13.9870222,13.4637005 13.7205082,13.4618875 Z" id="Path" fill="#4DBDEB" fill-rule="nonzero"></path>
      <path d="M13.7205082,11.6991833 C14.1376179,11.7140897 14.465173,12.0616768 14.4553229,12.4789365 C14.4454729,12.8961962 14.1018812,13.2279399 13.6845328,13.2231477 C13.2671843,13.2183554 12.9313008,12.8788096 12.9310345,12.4614338 C12.9310345,12.2592724 13.0113428,12.065391 13.1542925,11.9224413 C13.2972422,11.7794916 13.4911235,11.6991833 13.6932849,11.6991833 L13.7205082,11.6991833 Z M13.6932849,11.2091652 C13.0054186,11.2241223 12.458452,11.7912313 12.4683697,12.4791888 C12.4782874,13.1671463 13.0413743,13.7182526 13.729386,13.7133749 C14.4173977,13.7084973 14.9726142,13.1494627 14.9727768,12.4614338 C14.9727768,11.772474 14.4162635,11.2129095 13.727314,11.2091652 L13.6932849,11.2091652 Z" id="Shape" fill="#FFFFFF" fill-rule="nonzero"></path>
      <path d="M18.6274955,13.4618875 C18.2194797,13.4618782 17.8517731,13.2157243 17.6962756,12.838501 C17.5407782,12.4612777 17.6282098,12.0275087 17.9176969,11.7399776 C18.2071839,11.4524466 18.6415357,11.3679577 19.0176962,11.526009 C19.3938566,11.6840603 19.6375119,12.0534273 19.634755,12.4614338 C19.6347781,12.727954 19.5284228,12.9834602 19.3393268,13.1712785 C19.1502308,13.3590968 18.8940095,13.4637005 18.6274955,13.4618875 Z" id="Path" fill="#4DBDEB" fill-rule="nonzero"></path>
      <path d="M18.6274955,11.6991833 C19.0484748,11.6991833 19.3897459,12.0404545 19.3897459,12.4614338 C19.3897459,12.8824131 19.0484748,13.2236842 18.6274955,13.2236842 C18.2065162,13.2236842 17.865245,12.8824131 17.865245,12.4614338 C17.865245,12.2592724 17.9455533,12.065391 18.088503,11.9224413 C18.2314527,11.7794916 18.4253341,11.6991833 18.6274955,11.6991833 L18.6274955,11.6991833 Z M18.6274955,11.2091465 C18.1203899,11.2064091 17.6616827,11.5097609 17.4657091,11.9774767 C17.2697355,12.4451925 17.3751878,12.984928 17.7327926,13.3444868 C18.0903973,13.7040457 18.6295501,13.8124378 19.0983269,13.6190159 C19.5671037,13.4255941 19.8729583,12.9685468 19.8729583,12.4614338 C19.8729583,11.772474 19.316445,11.2129095 18.6274955,11.2091465 L18.6274955,11.2091465 Z" id="Shape" fill="#FFFFFF" fill-rule="nonzero"></path>
      <circle id="Oval" fill="#4DBDEB" fill-rule="nonzero" cx="23.5344828" cy="18.2940109" r="1.00045372"></circle>
      <path d="M23.5344828,17.5317604 C23.8427843,17.5317604 24.1207285,17.7174768 24.2387104,18.0023103 C24.3566922,18.2871437 24.2914773,18.6150013 24.0734752,18.8330034 C23.8554731,19.0510055 23.5276156,19.1162204 23.2427821,18.9982385 C22.9579487,18.8802566 22.7722323,18.6023124 22.7722323,18.2940109 C22.7722323,17.8730316 23.1135035,17.5317604 23.5344828,17.5317604 L23.5344828,17.5317604 Z M23.5344828,17.0485481 C22.8466327,17.0485481 22.28902,17.6061608 22.28902,18.2940109 C22.28902,18.981861 22.8466327,19.5394737 23.5344828,19.5394737 C24.2223329,19.5394737 24.7799456,18.981861 24.7799456,18.2940109 C24.7799456,17.6061608 24.2223329,17.0485481 23.5344828,17.0485481 Z" id="Shape" fill="#FFFFFF" fill-rule="nonzero"></path>
      <path d="M28.4414701,16.8171506 C27.8889347,16.8171506 27.4410163,16.3692322 27.4410163,15.8166969 C27.4410163,15.2641616 27.8889347,14.8162432 28.4414701,14.8162432 C28.9940054,14.8162432 29.4419238,15.2641616 29.4419238,15.8166969 C29.4419238,16.3692322 28.9940054,16.8171506 28.4414701,16.8171506 Z" id="Path" fill="#4DBDEB" fill-rule="nonzero"></path>
      <path d="M28.4414701,15.0612523 C28.7503883,15.0612646 29.0287533,15.247726 29.1463253,15.5333959 C29.2638973,15.8190658 29.1974252,16.1474503 28.9780097,16.3649067 C28.7585942,16.5823632 28.4296267,16.6458875 28.1450228,16.5257582 C27.8604188,16.4056289 27.6764614,16.1256028 27.6792196,15.8166969 C27.6792114,15.6151558 27.7597362,15.4219668 27.902885,15.2800962 C28.0460337,15.1382256 28.2399371,15.0594366 28.4414701,15.0612523 L28.4414701,15.0612523 Z M28.4414701,14.5712341 C27.7536199,14.5712341 27.1960073,15.1288468 27.1960073,15.8166969 C27.1960073,16.504547 27.7536199,17.0621597 28.4414701,17.0621597 C29.1293202,17.0621597 29.6869328,16.504547 29.6869328,15.8166969 C29.6869328,15.1288468 29.1293202,14.5712341 28.4414701,14.5712341 L28.4414701,14.5712341 Z" id="Shape" fill="#FFFFFF" fill-rule="nonzero"></path>
      <path d="M33.3484574,22.9219601 C32.9398333,22.9247118 32.5700385,22.6803153 32.4123911,22.3033161 C32.2547436,21.9263168 32.340487,21.4914307 32.6294343,21.2024833 C32.9183817,20.913536 33.3532678,20.8277926 33.7302671,20.9854401 C34.1072663,21.1430875 34.3516628,21.5128823 34.3489111,21.9215064 C34.3489111,22.4740417 33.9009927,22.9219601 33.3484574,22.9219601 Z" id="Path" fill="#4DBDEB" fill-rule="nonzero"></path>
      <path d="M33.3484574,21.1592559 C33.6573756,21.1592559 33.9357406,21.3457296 34.0533126,21.6313995 C34.1708846,21.9170694 34.1044125,22.2454539 33.884997,22.4629104 C33.6655815,22.6803668 33.336614,22.7438911 33.0520101,22.6237618 C32.7674061,22.5036326 32.5834487,22.2236064 32.5862069,21.9147005 C32.589942,21.4963815 32.9301216,21.1592392 33.3484574,21.1592559 L33.3484574,21.1592559 Z M33.3484574,20.6692192 C32.8407338,20.6664858 32.3815983,20.9705779 32.1860276,21.4391319 C31.9904568,21.9076858 32.0971623,22.4479556 32.4561823,22.8069756 C32.8152023,23.1659956 33.3554721,23.2727011 33.824026,23.0771303 C34.29258,22.8815596 34.5966721,22.422424 34.5939387,21.9147005 C34.5939387,21.2268504 34.0363075,20.6692192 33.3484574,20.6692192 L33.3484574,20.6692192 Z" id="Shape" fill="#FFFFFF" fill-rule="nonzero"></path>
      <path d="M38.2554446,23.527677 C37.8474382,23.5304338 37.4780712,23.2867786 37.3200199,22.9106181 C37.1619686,22.5344577 37.2464575,22.1001059 37.5339885,21.8106188 C37.8215196,21.5211318 38.2552886,21.4337001 38.6325119,21.5891976 C39.0097352,21.744695 39.2558891,22.1124016 39.2558984,22.5204174 C39.2577114,22.7869315 39.1531077,23.0431527 38.9652894,23.2322487 C38.777471,23.4213447 38.5219649,23.5277001 38.2554446,23.527677 Z" id="Path" fill="#4DBDEB" fill-rule="nonzero"></path>
      <path d="M38.2554446,21.7785844 C38.5643629,21.7785844 38.8427279,21.9650581 38.9602999,22.250728 C39.0778719,22.5363979 39.0113998,22.8647824 38.7919843,23.0822389 C38.5725688,23.2996953 38.2436013,23.3632196 37.9589973,23.2430903 C37.6743934,23.1229611 37.490436,22.8429349 37.4931942,22.534029 C37.4969293,22.11571 37.8371089,21.7785677 38.2554446,21.7785844 L38.2554446,21.7785844 Z M38.2554446,21.2885662 C37.7442334,21.2747345 37.2759754,21.57314 37.0725954,22.0423573 C36.8692155,22.5115746 36.9715827,23.0573148 37.3311814,23.4209314 C37.6907802,23.784548 38.2353493,23.8929725 38.7067973,23.6948184 C39.1782454,23.4966644 39.4818351,23.0317508 39.4736842,22.5204174 C39.4736842,21.8325673 38.9160715,21.2749546 38.2282214,21.2749546 L38.2554446,21.2885662 Z" id="Shape" fill="#FFFFFF" fill-rule="nonzero"></path>
      <path d="M43.1624319,20.710092 C42.751376,20.7126157 42.3800169,20.4651212 42.2241549,20.0847523 C42.0682929,19.7043833 42.159204,19.2674666 42.4538512,18.980837 C42.7484984,18.6942074 43.1877564,18.6153814 43.5636818,18.7816751 C43.9396072,18.9479687 44.1767651,19.3260126 44.1628857,19.7368421 C44.1481353,20.2787177 43.7045082,20.7102733 43.1624319,20.710092 Z" id="Path" fill="#4DBDEB" fill-rule="nonzero"></path>
      <path d="M43.1624319,18.9473684 C43.5798078,18.9476347 43.9193536,19.2835183 43.9241459,19.7008667 C43.9289381,20.1182152 43.5971944,20.4618069 43.1799347,20.4716569 C42.762675,20.4815069 42.4150879,20.1539518 42.4001815,19.7368421 C42.4001815,19.3158628 42.7414526,18.9745917 43.1624319,18.9745917 L43.1624319,18.9473684 Z M43.1624319,18.4845549 C42.6553263,18.4818175 42.1966191,18.7851693 42.0006456,19.2528851 C41.804672,19.7206008 41.9101243,20.2603363 42.267729,20.6198952 C42.6253338,20.979454 43.1644866,21.0878461 43.6332634,20.8944243 C44.1020402,20.7010024 44.4078947,20.2439552 44.4078947,19.7368421 C44.4078947,19.0478824 43.8513815,18.4883178 43.1624319,18.4845549 L43.1624319,18.4845549 Z" id="Shape" fill="#FFFFFF" fill-rule="nonzero"></path>
      <path d="M48.0694192,13.4618875 C47.6607952,13.4646392 47.2910004,13.2202427 47.133353,12.8432435 C46.9757055,12.4662442 47.0614489,12.0313581 47.3503962,11.7424107 C47.6393436,11.4534634 48.0742297,11.36772 48.451229,11.5253675 C48.8282282,11.6830149 49.0726247,12.0528097 49.069873,12.4614338 C49.069873,13.0139691 48.6219546,13.4618875 48.0694192,13.4618875 Z" id="Path" fill="#4DBDEB" fill-rule="nonzero"></path>
      <path d="M48.0694192,11.6991833 C48.4903985,11.6991833 48.8316697,12.0404545 48.8316697,12.4614338 C48.8316697,12.8824131 48.4903985,13.2236842 48.0694192,13.2236842 C47.6484399,13.2236842 47.3071688,12.8824131 47.3071688,12.4614338 C47.3071688,12.2592724 47.3874771,12.065391 47.5304268,11.9224413 C47.6733765,11.7794916 47.8672578,11.6991833 48.0694192,11.6991833 L48.0694192,11.6991833 Z M48.0694192,11.2091465 C47.5623136,11.2064091 47.1036064,11.5097609 46.9076329,11.9774767 C46.7116593,12.4451925 46.8171116,12.984928 47.1747163,13.3444868 C47.532321,13.7040457 48.0714739,13.8124378 48.5402507,13.6190159 C49.0090275,13.4255941 49.314882,12.9685468 49.314882,12.4614338 C49.314882,11.772474 48.7583688,11.2129095 48.0694192,11.2091465 Z" id="Shape" fill="#FFFFFF" fill-rule="nonzero"></path>
      <path d="M52.9764065,14.5235935 C52.5684001,14.5263503 52.1990331,14.2826951 52.0409818,13.9065346 C51.8829305,13.5303742 51.9674193,13.0960224 52.2549504,12.8065353 C52.5424815,12.5170483 52.9762505,12.4296167 53.3534738,12.5851141 C53.7306971,12.7406115 53.9768509,13.1083182 53.9768603,13.5163339 C53.9786733,13.782848 53.8740696,14.0390692 53.6862513,14.2281652 C53.4984329,14.4172613 53.2429268,14.5236166 52.9764065,14.5235935 Z" id="Path" fill="#4DBDEB" fill-rule="nonzero"></path>
      <path d="M52.9764065,12.7608893 C53.2853247,12.7608893 53.5636898,12.947363 53.6812618,13.2330329 C53.7988338,13.5187028 53.7323617,13.8470873 53.5129462,14.0645438 C53.2935307,14.2820002 52.9645632,14.3455245 52.6799592,14.2253952 C52.3953553,14.105266 52.2113979,13.8252398 52.2141561,13.5163339 C52.2178912,13.0980149 52.5580708,12.7608726 52.9764065,12.7608893 L52.9764065,12.7608893 Z M52.9764065,12.2708711 C52.468683,12.2681192 52.0095475,12.5722113 51.8139768,13.0407653 C51.618406,13.5093192 51.7251115,14.049589 52.0841315,14.408609 C52.4431515,14.767629 52.9834212,14.8743345 53.4519752,14.6787637 C53.9205292,14.483193 54.2246213,14.0240574 54.2218693,13.5163339 C54.2273429,13.1824934 54.0985452,12.8604344 53.8643797,12.6224301 C53.6302142,12.3844259 53.310292,12.2504089 52.9764065,12.2504537 L52.9764065,12.2708711 Z" id="Shape" fill="#FFFFFF" fill-rule="nonzero"></path>
      <path d="M57.8833938,8.53448276 C57.3308585,8.53448276 56.8829401,8.08656437 56.8829401,7.53402904 C56.8829401,6.98149371 57.3308585,6.53357532 57.8833938,6.53357532 C58.4359292,6.53357532 58.8838475,6.98149371 58.8838475,7.53402904 C58.8838475,7.79936586 58.7784429,8.05383518 58.5908214,8.24145665 C58.4032,8.42907812 58.1487307,8.53448276 57.8833938,8.53448276 L57.8833938,8.53448276 Z" id="Path" fill="#4DBDEB" fill-rule="nonzero"></path>
      <path d="M57.8833938,6.80580762 C58.3043731,6.80580762 58.6456443,7.14707878 58.6456443,7.56805808 C58.6456443,7.98903738 58.3043731,8.33030853 57.8833938,8.33030853 C57.4624145,8.33030853 57.1211434,7.98903738 57.1211434,7.56805808 C57.1211434,7.36589669 57.2014517,7.1720153 57.3444014,7.02906561 C57.4873511,6.88611592 57.6812324,6.80580762 57.8833938,6.80580762 L57.8833938,6.80580762 Z M57.8833938,6.32259528 C57.1955437,6.32259528 56.637931,6.88020797 56.637931,7.56805808 C56.637931,8.25590818 57.1955437,8.81352087 57.8833938,8.81352087 C58.5712439,8.81352087 59.1288566,8.25590818 59.1288566,7.56805808 C59.1288566,6.88020797 58.5712439,6.32259528 57.8833938,6.32259528 L57.8833938,6.32259528 Z" id="Shape" fill="#FFFFFF" fill-rule="nonzero"></path>
      <path d="M62.7903811,5.99591652 C62.3857354,5.99591652 62.0209336,5.75216379 61.8660824,5.37831986 C61.7112312,5.00447593 61.7968258,4.57416294 62.0829535,4.28803518 C62.3690813,4.00190743 62.7993943,3.91631285 63.1732382,4.07116408 C63.5470821,4.22601531 63.7908348,4.59081704 63.7908348,4.99546279 C63.7908348,5.54799813 63.3429165,5.99591652 62.7903811,5.99591652 L62.7903811,5.99591652 Z" id="Path" fill="#4DBDEB" fill-rule="nonzero"></path>
      <path d="M62.7903811,4.23321234 C63.2113604,4.23321234 63.5526316,4.57448349 63.5526316,4.99546279 C63.5526316,5.4164421 63.2113604,5.75771325 62.7903811,5.75771325 C62.3694018,5.75771325 62.0281307,5.4164421 62.0281307,4.99546279 C62.0281307,4.57448349 62.3694018,4.23321234 62.7903811,4.23321234 L62.7903811,4.23321234 Z M62.7903811,3.75 C62.102531,3.75 61.5449183,4.30761269 61.5449183,4.99546279 C61.5449183,5.6833129 62.102531,6.24092559 62.7903811,6.24092559 C63.4782312,6.24092559 64.0358439,5.6833129 64.0358439,4.99546279 C64.0358439,4.30761269 63.4782312,3.75 62.7903811,3.75 Z" id="Shape" fill="#FFFFFF" fill-rule="nonzero"></path>
      <path d="M72.6043557,5.99591652 C72.19971,5.99591652 71.8349082,5.75216379 71.680057,5.37831986 C71.5252058,5.00447593 71.6108003,4.57416294 71.8969281,4.28803518 C72.1830559,4.00190743 72.6133688,3.91631285 72.9872128,4.07116408 C73.3610567,4.22601531 73.6048094,4.59081704 73.6048094,4.99546279 C73.6048094,5.54799813 73.156891,5.99591652 72.6043557,5.99591652 L72.6043557,5.99591652 Z" id="Path" fill="#4DBDEB" fill-rule="nonzero"></path>
      <path d="M72.6043557,4.23321234 C73.025335,4.23321234 73.3666062,4.57448349 73.3666062,4.99546279 C73.3666062,5.4164421 73.025335,5.75771325 72.6043557,5.75771325 C72.1833764,5.75771325 71.8421053,5.4164421 71.8421053,4.99546279 C71.8421053,4.57448349 72.1833764,4.23321234 72.6043557,4.23321234 L72.6043557,4.23321234 Z M72.6043557,3.75 C71.9165056,3.75 71.3588929,4.30761269 71.3588929,4.99546279 C71.3588929,5.6833129 71.9165056,6.24092559 72.6043557,6.24092559 C73.2922058,6.24092559 73.8498185,5.6833129 73.8498185,4.99546279 C73.8498185,4.30761269 73.2922058,3.75 72.6043557,3.75 Z" id="Shape" fill="#FFFFFF" fill-rule="nonzero"></path>
      <path d="M77.511343,8.01043557 C77.1033365,8.01319243 76.7339696,7.76953717 76.5759183,7.39337675 C76.417867,7.01721632 76.5023558,6.58286451 76.7898869,6.29337744 C77.077418,6.00389038 77.511187,5.91645877 77.8884103,6.07195621 C78.2656336,6.22745365 78.5117967,6.59516026 78.5117967,7.00317604 C78.5117967,7.55682309 78.0649774,8.00669471 77.511343,8.01043557 L77.511343,8.01043557 Z" id="Path" fill="#4DBDEB" fill-rule="nonzero"></path>
      <path d="M77.511343,6.2477314 C77.8202612,6.2477314 78.0986263,6.43420508 78.2161983,6.71987499 C78.3337702,7.00554489 78.2672982,7.33392944 78.0478827,7.55138588 C77.8284672,7.76884231 77.4994997,7.8323666 77.2148957,7.71223734 C76.9302917,7.59210807 76.7463344,7.31208195 76.7490926,7.00317604 C76.7528277,6.58485699 77.0930073,6.24771472 77.511343,6.2477314 L77.511343,6.2477314 Z M77.511343,5.75771325 C76.8234929,5.75771325 76.2658802,6.31532594 76.2658802,7.00317604 C76.2658802,7.69102615 76.8234929,8.24863884 77.511343,8.24863884 C78.1991931,8.24863884 78.7568058,7.69102615 78.7568058,7.00317604 C78.7568058,6.31532594 78.1991931,5.75771325 77.511343,5.75771325 L77.511343,5.75771325 Z" id="Shape" fill="#FFFFFF" fill-rule="nonzero"></path>
      <path d="M67.6973684,13.7205082 C67.289362,13.723265 66.919995,13.4796098 66.7619437,13.1034493 C66.6038924,12.7272889 66.6883812,12.2929371 66.9759123,12.00345 C67.2634434,11.713963 67.6972124,11.6265314 68.0744357,11.7820288 C68.451659,11.9375262 68.6978128,12.3052329 68.6978221,12.7132486 C68.6996352,12.9797627 68.5950315,13.2359839 68.4072132,13.4250799 C68.2193948,13.614176 67.9638886,13.7205313 67.6973684,13.7205082 L67.6973684,13.7205082 Z" id="Path" fill="#4DBDEB" fill-rule="nonzero"></path>
      <path d="M67.6973684,11.957804 C68.0062866,11.957804 68.2846517,12.1442777 68.4022237,12.4299476 C68.5197957,12.7156175 68.4533236,13.044002 68.2339081,13.2614585 C68.0144926,13.4789149 67.6855251,13.5424392 67.4009211,13.4223099 C67.1163171,13.3021807 66.9323598,13.0221545 66.935118,12.7132486 C66.9388531,12.2949296 67.2790327,11.9577873 67.6973684,11.957804 L67.6973684,11.957804 Z M67.6973684,11.4677673 C67.1896449,11.4650339 66.7305094,11.769126 66.5349386,12.23768 C66.3393679,12.7062339 66.4460734,13.2465037 66.8050934,13.6055237 C67.1641134,13.9645437 67.7043831,14.0712492 68.1729371,13.8756784 C68.641491,13.6801077 68.9455832,13.2209721 68.9428497,12.7132486 C68.9428497,12.0253985 68.3852185,11.4677673 67.6973684,11.4677673 L67.6973684,11.4677673 Z" id="Shape" fill="#FFFFFF" fill-rule="nonzero"></path>
    </g>
    <g id="graph-02_Graph_Graph-Unfilled" transform="translate(211.789474, 157.947368)">
      <path d="M77.8720508,0.782667877 L0.483212341,0.782667877" id="Path" stroke="#DFDFDF" stroke-width="0.31"></path>
      <path d="M77.7563521,7.89473684 L0.42876588,7.89473684" id="Path" stroke="#DFDFDF" stroke-width="0.31"></path>
      <path d="M77.8720508,15 L0.483212341,15" id="Path" stroke="#DFDFDF" stroke-width="0.31"></path>
      <path d="M77.8720508,22.28902 L0.483212341,22.28902" id="Path" stroke="#DFDFDF" stroke-width="0.31"></path>
      <path d="M77.8720508,29.7754083 L0.483212341,29.7754083" id="Path" stroke="#378B89" stroke-width="0.31"></path>
      <polyline id="Path" stroke="#4DBDEB" stroke-width="0.5" points="4.15154265 11.1274955 9.05852995 6.9623412 13.9655172 8.65018149 18.8725045 4.68920145 23.7794918 11.1274955 28.6864791 12.1892015 33.5934664 20.5875681 38.5004537 18.3756806 43.407441 23.7590744 48.3144283 21.3430127 53.2214156 15.7554446 58.1284029 6.20009074 63.0353902 11.426951 67.9423775 13.7068966 72.8493648 12.9446461 77.7563521 5.67604356"></polyline>
      <circle id="Oval" fill="#4DBDEB" fill-rule="nonzero" cx="4.15154265" cy="11.1274955" r="1"></circle>
      <circle id="Oval" fill="#4DBDEB" fill-rule="nonzero" cx="9.05852995" cy="6.9623412" r="1"></circle>
      <circle id="Oval" fill="#4DBDEB" fill-rule="nonzero" cx="13.9655172" cy="8.65018149" r="1"></circle>
      <circle id="Oval" fill="#4DBDEB" fill-rule="nonzero" cx="18.8725045" cy="4.68920145" r="1"></circle>
      <circle id="Oval" fill="#4DBDEB" fill-rule="nonzero" cx="23.7794918" cy="11.1274955" r="1"></circle>
      <circle id="Oval" fill="#4DBDEB" fill-rule="nonzero" cx="28.6864791" cy="12.1892015" r="1"></circle>
      <circle id="Oval" fill="#4DBDEB" fill-rule="nonzero" cx="33.5934664" cy="20.5875681" r="1"></circle>
      <circle id="Oval" fill="#4DBDEB" fill-rule="nonzero" cx="38.5004537" cy="18.3756806" r="1"></circle>
      <circle id="Oval" fill="#4DBDEB" fill-rule="nonzero" cx="43.407441" cy="23.7522686" r="1"></circle>
      <circle id="Oval" fill="#4DBDEB" fill-rule="nonzero" cx="48.3144283" cy="21.3430127" r="1"></circle>
      <circle id="Oval" fill="#4DBDEB" fill-rule="nonzero" cx="53.2214156" cy="15.7554446" r="1"></circle>
      <circle id="Oval" fill="#4DBDEB" fill-rule="nonzero" cx="58.1284029" cy="6.20009074" r="1"></circle>
      <circle id="Oval" fill="#4DBDEB" fill-rule="nonzero" cx="63.0353902" cy="11.426951" r="1"></circle>
      <circle id="Oval" fill="#4DBDEB" fill-rule="nonzero" cx="72.8493648" cy="12.9446461" r="1"></circle>
      <circle id="Oval" fill="#4DBDEB" fill-rule="nonzero" cx="77.7563521" cy="5.66923775" r="1"></circle>
      <circle id="Oval" fill="#4DBDEB" fill-rule="nonzero" cx="67.9423775" cy="13.7068966" r="1"></circle>
      <polyline id="Path" stroke="#00577D" stroke-width="0.5" points="4.15154265 14.5235935 9.05852995 13.5639746 13.9655172 11.1274955 18.8725045 13.5639746 23.7794918 12.8085299 28.6864791 21.7717786 33.5934664 25.5013612 38.5004537 24.7391107 43.407441 18.3756806 48.3144283 19.3080762 53.2214156 17.6202359 58.1284029 20.0635209 63.0353902 13.7068966 67.9423775 11.9169691 72.8493648 16.3407441 77.7563521 9.06533575"></polyline>
      <circle id="Oval" fill="#00577D" fill-rule="nonzero" cx="4.15154265" cy="14.5235935" r="1"></circle>
      <circle id="Oval" fill="#00577D" fill-rule="nonzero" cx="9.05852995" cy="13.5639746" r="1"></circle>
      <circle id="Oval" fill="#00577D" fill-rule="nonzero" cx="13.9655172" cy="11.1274955" r="1"></circle>
      <circle id="Oval" fill="#00577D" fill-rule="nonzero" cx="18.8725045" cy="13.5639746" r="1"></circle>
      <circle id="Oval" fill="#00577D" fill-rule="nonzero" cx="23.7794918" cy="12.8085299" r="1"></circle>
      <circle id="Oval" fill="#00577D" fill-rule="nonzero" cx="28.6864791" cy="21.7717786" r="1"></circle>
      <circle id="Oval" fill="#00577D" fill-rule="nonzero" cx="33.5934664" cy="25.5013612" r="1"></circle>
      <circle id="Oval" fill="#00577D" fill-rule="nonzero" cx="38.5004537" cy="24.7391107" r="1"></circle>
      <circle id="Oval" fill="#00577D" fill-rule="nonzero" cx="43.407441" cy="18.3756806" r="1"></circle>
      <circle id="Oval" fill="#00577D" fill-rule="nonzero" cx="48.3144283" cy="19.3080762" r="1"></circle>
      <circle id="Oval" fill="#00577D" fill-rule="nonzero" cx="53.2214156" cy="17.6202359" r="1"></circle>
      <circle id="Oval" fill="#00577D" fill-rule="nonzero" cx="58.1284029" cy="20.0635209" r="1"></circle>
      <circle id="Oval" fill="#00577D" fill-rule="nonzero" cx="63.0353902" cy="13.7068966" r="1"></circle>
      <circle id="Oval" fill="#00577D" fill-rule="nonzero" cx="72.8493648" cy="16.3407441" r="1"></circle>
      <circle id="Oval" fill="#00577D" fill-rule="nonzero" cx="77.7563521" cy="9.06533575" r="1"></circle>
      <circle id="Oval" fill="#00577D" fill-rule="nonzero" cx="67.9423775" cy="11.9169691" r="1"></circle>
    </g>
    <path d="M149.306579,157.884211 L150.985197,156.792763 C147.917255,152.290123 142.838723,149.57538 137.390461,149.525658 L137.390461,151.528947 C142.159908,151.582508 146.605071,153.953262 149.306579,157.884211 Z" id="Path" fill="#BFE6F4" fill-rule="nonzero"></path>
    <path d="M135.290461,151.667105 C135.805808,151.595366 136.324657,151.551552 136.844737,151.535855 L136.844737,149.532566 C136.234568,149.546006 135.625673,149.594441 135.021053,149.677632 L135.290461,151.667105 Z" id="Path" fill="#5EC93A" fill-rule="nonzero"></path>
    <path d="M151.296053,157.248684 L149.610526,158.340132 C153.080632,163.795242 152.569062,170.879217 148.351166,175.779137 C144.133271,180.679058 137.204234,182.23882 131.293581,179.618889 C125.382927,176.998957 121.885237,170.817487 122.683126,164.401629 C123.481015,157.985771 128.386227,152.849303 134.758553,151.756908 L134.482237,149.753618 C127.236623,150.969137 121.643351,156.788713 120.716021,164.076818 C119.78869,171.364922 123.746381,178.399752 130.456729,181.391013 C137.167077,184.382273 145.044774,182.623283 149.845396,177.061769 C154.646018,171.500255 155.235426,163.450116 151.296053,157.248684 Z" id="Path" fill="#4DBDEB" fill-rule="nonzero"></path>
    <g id="Group-12" transform="translate(128.000000, 163.000000)" fill="#8B8B8B" fill-rule="nonzero">
      <path d="M1.46562714,3.29506579 C1.28199389,3.29521485 1.09971279,3.2636662 0.926811355,3.20180921 C0.758140783,3.13898484 0.603294085,3.04396528 0.470890302,2.92203947 C0.326254039,2.78982729 0.212970546,2.62698227 0.139311355,2.44539474 C-0.139763687,1.79692796 0.00842905679,1.04361484 0.512337671,0.549177632 C0.672987701,0.387433078 0.867677437,0.26353961 1.08223899,0.186513158 C1.31223071,0.0923845414 1.55911559,0.0465344938 1.80756793,0.0518092105 C2.05493574,0.0482706848 2.30083174,0.090424285 2.53289688,0.176151316 C2.73630556,0.252373028 2.92031458,0.372686619 3.07171267,0.528453947 C3.22548519,0.685480067 3.34539332,0.872395682 3.4240153,1.07763158 C3.50884246,1.30274496 3.55100855,1.54168611 3.54835741,1.78223684 C3.56417095,1.93379916 3.56417095,2.08659558 3.54835741,2.23815789 C3.51790808,2.38275945 3.47633712,2.52479357 3.4240153,2.66299342 C3.37029322,2.79472981 3.30798844,2.92280075 3.23750214,3.04638158 C3.16496925,3.18108553 3.08207451,3.30542763 2.99917978,3.42976974 L1.79720609,5.18092105 C1.74985051,5.24829099 1.68549798,5.30191811 1.61069293,5.33634868 C1.52493315,5.37035779 1.43354179,5.38793305 1.34128504,5.38815789 L0.512337671,5.38815789 L2.13914688,3.31578947 L2.25312714,3.17072368 C2.28857571,3.12042195 2.32662068,3.07200107 2.36710741,3.02565789 C2.24026143,3.10096829 2.10450708,3.16014327 1.96299557,3.20180921 C1.80135203,3.25195039 1.63445547,3.2832435 1.46562714,3.29506579 L1.46562714,3.29506579 Z M2.68832451,1.73042763 C2.69054016,1.59995306 2.66948739,1.47012763 2.62615346,1.34703947 C2.58124613,1.24336166 2.51807085,1.14859874 2.4396403,1.06726974 C2.35812124,0.984151483 2.25896898,0.920410748 2.14950872,0.880756579 C2.03329765,0.838562934 1.91047335,0.81750734 1.78684425,0.818585526 C1.66258451,0.82081855 1.53973993,0.845387467 1.42417978,0.891118421 C1.31916097,0.933524484 1.22394595,0.997001165 1.14441004,1.07763158 C1.0710982,1.1608596 1.01162425,1.25531821 0.968258723,1.35740132 C0.926065078,1.47361239 0.905009484,1.59643669 0.906087671,1.72006579 C0.893439223,1.96542319 0.974982574,2.20634673 1.1340482,2.39358553 C1.31335815,2.55919708 1.55396817,2.64190677 1.79720609,2.62154605 C1.93211076,2.62551381 2.06632035,2.60079099 2.19095609,2.54901316 C2.29868713,2.51190905 2.39504087,2.44767323 2.47072583,2.3625 C2.54833198,2.28256483 2.60833709,2.1872626 2.64687714,2.08273026 C2.68084116,1.96855156 2.69486237,1.84937126 2.68832451,1.73042763 L2.68832451,1.73042763 Z" id="Shape"></path>
      <path d="M7.1646403,3.41940789 L7.8277982,3.41940789 L7.8277982,3.9375 C7.82411506,3.983384 7.80597589,4.02691801 7.77598899,4.06184211 C7.74054777,4.09755765 7.69152502,4.11641256 7.64128504,4.11365132 L7.1646403,4.11365132 L7.1646403,5.38815789 L6.38750214,5.38815789 L6.38750214,4.11365132 L4.17006793,4.11365132 C4.11182133,4.1157057 4.05540206,4.09313799 4.0146403,4.05148026 C3.96637211,4.02129421 3.93264747,3.97258084 3.92138372,3.91677632 L3.86957451,3.46085526 L6.34605478,0.145065789 L7.19572583,0.145065789 L7.1646403,3.41940789 Z M6.38750214,1.69934211 L6.38750214,1.45065789 L6.38750214,1.17088816 L4.76069293,3.41940789 L6.35641662,3.41940789 L6.38750214,1.69934211 Z" id="Shape"></path>
      <path d="M8.2215482,4.90115132 C8.20674972,4.82937323 8.20674972,4.75533071 8.2215482,4.68355263 C8.24963198,4.61898624 8.28813881,4.55947568 8.33552846,4.50740132 L8.51167978,4.39342105 C8.65145755,4.33802755 8.80709937,4.33802755 8.94687714,4.39342105 L9.12302846,4.50740132 C9.16688399,4.56211073 9.20507313,4.62113032 9.23700872,4.68355263 C9.29240223,4.82333041 9.29240223,4.97897223 9.23700872,5.11875 C9.20766814,5.17948835 9.1692325,5.23539474 9.12302846,5.28453947 C9.07373266,5.33542143 9.01349067,5.37440154 8.94687714,5.39851974 C8.80709937,5.45391324 8.65145755,5.45391324 8.51167978,5.39851974 C8.44506625,5.37440154 8.38482426,5.33542143 8.33552846,5.28453947 C8.28617173,5.23801559 8.24731278,5.18149348 8.2215482,5.11875 C8.20674972,5.04697192 8.20674972,4.9729294 8.2215482,4.90115132 Z" id="Path"></path>
      <path d="M11.8585548,0.0932565789 C12.0805718,0.0888778479 12.3016023,0.123962048 12.5113508,0.196875 C12.6940285,0.25628131 12.8630884,0.351377521 13.0087192,0.476644737 C13.1447717,0.597902804 13.2541544,0.746098667 13.3299364,0.911842105 C13.4011179,1.07878849 13.4364203,1.25883062 13.4335548,1.44029605 C13.4334991,1.59031526 13.4161141,1.73982593 13.3817456,1.88585526 C13.3454831,2.00490281 13.2894366,2.1169957 13.2159561,2.21743421 C13.1451498,2.31226641 13.0573038,2.39308466 12.95691,2.45575658 C12.8445149,2.52114897 12.7266347,2.57662198 12.6046074,2.62154605 C12.8795702,2.69438648 13.1255277,2.84991845 13.3092127,3.06710526 C13.4675861,3.29060973 13.5477218,3.56015702 13.5371732,3.83388158 C13.5453189,4.07359188 13.495558,4.31173332 13.3921074,4.528125 C13.3040614,4.72401183 13.1730222,4.89755019 13.0087192,5.03585526 C12.8380331,5.17146259 12.6452414,5.27662171 12.4388179,5.34671053 C12.214578,5.41877335 11.980084,5.45377246 11.7445745,5.45032895 C11.5131924,5.45429619 11.2825648,5.42284697 11.0606929,5.35707237 C10.8715194,5.30331651 10.6952513,5.21165712 10.5426008,5.08766447 C10.3924502,4.96971978 10.2688712,4.82142496 10.1799364,4.65246711 C10.0658196,4.46761611 9.97531216,4.26919588 9.91052846,4.06184211 L10.3146403,3.89605263 C10.3828447,3.88050741 10.4536728,3.88050741 10.5218771,3.89605263 C10.5760469,3.880506 10.6334969,3.880506 10.6876666,3.89605263 C10.7377455,3.91965413 10.7780454,3.95995404 10.8016469,4.01003289 C10.8016469,4.09292763 10.8949035,4.17582237 10.9467127,4.25871711 C10.9974333,4.34032966 11.0603307,4.41370995 11.1332258,4.47631579 C11.2027892,4.54690466 11.2879766,4.60014678 11.38191,4.63174342 C11.4942316,4.67500875 11.6138667,4.69612082 11.7342127,4.69391447 C11.8725401,4.69872441 12.0103043,4.67399751 12.1383245,4.62138158 C12.2447186,4.57675634 12.340169,4.50958758 12.4180942,4.42450658 C12.4918191,4.34937765 12.5514796,4.26164149 12.5942456,4.16546053 C12.6088466,4.06582815 12.6088466,3.96459948 12.5942456,3.86496711 C12.6106843,3.75157956 12.6106843,3.63641386 12.5942456,3.52302632 C12.5698698,3.42041257 12.5114258,3.32909384 12.4284561,3.26398026 C12.3222261,3.17893791 12.1983092,3.11874969 12.0657916,3.08782895 C11.8550252,3.04072208 11.6392455,3.01984017 11.4233574,3.02565789 L11.4233574,2.38322368 C11.6077388,2.38554915 11.7918415,2.36818097 11.972535,2.33141447 C12.0993905,2.29890993 12.2189348,2.24265377 12.3248377,2.165625 C12.4046628,2.09990515 12.4654773,2.01404931 12.500989,1.91694079 C12.5350666,1.81326484 12.5525518,1.70485628 12.5527982,1.59572368 C12.5671866,1.38811758 12.4917104,1.184332 12.3455614,1.03618421 C12.0337221,0.820871597 11.6212164,0.820871597 11.3093771,1.03618421 C11.168873,1.14880217 11.0644123,1.30009001 11.0088837,1.47138158 C10.9923158,1.54727351 10.9524688,1.61610001 10.8949035,1.66825658 C10.8349547,1.70248587 10.7670604,1.72035279 10.6980285,1.72006579 L10.5736864,1.72006579 L10.0866798,1.58536184 C10.1196179,1.35459653 10.1895973,1.13066264 10.2939166,0.922203947 C10.3935101,0.742590779 10.5272708,0.584189952 10.6876666,0.455921053 C10.8442306,0.321460908 11.0280447,0.222484067 11.2264824,0.165789474 C11.4324249,0.110476425 11.6454359,0.0860325318 11.8585548,0.0932565789 L11.8585548,0.0932565789 Z" id="Path"></path>
      <path d="M15.1847061,-1.84741111e-13 L15.1847061,3.10855263 L15.3504956,3.10855263 L15.4851995,3.10855263 C15.5279956,3.08384928 15.5664911,3.05235295 15.5991798,3.01529605 L16.5213837,1.86513158 C16.5614064,1.82172177 16.6066522,1.78343685 16.6560877,1.75115132 C16.7140904,1.7381983 16.7742362,1.7381983 16.832239,1.75115132 L17.6508245,1.75115132 L16.50066,3.13963816 L16.3659561,3.27434211 C16.3259335,3.31775191 16.2806876,3.35603684 16.2312521,3.38832237 C16.2833259,3.4212533 16.3289711,3.4633873 16.3659561,3.51266447 L16.4799364,3.66809211 L17.7233574,5.47105263 L16.9151337,5.47105263 C16.8535189,5.482814 16.7902354,5.482814 16.7286206,5.47105263 C16.6773293,5.44078174 16.6345494,5.39800179 16.6042785,5.34671053 L15.650989,3.9375 C15.6307214,3.88863433 15.5940892,3.848339 15.5473706,3.82351974 L15.3815811,3.82351974 L15.1847061,3.82351974 L15.1847061,5.52286184 L14.2832258,5.52286184 L14.2832258,0.134703947 L15.1847061,-1.84741111e-13 Z" id="Path"></path>
    </g>
    <rect id="Rectangle" fill="#BFE6F4" fill-rule="nonzero" x="160.939474" y="154.623684" width="3.12236842" height="3.12236842"></rect>
    <rect id="Rectangle" fill="#5EC93A" fill-rule="nonzero" x="160.939474" y="173.461513" width="3.12236842" height="3.12236842"></rect>
    <rect id="Rectangle" fill="#4DBDEB" fill-rule="nonzero" x="160.939474" y="164.046053" width="3.12236842" height="3.12236842"></rect>
    <rect id="Rectangle" fill="#C9C9CC" x="166.526316" y="154.526316" width="25.2631579" height="3.15789474"></rect>
    <rect id="Rectangle" fill="#C9C9CC" x="166.526316" y="164" width="31.5789474" height="3.15789474"></rect>
    <rect id="Rectangle" fill="#C9C9CC" x="166.526316" y="173.473684" width="31.5789474" height="3.15789474"></rect>
    <rect id="Rectangle" fill="#F0F7F7" fill-rule="nonzero" x="213.139752" y="93.7776637" width="19.8726573" height="27.256825"></rect>
    <g id="Stars" transform="translate(213.275139, 110.572529)">
      <g id="Star_03" transform="translate(7.724861, 0.427471)">
        <polygon id="Path" fill="#FF9F2C" points="1.8344805 2.55356877 2.75191169 3.25669377 2.39411352 2.11294377 3.31154472 1.40044377 2.20145297 1.40044377 1.84365481 0.256693767 1.47668233 1.40044377 0.311544715 1.40044377 1.22897591 2.11294377 0.871177743 3.25669377"></polygon>
        <polygon id="Path-Copy" fill="#FF9F2C" points="5.17870814 2.55356877 6.09613933 3.25669377 5.73834117 2.11294377 6.65577236 1.40044377 5.54568061 1.40044377 5.18788245 0.256693767 4.82090997 1.40044377 3.65577236 1.40044377 4.57320355 2.11294377 4.21540539 3.25669377"></polygon>
        <polygon id="Path-Copy-2" fill="#8B8B8B" points="8.52293578 2.55356877 9.44036697 3.25669377 9.08256881 2.11294377 10 1.40044377 8.88990826 1.40044377 8.53211009 0.256693767 8.16513761 1.40044377 7 1.40044377 7.91743119 2.11294377 7.55963303 3.25669377"></polygon>
      </g>
      <g id="Star_02" transform="translate(3.724861, 0.427471)" fill="#FF9F2C">
        <polygon id="Path" points="2.49492444 2.55356877 3.41516983 3.25669377 3.04707167 2.11294377 3.96731707 1.40044377 2.85382014 1.40044377 2.49492444 0.256693767 2.12682628 1.40044377 0.967317073 1.40044377 1.88756247 2.11294377 1.52866677 3.25669377"></polygon>
      </g>
      <g id="Star_01" transform="translate(0.724861, 0.427471)" fill="#FF9F2C">
        <polygon id="Path" points="2.16854398 2.55356877 3.07763489 3.25669377 2.71399852 2.11294377 3.62308943 1.40044377 2.52308943 1.40044377 2.16854398 0.256693767 1.81399852 1.40044377 0.623089431 1.40044377 1.53218034 2.11294377 1.16854398 3.25669377"></polygon>
      </g>
    </g>
    <g id="Group-13" transform="translate(218.000000, 101.000000)" fill="#8B8B8B" fill-rule="nonzero">
      <path d="M3.48626444,3.25860015 L4.02772786,3.25860015 L4.02772786,3.88555779 C4.02576649,3.938214 4.00562603,3.98856514 3.97073171,4.02804816 C3.92635392,4.06731044 3.86843365,4.08775289 3.80924262,4.08504431 L3.48626444,4.08504431 L3.48626444,5.2914628 L2.48883184,5.2914628 L2.48883184,4.08504431 L0.408472401,4.08504431 C0.342121234,4.08617048 0.277745581,4.06245313 0.227984596,4.0185488 C0.171937438,3.9818648 0.133988963,3.92321716 0.123491656,3.85705972 L2.4158453e-13,3.3155963 L2.42233633,0.0573164558 L3.48626444,0.0573164558 L3.48626444,3.25860015 Z M2.53632863,1.89069258 C2.53176218,1.8020907 2.53176218,1.71331243 2.53632863,1.62471055 C2.52740353,1.5235806 2.52740353,1.42186104 2.53632863,1.32073109 L1.14942234,3.22060272 L2.48883184,3.22060272 L2.53632863,1.89069258 Z" id="Shape"></path>
      <path d="M4.38870347,4.68350388 C4.37445299,4.60498389 4.37445299,4.5245399 4.38870347,4.44601992 C4.45499218,4.30039637 4.5736976,4.18508254 4.721181,4.12304174 C4.80308223,4.09176802 4.88999475,4.07567311 4.97766367,4.07554495 C5.06205807,4.07754937 5.14552872,4.09360142 5.22464698,4.12304174 C5.29981957,4.1527269 5.36781929,4.19806005 5.4241335,4.25603276 C5.48409691,4.30684168 5.52990898,4.3722875 5.55712452,4.44601992 C5.58736074,4.52160633 5.60345997,4.6021025 5.60462131,4.68350388 C5.60356093,4.76799687 5.58747811,4.8516275 5.55712452,4.93048719 C5.52990898,5.00421961 5.48409691,5.06966543 5.4241335,5.12047435 C5.36781929,5.17844706 5.29981957,5.2237802 5.22464698,5.25346536 C5.14552872,5.28290569 5.06205807,5.29895774 4.97766367,5.30096216 C4.88999475,5.300834 4.80308223,5.28473909 4.721181,5.25346536 C4.58013606,5.20078764 4.46233303,5.09981361 4.38870347,4.96848462 C4.36951087,4.87446046 4.36951087,4.77752803 4.38870347,4.68350388 Z" id="Path"></path>
      <path d="M8.1029525,0.000320306923 C8.33599944,-0.0039594898 8.56784453,0.0346813583 8.78690629,0.114312605 C8.97563159,0.177705954 9.14996219,0.27778463 9.29987163,0.408792707 C9.57194563,0.648685972 9.72479245,0.996065111 9.71784339,1.35872852 C9.72300132,1.50590768 9.70700594,1.65306519 9.6703466,1.795699 C9.64324714,1.91294856 9.59142911,2.02306187 9.51835687,2.11867717 C9.45671592,2.21360884 9.37580458,2.29452018 9.28087291,2.35616113 C9.17689257,2.42307294 9.06527164,2.47728882 8.94839538,2.51765022 C9.49379286,2.65895263 9.85855255,3.1720212 9.81283697,3.73356806 C9.82075932,3.98597617 9.76866891,4.23666124 9.66084724,4.46501864 C9.5669134,4.66309184 9.43073067,4.83818393 9.2618742,4.97798398 C9.08699515,5.11634478 8.8870008,5.21956768 8.67291399,5.28196344 C8.44811537,5.35051282 8.21447764,5.3857185 7.97946085,5.38645638 C7.75486684,5.38980429 7.53094829,5.36101476 7.31450578,5.30096216 C7.12799088,5.25579272 6.95316325,5.17161645 6.80154044,5.05397884 C6.64277169,4.93413772 6.50751056,4.78599458 6.40256739,4.61700837 C6.27644972,4.41894536 6.17741034,4.20489249 6.10808729,3.98055137 L6.60205392,3.78106485 L6.72554557,3.78106485 L6.84903723,3.78106485 C6.92137145,3.78109708 6.99278047,3.79732641 7.05802311,3.82856164 C7.11502938,3.85352252 7.16190473,3.89704963 7.19101412,3.9520533 C7.27828198,4.1194163 7.39772292,4.26791044 7.54249037,4.38902377 C7.66343627,4.47803764 7.81031629,4.52477219 7.96046213,4.52201479 C8.07086745,4.52504392 8.18074058,4.50565455 8.28344031,4.46501864 C8.37146598,4.42147001 8.45170456,4.36369823 8.52092426,4.29403019 C8.58150251,4.23242604 8.62701801,4.15765057 8.65391528,4.07554495 C8.68338223,3.99314639 8.69941886,3.90654858 8.70141207,3.81906228 C8.70681999,3.71780795 8.70681999,3.61633715 8.70141207,3.51508282 C8.68000761,3.42784801 8.63382015,3.3486695 8.56842105,3.28709823 C8.4737965,3.2124104 8.3633058,3.16041478 8.24544288,3.1351085 C8.04321035,3.11664728 7.83971648,3.11664728 7.63748395,3.1351085 L7.63748395,2.36566049 C7.81594229,2.36752509 7.99414282,2.35161433 8.16944801,2.3181637 C8.27945603,2.29196434 8.38291683,2.24346709 8.47342747,2.17567332 C8.5431834,2.12212538 8.59596666,2.0495484 8.6254172,1.96668744 C8.63569833,1.87197204 8.63569833,1.7764221 8.6254172,1.6817067 C8.63548847,1.51152634 8.58501221,1.34327216 8.48292683,1.20673879 C8.35922529,1.09313669 8.19458481,1.03482652 8.02695764,1.0452497 C7.95171259,1.03015239 7.87421809,1.03015239 7.79897304,1.0452497 C7.72892414,1.06116909 7.66375073,1.09375579 7.60898588,1.14024329 C7.55253524,1.1778519 7.50410412,1.22628302 7.46649551,1.28273366 C7.42922333,1.33977377 7.39741777,1.40020433 7.37150193,1.46322146 C7.34470585,1.55034491 7.29558266,1.62894201 7.22901155,1.69120606 C7.16100886,1.74321659 7.07709178,1.77007005 6.9915276,1.76720092 L6.91553273,1.76720092 L6.83003851,1.76720092 L6.2885751,1.54871569 C6.32094666,1.31274633 6.39492112,1.08439039 6.50706033,0.874261257 C6.60618618,0.684867848 6.74561434,0.519499561 6.91553273,0.389793991 C7.07840367,0.256910194 7.2655177,0.156900968 7.46649551,0.0953138884 C7.67371034,0.0365517566 7.88760991,0.00462644675 8.1029525,0.000320306923 Z" id="Path"></path>
    </g>
    <rect id="Rectangle" fill="#DFDFDF" fill-rule="nonzero" x="244.405306" y="95.6268721" width="38.6877193" height="2.02652974"></rect>
    <rect id="Rectangle" fill="#43BAE6" fill-rule="nonzero" x="244.405306" y="95.6268721" width="25.7939238" height="2.02652974"></rect>
    <rect id="Rectangle" fill="#DFDFDF" fill-rule="nonzero" x="244.405306" y="101.174497" width="38.6877193" height="2.02652974"></rect>
    <rect id="Rectangle" fill="#DFDFDF" fill-rule="nonzero" x="244.405306" y="112.440736" width="38.6877193" height="2.02652974"></rect>
    <rect id="Rectangle" fill="#DFDFDF" fill-rule="nonzero" x="244.405306" y="118.096021" width="38.6877193" height="2.02652974"></rect>
    <rect id="Rectangle" fill="#43BAE6" fill-rule="nonzero" x="244.405306" y="101.174497" width="10.9432606" height="2.02652974"></rect>
    <rect id="Rectangle" fill="#43BAE6" fill-rule="nonzero" x="244.405306" y="106.880445" width="5.13598631" height="2.02652974"></rect>
    <rect id="Rectangle" fill="#43BAE6" fill-rule="nonzero" x="244.405306" y="112.485066" width="1" height="2.02652974"></rect>
    <rect id="Rectangle" fill="#43BAE6" fill-rule="nonzero" x="244.405306" y="118.096021" width="3.18545143" height="2.02652974"></rect>
    <g id="Star_03-3" transform="translate(240.706889, 95.373556)" fill="#C9C9CC">
      <polygon id="Path" points="1.26658109 1.79854514 1.89987163 2.27984596 1.64655541 1.50089859 2.27984596 1.02593068 1.48823278 1.02593068 1.26658109 0.253316217 1.01959777 1.02593068 0.189987163 1.02593068 0.823277706 1.50723149 0.569961489 2.27984596"></polygon>
    </g>
    <g id="Star_03-4" transform="translate(240.706889, 101.073171)" fill="#C9C9CC">
      <polygon id="Path" points="1.26658109 1.64655541 1.89987163 2.12785623 1.64655541 1.35524176 2.27984596 0.87394095 1.48823278 0.87394095 1.26658109 0.101326487 1.01959777 0.87394095 0.189987163 0.87394095 0.823277706 1.35524176 0.569961489 2.12785623"></polygon>
    </g>
    <g id="Star_03-5" transform="translate(240.706889, 106.772786)" fill="#C9C9CC">
      <polygon id="Path" points="1.26658109 1.65922122 1.89987163 2.13418913 1.64655541 1.36157467 2.27984596 0.880273855 1.48823278 0.880273855 1.26658109 0.107659392 1.01959777 0.880273855 0.189987163 0.880273855 0.823277706 1.36157467 0.569961489 2.13418913"></polygon>
    </g>
    <g id="Star_03-6" transform="translate(240.706889, 112.472401)" fill="#C9C9CC">
      <polygon id="Path" points="1.26658109 1.5135644 1.89987163 1.99486521 1.64655541 1.22225075 2.27984596 0.740949936 1.48823278 0.740949936 1.26658109 0 1.01959777 0.772614463 0.189987163 0.772614463 0.823277706 1.25391528 0.569961489 2.02652974"></polygon>
    </g>
    <g id="Star_03-7" transform="translate(240.706889, 117.538725)" fill="#C9C9CC">
      <polygon id="Path" points="1.26658109 2.1025246 1.89987163 2.58382542 1.64655541 1.80487805 2.27984596 1.32991014 1.48823278 1.32991014 1.26658109 0.557295678 1.01959777 1.32991014 0.189987163 1.32991014 0.823277706 1.80487805 0.569961489 2.58382542"></polygon>
    </g>
    <rect id="Rectangle" fill="#C9C9CC" x="286.526316" y="101.171053" width="4.21052632" height="2.10526316"></rect>
    <rect id="Rectangle" fill="#C9C9CC" x="287.578947" y="106.763158" width="3.15789474" height="2.10526316"></rect>
    <rect id="Rectangle" fill="#C9C9CC" x="287.578947" y="112.355263" width="3.15789474" height="2.10526316"></rect>
    <rect id="Rectangle" fill="#C9C9CC" x="287.578947" y="117.947368" width="3.15789474" height="2.10526316"></rect>
    <rect id="Rectangle" fill="#C9C9CC" x="286.526316" y="95.5789474" width="4.21052632" height="2.10526316"></rect>
    <rect id="Rectangle" fill="#C9C9CC" x="238.105263" y="101.171053" width="1.05263158" height="2.10526316"></rect>
    <rect id="Rectangle" fill="#C9C9CC" x="238.105263" y="106.763158" width="1.05263158" height="2.10526316"></rect>
    <rect id="Rectangle" fill="#C9C9CC" x="238.105263" y="112.355263" width="1.05263158" height="2.10526316"></rect>
    <rect id="Rectangle" fill="#C9C9CC" x="238.105263" y="117.947368" width="1.05263158" height="2.10526316"></rect>
    <rect id="Rectangle" fill="#C9C9CC" x="238.105263" y="95.5789474" width="1.05263158" height="2.10526316"></rect>
    <rect id="Rectangle" fill="#FFFFFF" x="301" y="64" width="58" height="129"></rect>
    <rect id="block-2-copy-9" fill="#C9C9CC" x="47" y="47" width="41" height="4"></rect>
    <g id="Group-8" transform="translate(191.000000, 44.000000)" fill="#43BAE6">
      <rect id="block-2-copy-9" x="0" y="10" width="12" height="1"></rect>
      <circle id="Oval" cx="6" cy="4" r="4"></circle>
    </g>
    <rect id="block-2-copy-9" fill="#C9C9CC" x="260.75" y="54" width="12" height="1"></rect>
    <circle id="Oval" fill="#C9C9CC" cx="266.75" cy="48" r="4"></circle>
    <rect id="block-2-copy-9" fill="#C9C9CC" x="237.5" y="54" width="12" height="1"></rect>
    <circle id="Oval" fill="#C9C9CC" cx="243.5" cy="48" r="4"></circle>
    <rect id="block-2-copy-9" fill="#C9C9CC" x="214.25" y="54" width="12" height="1"></rect>
    <circle id="Oval" fill="#C9C9CC" cx="220.25" cy="48" r="4"></circle>
    <rect id="block-2-copy-9" fill="#C9C9CC" x="284" y="54" width="12" height="1"></rect>
    <circle id="Oval" fill="#C9C9CC" cx="290" cy="48" r="4"></circle>
    <rect id="block-2-copy-9" fill="#C9C9CC" x="103" y="46" width="47" height="6"></rect>
    <circle id="Oval" fill="#C9C9CC" cx="33" cy="49" r="4"></circle>
    <g id="Group-6" transform="translate(305.000000, 69.000000)">
      <g id="Group" fill-rule="nonzero">
        <rect id="Rectangle" fill="#E7EBEC" x="1.28785871e-13" y="-9.85878046e-14" width="19.4352941" height="19.4352941"></rect>
        <path d="M9.62352941,16.9882353 L5.47058824,11.2 C4.80262911,10.298097 4.4436537,9.20466612 4.44703482,8.08235294 C4.47304876,5.15849255 6.8643749,2.80930436 9.78823529,2.83529423 C12.7120957,2.8612841 15.0612839,5.25261019 15.0352941,8.17647059 C15.0448354,9.39809714 14.5859266,10.5769453 13.7529412,11.4705882 L9.62352941,16.9882353 Z M9.68235294,4.04705882 C8.15130107,4.04922663 6.75174873,4.91275829 6.06306577,6.28017933 C5.37438281,7.64760037 5.51377151,9.28619869 6.42352941,10.5176471 L9.64705882,14.9882353 L12.8,10.7176471 C13.4548689,10.02963 13.8175308,9.11454141 13.8118347,8.16470588 L13.8118347,8.16470588 C13.8248173,5.90813217 12.0094691,4.06647462 9.75294118,4.04705882 L9.68235294,4.04705882 Z M9.78823529,10.7058824 L9.69411765,10.7058824 C8.64211888,10.6827798 7.70672832,10.0306251 7.32125425,9.05152102 C6.93578019,8.0724169 7.17551789,6.95761329 7.92941176,6.22352941 C8.42306751,5.7461857 9.09028292,5.49119892 9.77647059,5.51764706 L9.77647059,5.51764706 C10.4734271,5.51975383 11.139798,5.8041287 11.6235294,6.30588235 C12.1056906,6.796458 12.3615037,7.46583565 12.3294118,8.15294118 C12.327305,8.84989765 12.0429301,9.51626863 11.5411765,10 C11.070188,10.4518158 10.4408609,10.7010124 9.78823529,10.6941176 L9.78823529,10.7058824 Z M9.70588235,6.68235294 C9.35045412,6.67414459 9.00679141,6.80991257 8.75294118,7.05882353 C8.47272794,7.32525109 8.31517879,7.69570451 8.31764706,8.08235294 C8.31761849,8.87047223 8.95308366,9.51118707 9.74117647,9.51764706 C10.1094054,9.54015008 10.4694884,9.40297561 10.7294118,9.14117647 C11.0029827,8.87117159 11.1557386,8.50201126 11.1529412,8.11764706 C11.1789161,7.74541674 11.0414729,7.380333 10.7764706,7.11764706 C10.4939649,6.83252841 10.1071951,6.67527038 9.70588235,6.68235294 Z" id="Shape" fill="#4DBDEB"></path>
      </g>
      <rect id="block-2-copy-17" fill="#C9C9CC" x="22" y="5" width="12" height="2"></rect>
      <rect id="block-2-copy-18" fill="#C9C9CC" x="22" y="9" width="27" height="2"></rect>
      <rect id="block-2-copy-19" fill="#C9C9CC" x="22" y="13" width="23" height="2"></rect>
    </g>
    <g id="Group-5" transform="translate(305.000000, 101.000000)">
      <g id="Group" fill-rule="nonzero">
        <rect id="Rectangle" fill="#E7EBEC" x="1.28785871e-13" y="-9.85878046e-14" width="19.4352941" height="19.4352941"></rect>
        <path d="M9.62352941,16.9882353 L5.47058824,11.2 C4.80262911,10.298097 4.4436537,9.20466612 4.44703482,8.08235294 C4.47304876,5.15849255 6.8643749,2.80930436 9.78823529,2.83529423 C12.7120957,2.8612841 15.0612839,5.25261019 15.0352941,8.17647059 C15.0448354,9.39809714 14.5859266,10.5769453 13.7529412,11.4705882 L9.62352941,16.9882353 Z M9.68235294,4.04705882 C8.15130107,4.04922663 6.75174873,4.91275829 6.06306577,6.28017933 C5.37438281,7.64760037 5.51377151,9.28619869 6.42352941,10.5176471 L9.64705882,14.9882353 L12.8,10.7176471 C13.4548689,10.02963 13.8175308,9.11454141 13.8118347,8.16470588 L13.8118347,8.16470588 C13.8248173,5.90813217 12.0094691,4.06647462 9.75294118,4.04705882 L9.68235294,4.04705882 Z M9.78823529,10.7058824 L9.69411765,10.7058824 C8.64211888,10.6827798 7.70672832,10.0306251 7.32125425,9.05152102 C6.93578019,8.0724169 7.17551789,6.95761329 7.92941176,6.22352941 C8.42306751,5.7461857 9.09028292,5.49119892 9.77647059,5.51764706 L9.77647059,5.51764706 C10.4734271,5.51975383 11.139798,5.8041287 11.6235294,6.30588235 C12.1056906,6.796458 12.3615037,7.46583565 12.3294118,8.15294118 C12.327305,8.84989765 12.0429301,9.51626863 11.5411765,10 C11.070188,10.4518158 10.4408609,10.7010124 9.78823529,10.6941176 L9.78823529,10.7058824 Z M9.70588235,6.68235294 C9.35045412,6.67414459 9.00679141,6.80991257 8.75294118,7.05882353 C8.47272794,7.32525109 8.31517879,7.69570451 8.31764706,8.08235294 C8.31761849,8.87047223 8.95308366,9.51118707 9.74117647,9.51764706 C10.1094054,9.54015008 10.4694884,9.40297561 10.7294118,9.14117647 C11.0029827,8.87117159 11.1557386,8.50201126 11.1529412,8.11764706 C11.1789161,7.74541674 11.0414729,7.380333 10.7764706,7.11764706 C10.4939649,6.83252841 10.1071951,6.67527038 9.70588235,6.68235294 Z" id="Shape" fill="#4DBDEB"></path>
      </g>
      <rect id="block-2-copy-14" fill="#C9C9CC" x="22" y="4.66666667" width="12" height="2"></rect>
      <rect id="block-2-copy-15" fill="#C9C9CC" x="22" y="8.66666667" width="27" height="2"></rect>
      <rect id="block-2-copy-16" fill="#C9C9CC" x="22" y="12.6666667" width="23" height="2"></rect>
    </g>
    <g id="Group-4" transform="translate(305.000000, 134.000000)">
      <rect id="block-2-copy-11" fill="#C9C9CC" x="22" y="4.33333333" width="12" height="2"></rect>
      <g id="Group" fill-rule="nonzero">
        <rect id="Rectangle" fill="#E7EBEC" x="1.28785871e-13" y="-9.85878046e-14" width="19.4352941" height="19.4352941"></rect>
        <path d="M9.62352941,16.9882353 L5.47058824,11.2 C4.80262911,10.298097 4.4436537,9.20466612 4.44703482,8.08235294 C4.47304876,5.15849255 6.8643749,2.80930436 9.78823529,2.83529423 C12.7120957,2.8612841 15.0612839,5.25261019 15.0352941,8.17647059 C15.0448354,9.39809714 14.5859266,10.5769453 13.7529412,11.4705882 L9.62352941,16.9882353 Z M9.68235294,4.04705882 C8.15130107,4.04922663 6.75174873,4.91275829 6.06306577,6.28017933 C5.37438281,7.64760037 5.51377151,9.28619869 6.42352941,10.5176471 L9.64705882,14.9882353 L12.8,10.7176471 C13.4548689,10.02963 13.8175308,9.11454141 13.8118347,8.16470588 L13.8118347,8.16470588 C13.8248173,5.90813217 12.0094691,4.06647462 9.75294118,4.04705882 L9.68235294,4.04705882 Z M9.78823529,10.7058824 L9.69411765,10.7058824 C8.64211888,10.6827798 7.70672832,10.0306251 7.32125425,9.05152102 C6.93578019,8.0724169 7.17551789,6.95761329 7.92941176,6.22352941 C8.42306751,5.7461857 9.09028292,5.49119892 9.77647059,5.51764706 L9.77647059,5.51764706 C10.4734271,5.51975383 11.139798,5.8041287 11.6235294,6.30588235 C12.1056906,6.796458 12.3615037,7.46583565 12.3294118,8.15294118 C12.327305,8.84989765 12.0429301,9.51626863 11.5411765,10 C11.070188,10.4518158 10.4408609,10.7010124 9.78823529,10.6941176 L9.78823529,10.7058824 Z M9.70588235,6.68235294 C9.35045412,6.67414459 9.00679141,6.80991257 8.75294118,7.05882353 C8.47272794,7.32525109 8.31517879,7.69570451 8.31764706,8.08235294 C8.31761849,8.87047223 8.95308366,9.51118707 9.74117647,9.51764706 C10.1094054,9.54015008 10.4694884,9.40297561 10.7294118,9.14117647 C11.0029827,8.87117159 11.1557386,8.50201126 11.1529412,8.11764706 C11.1789161,7.74541674 11.0414729,7.380333 10.7764706,7.11764706 C10.4939649,6.83252841 10.1071951,6.67527038 9.70588235,6.68235294 Z" id="Shape" fill="#4DBDEB"></path>
      </g>
      <rect id="block-2-copy-12" fill="#C9C9CC" x="22" y="8.33333333" width="27" height="2"></rect>
      <rect id="block-2-copy-13" fill="#C9C9CC" x="22" y="12.3333333" width="23" height="2"></rect>
    </g>
    <g id="Group-2" transform="translate(305.000000, 166.000000)">
      <rect id="block-2-copy-20" fill="#C9C9CC" x="22" y="4.33333333" width="12" height="2"></rect>
      <g id="Group-Copy" fill-rule="nonzero">
        <rect id="Rectangle" fill="#E7EBEC" x="1.28785871e-13" y="-9.85878046e-14" width="19.4352941" height="19.4352941"></rect>
        <path d="M9.62352941,16.9882353 L5.47058824,11.2 C4.80262911,10.298097 4.4436537,9.20466612 4.44703482,8.08235294 C4.47304876,5.15849255 6.8643749,2.80930436 9.78823529,2.83529423 C12.7120957,2.8612841 15.0612839,5.25261019 15.0352941,8.17647059 C15.0448354,9.39809714 14.5859266,10.5769453 13.7529412,11.4705882 L9.62352941,16.9882353 Z M9.68235294,4.04705882 C8.15130107,4.04922663 6.75174873,4.91275829 6.06306577,6.28017933 C5.37438281,7.64760037 5.51377151,9.28619869 6.42352941,10.5176471 L9.64705882,14.9882353 L12.8,10.7176471 C13.4548689,10.02963 13.8175308,9.11454141 13.8118347,8.16470588 L13.8118347,8.16470588 C13.8248173,5.90813217 12.0094691,4.06647462 9.75294118,4.04705882 L9.68235294,4.04705882 Z M9.78823529,10.7058824 L9.69411765,10.7058824 C8.64211888,10.6827798 7.70672832,10.0306251 7.32125425,9.05152102 C6.93578019,8.0724169 7.17551789,6.95761329 7.92941176,6.22352941 C8.42306751,5.7461857 9.09028292,5.49119892 9.77647059,5.51764706 L9.77647059,5.51764706 C10.4734271,5.51975383 11.139798,5.8041287 11.6235294,6.30588235 C12.1056906,6.796458 12.3615037,7.46583565 12.3294118,8.15294118 C12.327305,8.84989765 12.0429301,9.51626863 11.5411765,10 C11.070188,10.4518158 10.4408609,10.7010124 9.78823529,10.6941176 L9.78823529,10.7058824 Z M9.70588235,6.68235294 C9.35045412,6.67414459 9.00679141,6.80991257 8.75294118,7.05882353 C8.47272794,7.32525109 8.31517879,7.69570451 8.31764706,8.08235294 C8.31761849,8.87047223 8.95308366,9.51118707 9.74117647,9.51764706 C10.1094054,9.54015008 10.4694884,9.40297561 10.7294118,9.14117647 C11.0029827,8.87117159 11.1557386,8.50201126 11.1529412,8.11764706 C11.1789161,7.74541674 11.0414729,7.380333 10.7764706,7.11764706 C10.4939649,6.83252841 10.1071951,6.67527038 9.70588235,6.68235294 Z" id="Shape" fill="#4DBDEB"></path>
      </g>
      <rect id="block-2-copy-21" fill="#C9C9CC" x="22" y="8.33333333" width="27" height="2"></rect>
      <rect id="block-2-copy-22" fill="#C9C9CC" x="22" y="12.3333333" width="23" height="2"></rect>
    </g>
    <rect id="Rectangle" fill="#4DBDEB" x="13" y="58" width="90" height="18"></rect>
    <rect id="block-2-copy-9" fill="#D1D2D2" x="47" y="65" width="41" height="4"></rect>
    <circle id="Oval" fill="#D1D2D2" cx="33" cy="67" r="4"></circle>
  </g>
</svg>
