<?xml version="1.0" encoding="UTF-8"?>
<svg xmlns="http://www.w3.org/2000/svg" xmlns:xlink="http://www.w3.org/1999/xlink" width="370px" height="200px" viewBox="0 0 370 200">
  <!-- Generator: Sketch 53.2 (72643) - https://sketchapp.com -->
  <title>STAT Outlined@2x</title>
  <desc>Created with Sketch.</desc>
  <g id="STAT-Outlined" stroke="none" stroke-width="1" fill="none" fill-rule="evenodd">
    <g id="Data-Visualization" transform="translate(9.000000, 44.000000)">
      <g id="Donut-2" transform="translate(181.000000, 8.000000)" fill="#5EC93A">
        <path d="M17.5000049,59.4740882 L17.5000049,50.3760518 C17.9970355,50.3984173 18.4971249,50.4097271 19.0000049,50.4097271 C36.1586599,50.4097271 50.0684981,37.242546 50.0684981,21.0000049 C50.0684981,4.75746384 36.1586599,-8.4097173 19.0000049,-8.4097173 C18.4971249,-8.4097173 17.9970355,-8.3984075 17.5000049,-8.37604194 L17.5000049,-17.4740783 C17.9977587,-17.4913062 18.4978144,-17.4999951 19.0000049,-17.4999951 C41.3675373,-17.4999951 59.5000049,-0.262957949 59.5000049,21.0000049 C59.5000049,42.2629678 41.3675373,59.5000049 19.0000049,59.5000049 C18.4978144,59.5000049 17.9977587,59.491316 17.4999951,59.4740878 Z" id="Combined-Shape" fill-opacity="0.3" transform="translate(38.500000, 21.000005) rotate(-90.000000) translate(-38.500000, -21.000005) "></path>
        <path d="M27.9280749,33.2189664 C27.9780752,32.872298 28.0747409,32.5681344 28.2180749,32.3064664 C28.361409,32.0447984 28.5405739,31.8264673 28.7555749,31.6514664 C28.970576,31.4764655 29.2172402,31.3448002 29.4955749,31.2564664 C29.7739097,31.1681326 30.0730733,31.1239664 30.3930749,31.1239664 C30.7264099,31.1239664 31.0272403,31.1714659 31.2955749,31.2664664 C31.5639096,31.3614669 31.793074,31.4931322 31.9830749,31.6614664 C32.1730759,31.8298006 32.3189078,32.0272986 32.4205749,32.2539664 C32.5222421,32.4806342 32.5730749,32.7256318 32.5730749,32.9889664 C32.5730749,33.2189676 32.5472419,33.4214655 32.4955749,33.5964664 C32.443908,33.7714673 32.3697421,33.9239658 32.2730749,34.0539664 C32.1764078,34.1839671 32.056409,34.293966 31.9130749,34.3839664 C31.7697409,34.4739669 31.6080758,34.5489661 31.4280749,34.6089664 C31.8614104,34.7456338 32.1847405,34.953965 32.3980749,35.2339664 C32.6114093,35.5139678 32.7180749,35.865631 32.7180749,36.2889664 C32.7180749,36.6489682 32.6514089,36.9672984 32.5180749,37.2439664 C32.3847409,37.5206345 32.2047427,37.7531321 31.9780749,37.9414664 C31.7514071,38.1298007 31.4889098,38.2722993 31.1905749,38.3689664 C30.8922401,38.4656336 30.5764099,38.5139664 30.2430749,38.5139664 C29.8797398,38.5139664 29.5630763,38.4723002 29.2930749,38.3889664 C29.0230736,38.3056327 28.7880759,38.1823006 28.5880749,38.0189664 C28.3880739,37.8556323 28.2180756,37.6556343 28.0780749,37.4189664 C27.9380742,37.1822986 27.8180754,36.908968 27.7180749,36.5989664 L28.2630749,36.3739664 C28.406409,36.3139661 28.5405743,36.2981329 28.6655749,36.3264664 C28.7905756,36.3547999 28.881408,36.4222992 28.9380749,36.5289664 C28.9980752,36.6456337 29.0639079,36.7606325 29.1355749,36.8739664 C29.207242,36.9873003 29.2930744,37.0881326 29.3930749,37.1764664 C29.4930754,37.2648002 29.6105743,37.3364661 29.7455749,37.3914664 C29.8805756,37.4464667 30.0414073,37.4739664 30.2280749,37.4739664 C30.438076,37.4739664 30.6214075,37.4398001 30.7780749,37.3714664 C30.9347424,37.3031327 31.0655744,37.213967 31.1705749,37.1039664 C31.2755755,36.9939659 31.353908,36.8714671 31.4055749,36.7364664 C31.4572419,36.6014657 31.4830749,36.4656338 31.4830749,36.3289664 C31.4830749,36.1556322 31.4647418,35.9981338 31.4280749,35.8564664 C31.3914081,35.714799 31.3147422,35.5939669 31.1980749,35.4939664 C31.0814077,35.3939659 30.9139094,35.3156334 30.6955749,35.2589664 C30.4772405,35.2022995 30.1847434,35.1739664 29.8180749,35.1739664 L29.8180749,34.2939664 C30.1214098,34.2906331 30.3730739,34.2623 30.5730749,34.2089664 C30.7730759,34.1556328 30.932241,34.0814669 31.0505749,33.9864664 C31.1689089,33.8914659 31.251408,33.7773004 31.2980749,33.6439664 C31.3447418,33.5106324 31.3680749,33.3639672 31.3680749,33.2039664 C31.3680749,32.8639647 31.2730759,32.605634 31.0830749,32.4289664 C30.893074,32.2522989 30.6397432,32.1639664 30.3230749,32.1639664 C30.1764075,32.1639664 30.0414089,32.1847995 29.9180749,32.2264664 C29.794741,32.2681333 29.6839088,32.326466 29.5855749,32.4014664 C29.4872411,32.4764668 29.4047419,32.5639659 29.3380749,32.6639664 C29.2714079,32.7639669 29.2214084,32.8739658 29.1880749,32.9939664 C29.131408,33.1473005 29.0572421,33.2489662 28.9655749,33.2989664 C28.8739078,33.3489667 28.7447424,33.3606332 28.5780749,33.3339664 L27.9280749,33.2189664 Z M33.5472416,37.7539664 C33.5472416,37.6506326 33.5664081,37.5523002 33.6047416,37.4589664 C33.6430751,37.3656326 33.6955746,37.2856334 33.7622416,37.2189664 C33.8289086,37.1522994 33.9089078,37.0989666 34.0022416,37.0589664 C34.0955754,37.0189662 34.1955744,36.9989664 34.3022416,36.9989664 C34.4089088,36.9989664 34.5080745,37.0189662 34.5997416,37.0589664 C34.6914087,37.0989666 34.7714079,37.1522994 34.8397416,37.2189664 C34.9080753,37.2856334 34.9622414,37.3656326 35.0022416,37.4589664 C35.0422418,37.5523002 35.0622416,37.6506326 35.0622416,37.7539664 C35.0622416,37.8606336 35.0422418,37.9597993 35.0022416,38.0514664 C34.9622414,38.1431335 34.9080753,38.2222994 34.8397416,38.2889664 C34.7714079,38.3556334 34.6914087,38.4081329 34.5997416,38.4464664 C34.5080745,38.4847999 34.4089088,38.5039664 34.3022416,38.5039664 C34.1955744,38.5039664 34.0955754,38.4847999 34.0022416,38.4464664 C33.9089078,38.4081329 33.8289086,38.3556334 33.7622416,38.2889664 C33.6955746,38.2222994 33.6430751,38.1431335 33.6047416,38.0514664 C33.5664081,37.9597993 33.5472416,37.8606336 33.5472416,37.7539664 Z M38.3214083,37.5489664 C38.5247426,37.5489664 38.7030742,37.5198 38.8564083,37.4614664 C39.0097424,37.4031328 39.1389078,37.3223003 39.2439083,37.2189664 C39.3489088,37.1156326 39.4280747,36.9923005 39.4814083,36.8489664 C39.5347419,36.7056324 39.5614083,36.5506339 39.5614083,36.3839664 C39.5614083,35.9872978 39.4514094,35.6873008 39.2314083,35.4839664 C39.0114072,35.2806321 38.7080769,35.1789664 38.3214083,35.1789664 C37.9347397,35.1789664 37.6314094,35.2806321 37.4114083,35.4839664 C37.1914072,35.6873008 37.0814083,35.9872978 37.0814083,36.3839664 C37.0814083,36.5506339 37.1080747,36.7056324 37.1614083,36.8489664 C37.2147419,36.9923005 37.2939078,37.1156326 37.3989083,37.2189664 C37.5039088,37.3223003 37.6330742,37.4031328 37.7864083,37.4614664 C37.9397424,37.5198 38.1180739,37.5489664 38.3214083,37.5489664 Z M38.3214083,32.0539664 C38.138074,32.0539664 37.9797423,32.0822995 37.8464083,32.1389664 C37.7130743,32.1956334 37.6022421,32.2714659 37.5139083,32.3664664 C37.4255745,32.4614669 37.3605752,32.5706325 37.3189083,32.6939664 C37.2772414,32.8173004 37.2564083,32.9472991 37.2564083,33.0839664 C37.2564083,33.2273005 37.2739081,33.3664657 37.3089083,33.5014664 C37.3439085,33.6364671 37.4030745,33.7564659 37.4864083,33.8614664 C37.569742,33.9664669 37.6797409,34.0506328 37.8164083,34.1139664 C37.9530756,34.1773001 38.1214073,34.2089664 38.3214083,34.2089664 C38.5214093,34.2089664 38.6897409,34.1773001 38.8264083,34.1139664 C38.9630756,34.0506328 39.0730745,33.9664669 39.1564083,33.8614664 C39.239742,33.7564659 39.2989081,33.6364671 39.3339083,33.5014664 C39.3689085,33.3664657 39.3864083,33.2273005 39.3864083,33.0839664 C39.3864083,32.9472991 39.3647418,32.8173004 39.3214083,32.6939664 C39.2780747,32.5706325 39.2130754,32.4614669 39.1264083,32.3664664 C39.0397412,32.2714659 38.9297423,32.1956334 38.7964083,32.1389664 C38.6630743,32.0822995 38.5047425,32.0539664 38.3214083,32.0539664 Z M39.5414083,34.6639664 C39.9814105,34.8073005 40.3064072,35.0264649 40.5164083,35.3214664 C40.7264093,35.6164679 40.8314083,35.9772976 40.8314083,36.4039664 C40.8314083,36.723968 40.7705756,37.0139651 40.6489083,37.2739664 C40.527241,37.5339677 40.3564094,37.7556322 40.1364083,37.9389664 C39.9164072,38.1223007 39.6522432,38.2639659 39.3439083,38.3639664 C39.0355734,38.4639669 38.6947435,38.5139664 38.3214083,38.5139664 C37.9480731,38.5139664 37.6072432,38.4639669 37.2989083,38.3639664 C36.9905734,38.2639659 36.7264094,38.1223007 36.5064083,37.9389664 C36.2864072,37.7556322 36.1155756,37.5339677 35.9939083,37.2739664 C35.872241,37.0139651 35.8114083,36.723968 35.8114083,36.4039664 C35.8114083,35.9772976 35.9164072,35.6164679 36.1264083,35.3214664 C36.3364093,35.0264649 36.6614061,34.8073005 37.1014083,34.6639664 C36.7514065,34.517299 36.4889092,34.3089678 36.3139083,34.0389664 C36.1389074,33.7689651 36.0514083,33.4439683 36.0514083,33.0639664 C36.0514083,32.7906317 36.1072411,32.5356343 36.2189083,32.2989664 C36.3305755,32.0622986 36.4864073,31.8564673 36.6864083,31.6814664 C36.8864093,31.5064655 37.1255736,31.3698002 37.4039083,31.2714664 C37.682243,31.1731326 37.9880733,31.1239664 38.3214083,31.1239664 C38.6547433,31.1239664 38.9605736,31.1731326 39.2389083,31.2714664 C39.517243,31.3698002 39.7564073,31.5064655 39.9564083,31.6814664 C40.1564093,31.8564673 40.3122411,32.0622986 40.4239083,32.2989664 C40.5355755,32.5356343 40.5914083,32.7906317 40.5914083,33.0639664 C40.5914083,33.4439683 40.5039092,33.7689651 40.3289083,34.0389664 C40.1539074,34.3089678 39.89141,34.517299 39.5414083,34.6639664 Z M49.795575,31.2039664 L49.795575,38.4339664 L48.610575,38.4339664 L48.610575,33.7639664 C48.610575,33.5772988 48.6205749,33.3756342 48.640575,33.1589664 L46.455575,37.2639664 C46.3522411,37.4606341 46.1939094,37.5589664 45.980575,37.5589664 L45.790575,37.5589664 C45.5772406,37.5589664 45.4189088,37.4606341 45.315575,37.2639664 L43.105575,33.1439664 C43.115575,33.253967 43.1239083,33.3622992 43.130575,33.4689664 C43.1372417,33.5756336 43.140575,33.673966 43.140575,33.7639664 L43.140575,38.4339664 L41.955575,38.4339664 L41.955575,31.2039664 L42.970575,31.2039664 C43.0305753,31.2039664 43.0822414,31.2056331 43.125575,31.2089664 C43.1689085,31.2122998 43.2080748,31.220633 43.243075,31.2339664 C43.2780751,31.2472998 43.3097415,31.2689663 43.338075,31.2989664 C43.3664084,31.3289666 43.3939082,31.3689662 43.420575,31.4189664 L45.585575,35.4339664 C45.6422419,35.5406336 45.6947414,35.6506325 45.743075,35.7639664 C45.7914085,35.8773003 45.8389081,35.9939658 45.885575,36.1139664 C45.9322419,35.9906325 45.9805747,35.871467 46.030575,35.7564664 C46.0805752,35.6414658 46.133908,35.5306336 46.190575,35.4239664 L48.325575,31.4189664 C48.3522418,31.3689662 48.3805748,31.3289666 48.410575,31.2989664 C48.4405751,31.2689663 48.4730748,31.2472998 48.508075,31.2339664 C48.5430751,31.220633 48.5822414,31.2122998 48.625575,31.2089664 C48.6689085,31.2056331 48.7205747,31.2039664 48.780575,31.2039664 L49.795575,31.2039664 Z" id="3.8M" fill-rule="nonzero"></path>
      </g>
      <g id="Donut-1">
        <path d="M33.4155844,61.0794702 C18.5325863,61.0794702 6.46753247,49.0712135 6.46753247,34.2582781 C6.46753247,19.4453428 18.5325863,7.43708609 33.4155844,7.43708609 C48.2985825,7.43708609 60.3636364,19.4453428 60.3636364,34.2582781 C60.3636364,49.0712135 48.2985825,61.0794702 33.4155844,61.0794702 Z M33.4155844,52.4966887 C43.5360231,52.4966887 51.7402597,44.3310742 51.7402597,34.2582781 C51.7402597,24.1854821 43.5360231,16.0198675 33.4155844,16.0198675 C23.2951457,16.0198675 15.0909091,24.1854821 15.0909091,34.2582781 C15.0909091,44.3310742 23.2951457,52.4966887 33.4155844,52.4966887 Z" id="Shape" fill="#D1D1D1" transform="translate(33.415584, 34.258278) rotate(106.000000) translate(-33.415584, -34.258278) "></path>
        <path d="M6.47519783,35.3412502 L15.1085874,35.3412502 C15.666539,44.9146772 23.6434994,52.5068131 33.4020853,52.5068131 C43.5225241,52.5068131 51.7267607,44.3411986 51.7267607,34.2684025 C51.7267607,24.1956065 43.5225241,16.0299919 33.4020853,16.0299919 C33.0402325,16.0299919 32.6808293,16.0404308 32.3241633,16.0610225 L32.3241633,7.4682753 C32.681719,7.45427599 33.0410732,7.44721049 33.4020853,7.44721049 C48.2850835,7.44721049 60.3501373,19.4554672 60.3501373,34.2684025 C60.3501373,49.0813379 48.2850835,61.0895946 33.4020853,61.0895946 C18.8800994,61.0895946 7.0410078,49.6568333 6.47519816,35.3412585 Z" id="Combined-Shape" fill="#5EC93A" transform="translate(33.412668, 34.268403) rotate(106.000000) translate(-33.412668, -34.268403) "></path>
        <path d="M22.8930844,31.0770066 C22.8930844,31.561009 23.0180832,31.9300054 23.2680844,32.1840066 C23.5180857,32.4380079 23.8730821,32.5650066 24.3330844,32.5650066 C24.5730856,32.5650066 24.7870835,32.527007 24.9750844,32.4510066 C25.1630853,32.3750062 25.3210838,32.2710073 25.4490844,32.1390066 C25.577085,32.007006 25.6740841,31.8510075 25.7400844,31.6710066 C25.8060847,31.4910057 25.8390844,31.2970077 25.8390844,31.0890066 C25.8390844,30.8530054 25.8030848,30.6420076 25.7310844,30.4560066 C25.659084,30.2700057 25.5570851,30.1130073 25.4250844,29.9850066 C25.2930837,29.857006 25.1360853,29.759007 24.9540844,29.6910066 C24.7720835,29.6230063 24.5730855,29.5890066 24.3570844,29.5890066 C24.1330833,29.5890066 23.9310853,29.6260063 23.7510844,29.7000066 C23.5710835,29.774007 23.417085,29.877006 23.2890844,30.0090066 C23.1610838,30.1410073 23.0630847,30.2980057 22.9950844,30.4800066 C22.9270841,30.6620075 22.8930844,30.8610055 22.8930844,31.0770066 Z M24.8610844,33.7830066 C24.9290847,33.6990062 24.9930841,33.617007 25.0530844,33.5370066 C25.1130847,33.4570062 25.1710841,33.377007 25.2270844,33.2970066 C25.0270834,33.4250073 24.8070856,33.5220063 24.5670844,33.5880066 C24.3270832,33.654007 24.0750857,33.6870066 23.8110844,33.6870066 C23.5110829,33.6870066 23.2170858,33.6350071 22.9290844,33.5310066 C22.641083,33.4270061 22.3850855,33.2700077 22.1610844,33.0600066 C21.9370833,32.8500056 21.7560851,32.5900082 21.6180844,32.2800066 C21.4800837,31.9700051 21.4110844,31.6070087 21.4110844,31.1910066 C21.4110844,30.8030047 21.4830837,30.4390083 21.6270844,30.0990066 C21.7710851,29.7590049 21.9730831,29.4610079 22.2330844,29.2050066 C22.4930857,28.9490053 22.8050826,28.7470074 23.1690844,28.5990066 C23.5330862,28.4510059 23.9350822,28.3770066 24.3750844,28.3770066 C24.8190866,28.3770066 25.2180826,28.4470059 25.5720844,28.5870066 C25.9260862,28.7270073 26.2280832,28.9230054 26.4780844,29.1750066 C26.7280857,29.4270079 26.9200837,29.7290049 27.0540844,30.0810066 C27.1880851,30.4330084 27.2550844,30.8190045 27.2550844,31.2390066 C27.2550844,31.507008 27.2320846,31.7610054 27.1860844,32.0010066 C27.1400842,32.2410078 27.0750848,32.4720055 26.9910844,32.6940066 C26.907084,32.9160077 26.805085,33.1330056 26.6850844,33.3450066 C26.5650838,33.5570077 26.4310851,33.7670056 26.2830844,33.9750066 L24.2970844,36.8070066 C24.2290841,36.9030071 24.1270851,36.9840063 23.9910844,37.0500066 C23.8550837,37.116007 23.7010853,37.1490066 23.5290844,37.1490066 L22.1670844,37.1490066 L24.8610844,33.7830066 Z M31.2680844,36.0870066 C31.5120856,36.0870066 31.7260835,36.052007 31.9100844,35.9820066 C32.0940853,35.9120063 32.2490838,35.8150072 32.3750844,35.6910066 C32.501085,35.567006 32.5960841,35.4190075 32.6600844,35.2470066 C32.7240847,35.0750058 32.7560844,34.8890076 32.7560844,34.6890066 C32.7560844,34.2130042 32.6240857,33.8530078 32.3600844,33.6090066 C32.0960831,33.3650054 31.7320867,33.2430066 31.2680844,33.2430066 C30.8040821,33.2430066 30.4400857,33.3650054 30.1760844,33.6090066 C29.9120831,33.8530078 29.7800844,34.2130042 29.7800844,34.6890066 C29.7800844,34.8890076 29.8120841,35.0750058 29.8760844,35.2470066 C29.9400847,35.4190075 30.0350838,35.567006 30.1610844,35.6910066 C30.287085,35.8150072 30.4420835,35.9120063 30.6260844,35.9820066 C30.8100853,36.052007 31.0240832,36.0870066 31.2680844,36.0870066 Z M31.2680844,29.4930066 C31.0480833,29.4930066 30.8580852,29.5270063 30.6980844,29.5950066 C30.5380836,29.663007 30.4050849,29.7540061 30.2990844,29.8680066 C30.1930839,29.9820072 30.1150847,30.1130059 30.0650844,30.2610066 C30.0150842,30.4090074 29.9900844,30.5650058 29.9900844,30.7290066 C29.9900844,30.9010075 30.0110842,31.0680058 30.0530844,31.2300066 C30.0950846,31.3920074 30.1660839,31.536006 30.2660844,31.6620066 C30.3660849,31.7880073 30.4980836,31.8890062 30.6620844,31.9650066 C30.8260852,32.041007 31.0280832,32.0790066 31.2680844,32.0790066 C31.5080856,32.0790066 31.7100836,32.041007 31.8740844,31.9650066 C32.0380852,31.8890062 32.1700839,31.7880073 32.2700844,31.6620066 C32.3700849,31.536006 32.4410842,31.3920074 32.4830844,31.2300066 C32.5250846,31.0680058 32.5460844,30.9010075 32.5460844,30.7290066 C32.5460844,30.5650058 32.5200847,30.4090074 32.4680844,30.2610066 C32.4160842,30.1130059 32.3380849,29.9820072 32.2340844,29.8680066 C32.1300839,29.7540061 31.9980852,29.663007 31.8380844,29.5950066 C31.6780836,29.5270063 31.4880855,29.4930066 31.2680844,29.4930066 Z M32.7320844,32.6250066 C33.2600871,32.7970075 33.6500832,33.0600049 33.9020844,33.4140066 C34.1540857,33.7680084 34.2800844,34.2010041 34.2800844,34.7130066 C34.2800844,35.0970085 34.2070851,35.4450051 34.0610844,35.7570066 C33.9150837,36.0690082 33.7100857,36.3350055 33.4460844,36.5550066 C33.1820831,36.7750077 32.8650863,36.945006 32.4950844,37.0650066 C32.1250826,37.1850072 31.7160867,37.2450066 31.2680844,37.2450066 C30.8200822,37.2450066 30.4110863,37.1850072 30.0410844,37.0650066 C29.6710826,36.945006 29.3540857,36.7750077 29.0900844,36.5550066 C28.8260831,36.3350055 28.6210851,36.0690082 28.4750844,35.7570066 C28.3290837,35.4450051 28.2560844,35.0970085 28.2560844,34.7130066 C28.2560844,34.2010041 28.3820832,33.7680084 28.6340844,33.4140066 C28.8860857,33.0600049 29.2760818,32.7970075 29.8040844,32.6250066 C29.3840823,32.4490057 29.0690855,32.1990082 28.8590844,31.8750066 C28.6490834,31.551005 28.5440844,31.1610089 28.5440844,30.7050066 C28.5440844,30.377005 28.6110837,30.071008 28.7450844,29.7870066 C28.8790851,29.5030052 29.0660832,29.2560077 29.3060844,29.0460066 C29.5460856,28.8360056 29.8330827,28.6720072 30.1670844,28.5540066 C30.5010861,28.436006 30.8680824,28.3770066 31.2680844,28.3770066 C31.6680864,28.3770066 32.0350827,28.436006 32.3690844,28.5540066 C32.7030861,28.6720072 32.9900832,28.8360056 33.2300844,29.0460066 C33.4700856,29.2560077 33.6570837,29.5030052 33.7910844,29.7870066 C33.9250851,30.071008 33.9920844,30.377005 33.9920844,30.7050066 C33.9920844,31.1610089 33.8870855,31.551005 33.6770844,31.8750066 C33.4670834,32.1990082 33.1520865,32.4490057 32.7320844,32.6250066 Z M45.0370844,28.4730066 L45.0370844,37.1490066 L43.6150844,37.1490066 L43.6150844,31.5450066 C43.6150844,31.3210055 43.6270843,31.0790079 43.6510844,30.8190066 L41.0290844,35.7450066 C40.9050838,35.9810078 40.7150857,36.0990066 40.4590844,36.0990066 L40.2310844,36.0990066 C39.9750831,36.0990066 39.785085,35.9810078 39.6610844,35.7450066 L37.0090844,30.8010066 C37.0210845,30.9330073 37.0310844,31.063006 37.0390844,31.1910066 C37.0470845,31.3190073 37.0510844,31.4370061 37.0510844,31.5450066 L37.0510844,37.1490066 L35.6290844,37.1490066 L35.6290844,28.4730066 L36.8470844,28.4730066 C36.9190848,28.4730066 36.9810842,28.4750066 37.0330844,28.4790066 C37.0850847,28.4830066 37.1320842,28.4930065 37.1740844,28.5090066 C37.2160846,28.5250067 37.2540843,28.5510064 37.2880844,28.5870066 C37.3220846,28.6230068 37.3550843,28.6710063 37.3870844,28.7310066 L39.9850844,33.5490066 C40.0530848,33.6770073 40.1160841,33.8090059 40.1740844,33.9450066 C40.2320847,34.0810073 40.2890841,34.2210059 40.3450844,34.3650066 C40.4010847,34.2170059 40.4590841,34.0740073 40.5190844,33.9360066 C40.5790847,33.7980059 40.6430841,33.6650073 40.7110844,33.5370066 L43.2730844,28.7310066 C43.3050846,28.6710063 43.3390842,28.6230068 43.3750844,28.5870066 C43.4110846,28.5510064 43.4500842,28.5250067 43.4920844,28.5090066 C43.5340846,28.4930065 43.5810842,28.4830066 43.6330844,28.4790066 C43.6850847,28.4750066 43.7470841,28.4730066 43.8190844,28.4730066 L45.0370844,28.4730066 Z" id="98M" fill="#8B8B8B" fill-rule="nonzero"></path>
        <rect id="Rectangle" fill-opacity="0.25" fill="#282834" x="76.2207792" y="19.2384106" width="29" height="4"></rect>
        <rect id="Rectangle-Copy-21" fill="#4DBDEB" x="282" y="16" width="62" height="8"></rect>
        <rect id="Rectangle-Copy-18" fill-opacity="0.25" fill="#282834" x="125.350649" y="19.2384106" width="20" height="4"></rect>
        <rect id="Rectangle-Copy-3" fill="#8B8B8B" x="10.4675325" y="72.5364238" width="25.8701299" height="3.21854305"></rect>
        <rect id="Rectangle-Copy-13" fill="#8B8B8B" x="10.4675325" y="115.450331" width="25.8701299" height="3.21854305"></rect>
        <rect id="Rectangle-Copy-8" fill-opacity="0.25" fill="#282834" x="23.7142857" y="40.6953642" width="20.4805195" height="2.14569536"></rect>
        <rect id="Rectangle-Copy-24" fill-opacity="0.25" fill="#282834" x="209" y="49" width="20.4805195" height="2.14569536"></rect>
        <rect id="Rectangle-Copy-4" fill-opacity="0.25" fill="#282834" x="17.8571429" y="81.1192053" width="25.8701299" height="3.21854305"></rect>
        <rect id="Rectangle-Copy-14" fill-opacity="0.25" fill="#282834" x="17.8571429" y="124.033113" width="25.8701299" height="3.21854305"></rect>
        <rect id="Rectangle-Copy-5" fill-opacity="0.25" fill="#282834" x="17.8571429" y="89.7019868" width="25.8701299" height="3.21854305"></rect>
        <rect id="Rectangle-Copy-15" fill-opacity="0.25" fill="#282834" x="17.8571429" y="132.615894" width="25.8701299" height="3.21854305"></rect>
        <rect id="Rectangle-Copy-6" fill-opacity="0.25" fill="#282834" x="17.8571429" y="98.2847682" width="25.8701299" height="3.21854305"></rect>
        <rect id="Rectangle-Copy-16" fill-opacity="0.25" fill="#282834" x="17.8571429" y="141.198675" width="25.8701299" height="3.21854305"></rect>
        <rect id="Rectangle-Copy-7" fill-opacity="0.25" fill="#282834" x="17.8571429" y="106.86755" width="25.8701299" height="3.21854305"></rect>
        <rect id="Rectangle-Copy" fill-opacity="0.25" fill="#282834" x="76.2207792" y="32.1125828" width="23" height="4"></rect>
        <rect id="Rectangle-Copy-22" fill="#4DBDEB" x="282" y="28.8741722" width="49" height="8"></rect>
        <rect id="Rectangle-Copy-19" fill-opacity="0.25" fill="#282834" x="125.350649" y="32.1125828" width="24" height="4"></rect>
        <rect id="Rectangle-Copy-2" fill-opacity="0.25" fill="#282834" x="76.2207792" y="44.986755" width="26" height="4"></rect>
        <rect id="Rectangle-Copy-23" fill="#4DBDEB" x="282" y="41.7483444" width="25" height="8"></rect>
        <rect id="Rectangle-Copy-20" fill-opacity="0.25" fill="#282834" x="125.350649" y="44.986755" width="17" height="4"></rect>
      </g>
    </g>
    <path d="M21.056,12.382 C21.056,14.23 20.454,15.14 17.64,15.14 C16.562,15.14 15.428,14.902 14.63,14.538 L14.98,12.914 C15.834,13.18 16.702,13.362 17.668,13.362 C18.746,13.362 18.956,13.152 18.956,12.368 C18.956,11.528 18.914,11.43 17.388,11.094 C15.134,10.604 14.798,10.156 14.798,8.14 C14.798,6.278 15.456,5.536 18.018,5.536 C18.83,5.536 19.81,5.62 20.846,5.844 L20.636,7.608 C19.572,7.426 18.886,7.342 18.046,7.342 C17.108,7.342 16.898,7.51 16.898,8.196 C16.898,9.092 16.94,9.106 18.41,9.456 C20.93,10.058 21.056,10.548 21.056,12.382 Z M29.771,7.538 L27.265,7.538 L27.265,15 L25.165,15 L25.165,7.538 L22.659,7.538 L22.659,5.676 L29.771,5.676 L29.771,7.538 Z M35.896,5.676 L38.752,15 L36.568,15 L36.064,13.18 L32.942,13.18 L32.438,15 L30.254,15 L33.096,5.676 L35.896,5.676 Z M34.496,7.524 L33.418,11.43 L35.56,11.43 L34.496,7.524 Z M46.347,7.538 L43.841,7.538 L43.841,15 L41.741,15 L41.741,7.538 L39.235,7.538 L39.235,5.676 L46.347,5.676 L46.347,7.538 Z" id="STAT" fill="#4DBDEB" fill-rule="nonzero"></path>
    <path d="M234.185591,98.1871502 L225.418303,95.0758 C226.190801,92.4537082 226.604958,89.6810247 226.604958,86.8128498 C226.604958,70.5015358 213.210299,57.2786032 196.68715,57.2786032 C195.845242,57.2786032 195.011456,57.312933 194.18715,57.380252 L194.18715,47.8928977 C195.013755,47.8398132 195.847353,47.8128498 196.68715,47.8128498 C218.226255,47.8128498 236.18715,64.7901466 236.18715,86.0531095 C236.18715,90.264027 235.482727,94.3468453 234.185591,98.1871502 Z" id="Combined-Shape" fill="#5EC93A" transform="translate(215.187150, 73.000000) rotate(-90.000000) translate(-215.187150, -73.000000) "></path>
    <path d="M230.158921,80.3766297 L237.991905,60.696106" id="Line-6" stroke="#8B8B8B" stroke-linecap="square" transform="translate(233.863703, 70.650651) rotate(-2.000000) translate(-233.863703, -70.650651) "></path>
    <circle id="Oval" fill="#8B8B8B" cx="238.5" cy="59.5" r="2.5"></circle>
    <rect id="Bar-5" fill="#C0C0C0" transform="translate(323.000000, 171.000000) rotate(-90.000000) translate(-323.000000, -171.000000) " x="321" y="151" width="4" height="40"></rect>
    <rect id="Bar-4" fill="#D1D1D1" transform="translate(270.000000, 167.500000) rotate(-90.000000) translate(-270.000000, -167.500000) " x="264.5" y="149.5" width="11" height="36"></rect>
    <rect id="Bar-3" fill="#D1D1D1" transform="translate(220.500000, 160.000000) rotate(-90.000000) translate(-220.500000, -160.000000) " x="207.5" y="141.5" width="26" height="37"></rect>
    <rect id="Bar-2" fill="#D1D1D1" transform="translate(163.000000, 153.000000) rotate(-90.000000) translate(-163.000000, -153.000000) " x="143" y="135" width="40" height="36"></rect>
    <rect id="Bar-1" fill="#D1D1D1" transform="translate(110.000000, 148.500000) rotate(-90.000000) translate(-110.000000, -148.500000) " x="85.5" y="128.5" width="49" height="40"></rect>
    <rect id="Rectangle" fill="#9A9898" transform="translate(216.500000, 173.500000) rotate(-90.000000) translate(-216.500000, -173.500000) " x="216" y="36" width="1" height="275"></rect>
    <rect id="Rectangle" fill="#8772C1" x="105" y="180" width="11" height="7"></rect>
    <rect id="Rectangle-Copy-9" fill="#FC4949" x="157" y="180" width="10" height="7"></rect>
    <rect id="Rectangle-Copy-10" fill="#FF9F2C" x="215" y="180" width="11" height="7"></rect>
    <rect id="Rectangle-Copy-11" fill="#4DBDEB" x="266" y="180" width="10" height="7"></rect>
    <rect id="Rectangle-Copy-12" fill="#FFD262" x="319" y="180" width="10" height="7"></rect>
    <rect id="Bar-1" fill="#8B8B8B" transform="translate(110.000000, 160.500000) rotate(-90.000000) translate(-110.000000, -160.500000) " x="97.5" y="140.5" width="25" height="40"></rect>
    <rect id="Bar-1-Copy" fill="#8B8B8B" transform="translate(163.000000, 167.500000) rotate(-90.000000) translate(-163.000000, -167.500000) " x="157.5" y="149.5" width="11" height="36"></rect>
    <rect id="Bar-1-Copy-2" fill="#8B8B8B" transform="translate(220.500000, 169.000000) rotate(-90.000000) translate(-220.500000, -169.000000) " x="216.5" y="150.5" width="8" height="37"></rect>
    <rect id="Bar-1-Copy-3" fill="#8B8B8B" transform="translate(270.000000, 170.500000) rotate(-90.000000) translate(-270.000000, -170.500000) " x="267.5" y="152.5" width="5" height="36"></rect>
    <rect id="Rectangle" fill="#9A9898" x="291" y="55" width="1" height="44"></rect>
    <polyline id="Path-5" stroke="#4DBDEB" points="119 67 121.955078 63 125.162109 67"></polyline>
    <polyline id="Path-5-Copy-3" stroke="#FC4949" transform="translate(166.081055, 91.000000) rotate(-180.000000) translate(-166.081055, -91.000000) " points="163 93 165.955078 89 169.162109 93"></polyline>
    <polyline id="Path-5-Copy" stroke="#4DBDEB" points="119 80 121.955078 76 125.162109 80"></polyline>
    <polyline id="Path-5-Copy-4" stroke="#FC4949" transform="translate(166.081055, 78.000000) rotate(-180.000000) translate(-166.081055, -78.000000) " points="163 80 165.955078 76 169.162109 80"></polyline>
    <polyline id="Path-5-Copy-2" stroke="#4DBDEB" points="119 93 121.955078 89 125.162109 93"></polyline>
    <polyline id="Path-5-Copy-5" stroke="#FC4949" transform="translate(166.081055, 65.000000) rotate(-180.000000) translate(-166.081055, -65.000000) " points="163 67 165.955078 63 169.162109 67"></polyline>
    <rect id="Sub-Nav" fill="#4DBDEB" x="0" y="19" width="370" height="21"></rect>
    <path d="M18.6738281,28.1611328 L17.6044922,28.1611328 L17.4189453,27.1845703 C17.2952468,27.1064449 17.1145845,27.0380862 16.8769531,26.9794922 C16.6393217,26.9208981 16.3870456,26.8916016 16.1201172,26.8916016 C15.7294902,26.8916016 15.4275727,26.9737948 15.2143555,27.1381836 C15.0011383,27.3025724 14.8945312,27.5149727 14.8945312,27.7753906 C14.8945312,28.0162772 15.006021,28.2140292 15.2290039,28.3686523 C15.4519868,28.5232755 15.8369113,28.6868481 16.3837891,28.859375 C17.1682982,29.077475 17.7631816,29.3655581 18.168457,29.7236328 C18.5737325,30.0817075 18.7763672,30.5520804 18.7763672,31.1347656 C18.7763672,31.7434926 18.5354842,32.2236311 18.0537109,32.5751953 C17.5719377,32.9267596 16.9371784,33.1025391 16.1494141,33.1025391 C15.5862602,33.1025391 15.077639,33.0130217 14.6235352,32.8339844 C14.1694313,32.654947 13.7910171,32.4075537 13.4882812,32.0917969 L13.4882812,30.6074219 L14.5917969,30.6074219 L14.7431641,31.6181641 C14.8863939,31.7353521 15.0808907,31.8321936 15.3266602,31.9086914 C15.5724296,31.9851892 15.8466782,32.0234375 16.1494141,32.0234375 C16.540041,32.0234375 16.8370758,31.9436857 17.0405273,31.7841797 C17.2439789,31.6246737 17.3457031,31.4114597 17.3457031,31.1445312 C17.3457031,30.8710924 17.2488616,30.651368 17.0551758,30.4853516 C16.8614899,30.3193351 16.5221378,30.1630867 16.0371094,30.0166016 C15.1940062,29.7724597 14.5559917,29.4827491 14.1230469,29.1474609 C13.690102,28.8121728 13.4736328,28.353193 13.4736328,27.7705078 C13.4736328,27.1943331 13.717771,26.7231464 14.2060547,26.3569336 C14.6943384,25.9907208 15.307939,25.8027344 16.046875,25.7929688 C16.5937527,25.7929688 17.0917946,25.8759757 17.5410156,26.0419922 C17.9902366,26.2080086 18.367837,26.4293606 18.6738281,26.7060547 L18.6738281,28.1611328 Z M21.8313672,33.1025391 C21.0696446,33.1025391 20.4609268,32.8584009 20.0051953,32.3701172 C19.5494639,31.8818335 19.3216016,31.2617225 19.3216016,30.5097656 L19.3216016,30.3144531 C19.3216016,29.529944 19.537257,28.8837916 19.9685742,28.3759766 C20.3998915,27.8681615 20.978499,27.6158854 21.7044141,27.6191406 C22.4173083,27.6191406 22.9706881,27.8339822 23.3645703,28.2636719 C23.7584525,28.6933615 23.9553906,29.2744104 23.9553906,30.0068359 L23.9553906,30.7832031 L20.8010937,30.7832031 L20.7913281,30.8125 C20.8173699,31.160809 20.9337425,31.4472645 21.1404492,31.671875 C21.347156,31.8964855 21.6279149,32.0087891 21.9827344,32.0087891 C22.2984912,32.0087891 22.5605328,31.9770511 22.7688672,31.9135742 C22.9772016,31.8500973 23.2050639,31.7500007 23.4524609,31.6132812 L23.8382031,32.4921875 C23.6201031,32.6647144 23.3377166,32.8095697 22.9910352,32.9267578 C22.6443537,33.0439459 22.2578016,33.1025391 21.8313672,33.1025391 Z M21.7044141,28.7177734 C21.4407409,28.7177734 21.2324096,28.8186839 21.0794141,29.0205078 C20.9264185,29.2223317 20.8320184,29.4876286 20.7962109,29.8164062 L20.8108594,29.8408203 L22.5589062,29.8408203 L22.5589062,29.7138672 C22.5589062,29.4111313 22.4881062,29.1694345 22.3465039,28.9887695 C22.2049016,28.8081046 21.9908738,28.7177734 21.7044141,28.7177734 Z M24.6666406,32.1455078 L25.3502344,31.9990234 L25.3502344,28.7226562 L24.5933984,28.5761719 L24.5933984,27.7167969 L26.6783594,27.7167969 L26.7418359,28.4882812 C26.8655345,28.2148424 27.0250381,28.0016284 27.2203516,27.8486328 C27.415665,27.6956373 27.6418998,27.6191406 27.8990625,27.6191406 C27.9739327,27.6191406 28.0528707,27.6248372 28.1358789,27.6362305 C28.2188871,27.6476238 28.2880596,27.6614583 28.3433984,27.6777344 L28.1920312,28.9765625 L27.6060937,28.9619141 C27.3977594,28.9619141 27.2252351,29.0026038 27.0885156,29.0839844 C26.9517962,29.165365 26.8476306,29.2809237 26.7760156,29.4306641 L26.7760156,31.9990234 L27.4596094,32.1455078 L27.4596094,33 L24.6666406,33 L24.6666406,32.1455078 Z M28.5907812,28.5761719 L28.5907812,27.7167969 L30.6610937,27.7167969 L30.7294531,28.3320312 C30.8857039,28.1041655 31.0728765,27.928386 31.2909766,27.8046875 C31.5090766,27.680989 31.7629803,27.6191406 32.0526953,27.6191406 C32.7069955,27.6191406 33.2148029,27.8746719 33.5761328,28.3857422 C33.9374627,28.8968125 34.118125,29.5690063 34.118125,30.4023438 L34.118125,30.5048828 C34.118125,31.2861367 33.9374627,31.9143856 33.5761328,32.3896484 C33.2148029,32.8649112 32.7102506,33.1025391 32.0624609,33.1025391 C31.7857668,33.1025391 31.5400011,33.05127 31.3251562,32.9487305 C31.1103114,32.8461909 30.926394,32.695639 30.7733984,32.4970703 L30.7733984,34.0253906 L31.461875,34.171875 L31.461875,35.03125 L28.6640234,35.03125 L28.6640234,34.171875 L29.3525,34.0253906 L29.3525,28.7226562 L28.5907812,28.5761719 Z M32.6923437,30.4023438 C32.6923437,29.9042944 32.6093368,29.5006526 32.4433203,29.1914062 C32.2773039,28.8821599 32.0234001,28.7275391 31.6816016,28.7275391 C31.4667567,28.7275391 31.2836531,28.7714839 31.1322852,28.859375 C30.9809172,28.9472661 30.8612895,29.0725903 30.7733984,29.2353516 L30.7733984,31.5498047 C30.8612895,31.699545 30.9809172,31.8134762 31.1322852,31.8916016 C31.2836531,31.969727 31.4700119,32.0087891 31.6913672,32.0087891 C32.036421,32.0087891 32.2895109,31.8736993 32.4506445,31.6035156 C32.6117781,31.333332 32.6923437,30.9671247 32.6923437,30.5048828 L32.6923437,30.4023438 Z M37.0298828,32.1455078 L37.7867187,31.9990234 L37.7867187,26.8964844 L37.0298828,26.75 L37.0298828,25.890625 L42.6890625,25.890625 L42.6890625,27.8388672 L41.5953125,27.8388672 L41.5318359,26.9892578 L39.2125,26.9892578 L39.2125,28.9472656 L41.7027344,28.9472656 L41.7027344,30.0458984 L39.2125,30.0458984 L39.2125,31.9990234 L39.9742187,32.1455078 L39.9742187,33 L37.0298828,33 L37.0298828,32.1455078 Z M45.5975781,33.1025391 C44.8358556,33.1025391 44.2271377,32.8584009 43.7714062,32.3701172 C43.3156748,31.8818335 43.0878125,31.2617225 43.0878125,30.5097656 L43.0878125,30.3144531 C43.0878125,29.529944 43.3034679,28.8837916 43.7347852,28.3759766 C44.1661024,27.8681615 44.7447099,27.6158854 45.470625,27.6191406 C46.1835192,27.6191406 46.7368991,27.8339822 47.1307812,28.2636719 C47.5246634,28.6933615 47.7216016,29.2744104 47.7216016,30.0068359 L47.7216016,30.7832031 L44.5673047,30.7832031 L44.5575391,30.8125 C44.5835809,31.160809 44.6999534,31.4472645 44.9066602,31.671875 C45.1133669,31.8964855 45.3941258,32.0087891 45.7489453,32.0087891 C46.0647021,32.0087891 46.3267437,31.9770511 46.5350781,31.9135742 C46.7434125,31.8500973 46.9712748,31.7500007 47.2186719,31.6132812 L47.6044141,32.4921875 C47.386314,32.6647144 47.1039275,32.8095697 46.7572461,32.9267578 C46.4105647,33.0439459 46.0240125,33.1025391 45.5975781,33.1025391 Z M45.470625,28.7177734 C45.2069518,28.7177734 44.9986206,28.8186839 44.845625,29.0205078 C44.6926294,29.2223317 44.5982293,29.4876286 44.5624219,29.8164062 L44.5770703,29.8408203 L46.3251172,29.8408203 L46.3251172,29.7138672 C46.3251172,29.4111313 46.2543171,29.1694345 46.1127148,28.9887695 C45.9711126,28.8081046 45.7570848,28.7177734 45.470625,28.7177734 Z M51.6896875,33 C51.6506248,32.9121089 51.6164455,32.8217778 51.5871484,32.7290039 C51.5578514,32.63623 51.5350652,32.5426437 51.5187891,32.4482422 C51.3495174,32.6435557 51.1436275,32.8014317 50.9011133,32.921875 C50.658599,33.0423183 50.3810953,33.1025391 50.0685937,33.1025391 C49.551013,33.1025391 49.1400471,32.9617527 48.8356836,32.6801758 C48.5313201,32.3985989 48.3791406,32.0153019 48.3791406,31.5302734 C48.3791406,31.0354793 48.5777063,30.6529961 48.9748437,30.3828125 C49.3719812,30.1126289 49.9546576,29.9775391 50.7228906,29.9775391 L51.4504297,29.9775391 L51.4504297,29.4599609 C51.4504297,29.2060534 51.3771882,29.0091153 51.2307031,28.8691406 C51.084218,28.729166 50.8677488,28.6591797 50.5812891,28.6591797 C50.4185278,28.6591797 50.2736725,28.6778969 50.1467187,28.715332 C50.019765,28.7527671 49.917227,28.7975258 49.8391016,28.8496094 L49.7463281,29.4160156 L48.6721094,29.4160156 L48.6769922,28.2441406 C48.9374102,28.0683585 49.2360725,27.920248 49.5729883,27.7998047 C49.909904,27.6793614 50.2769251,27.6191406 50.6740625,27.6191406 C51.3283626,27.6191406 51.8597701,27.779458 52.2683008,28.1000977 C52.6768315,28.4207373 52.8810937,28.8772757 52.8810937,29.4697266 L52.8810937,31.6523438 C52.8810937,31.7337244 52.8819075,31.810221 52.8835352,31.8818359 C52.8851628,31.9534509 52.8908593,32.0218096 52.900625,32.0869141 L53.3351953,32.1455078 L53.3351953,33 L51.6896875,33 Z M50.4543359,32.0478516 C50.6691808,32.0478516 50.8644913,32.0014653 51.0402734,31.9086914 C51.2160556,31.8159175 51.3527729,31.699545 51.4504297,31.5595703 L51.4504297,30.7539062 L50.7228906,30.7539062 C50.4201547,30.7539062 50.1906648,30.8247063 50.0344141,30.9663086 C49.8781633,31.1079109 49.8000391,31.2779938 49.8000391,31.4765625 C49.8000391,31.6555999 49.8578184,31.7955724 49.9733789,31.8964844 C50.0889394,31.9973963 50.2492568,32.0478516 50.4543359,32.0478516 Z M55.4624609,26.4228516 L55.4624609,27.7167969 L56.3901953,27.7167969 L56.3901953,28.7177734 L55.4624609,28.7177734 L55.4624609,31.4082031 C55.4624609,31.6132823 55.5047782,31.7597652 55.5894141,31.8476562 C55.6740499,31.9355473 55.7879811,31.9794922 55.9312109,31.9794922 C56.0288677,31.9794922 56.114316,31.9754232 56.1875586,31.9672852 C56.2608011,31.9591471 56.3429943,31.9453126 56.4341406,31.9257812 L56.5562109,32.9560547 C56.3967049,33.0048831 56.2388289,33.0415038 56.0825781,33.065918 C55.9263273,33.0903322 55.7570582,33.1025391 55.5747656,33.1025391 C55.0832267,33.1025391 54.7048125,32.9674493 54.4395117,32.6972656 C54.1742109,32.427082 54.0415625,31.9990264 54.0415625,31.4130859 L54.0415625,28.7177734 L53.2651953,28.7177734 L53.2651953,27.7167969 L54.0415625,27.7167969 L54.0415625,26.4228516 L55.4624609,26.4228516 Z M60.7147266,32.3310547 C60.5454549,32.5784518 60.3363098,32.7688795 60.0872852,32.9023438 C59.8382605,33.035808 59.5542464,33.1025391 59.2352344,33.1025391 C58.678591,33.1025391 58.2423974,32.9243182 57.9266406,32.5678711 C57.6108838,32.211424 57.4530078,31.6572303 57.4530078,30.9052734 L57.4530078,28.7226562 L56.8719531,28.5761719 L56.8719531,27.7167969 L58.8787891,27.7167969 L58.8787891,30.9150391 C58.8787891,31.2991556 58.9430788,31.5750317 59.0716602,31.7426758 C59.2002415,31.9103198 59.3914831,31.9941406 59.6453906,31.9941406 C59.8700011,31.9941406 60.0644979,31.9575199 60.2288867,31.8842773 C60.3932756,31.8110348 60.5275516,31.7060554 60.6317187,31.5693359 L60.6317187,28.7226562 L60.0067187,28.5761719 L60.0067187,27.7167969 L62.0575,27.7167969 L62.0575,31.9990234 L62.6971484,32.1455078 L62.6971484,33 L60.8075,33 L60.7147266,32.3310547 Z M63.2960937,32.1455078 L63.9796875,31.9990234 L63.9796875,28.7226562 L63.2228516,28.5761719 L63.2228516,27.7167969 L65.3078125,27.7167969 L65.3712891,28.4882812 C65.4949876,28.2148424 65.6544912,28.0016284 65.8498047,27.8486328 C66.0451182,27.6956373 66.2713529,27.6191406 66.5285156,27.6191406 C66.6033858,27.6191406 66.6823238,27.6248372 66.765332,27.6362305 C66.8483403,27.6476238 66.9175127,27.6614583 66.9728516,27.6777344 L66.8214844,28.9765625 L66.2355469,28.9619141 C66.0272125,28.9619141 65.8546882,29.0026038 65.7179687,29.0839844 C65.5812493,29.165365 65.4770837,29.2809237 65.4054687,29.4306641 L65.4054687,31.9990234 L66.0890625,32.1455078 L66.0890625,33 L63.2960937,33 L63.2960937,32.1455078 Z M69.7641797,33.1025391 C69.0024571,33.1025391 68.3937393,32.8584009 67.9380078,32.3701172 C67.4822764,31.8818335 67.2544141,31.2617225 67.2544141,30.5097656 L67.2544141,30.3144531 C67.2544141,29.529944 67.4700695,28.8837916 67.9013867,28.3759766 C68.332704,27.8681615 68.9113115,27.6158854 69.6372266,27.6191406 C70.3501207,27.6191406 70.9035006,27.8339822 71.2973828,28.2636719 C71.691265,28.6933615 71.8882031,29.2744104 71.8882031,30.0068359 L71.8882031,30.7832031 L68.7339062,30.7832031 L68.7241406,30.8125 C68.7501824,31.160809 68.866555,31.4472645 69.0732617,31.671875 C69.2799685,31.8964855 69.5607274,32.0087891 69.9155469,32.0087891 C70.2313037,32.0087891 70.4933453,31.9770511 70.7016797,31.9135742 C70.9100141,31.8500973 71.1378764,31.7500007 71.3852734,31.6132812 L71.7710156,32.4921875 C71.5529156,32.6647144 71.2705291,32.8095697 70.9238477,32.9267578 C70.5771662,33.0439459 70.1906141,33.1025391 69.7641797,33.1025391 Z M69.6372266,28.7177734 C69.3735534,28.7177734 69.1652221,28.8186839 69.0122266,29.0205078 C68.859231,29.2223317 68.7648309,29.4876286 68.7290234,29.8164062 L68.7436719,29.8408203 L70.4917187,29.8408203 L70.4917187,29.7138672 C70.4917187,29.4111313 70.4209187,29.1694345 70.2793164,28.9887695 C70.1377141,28.8081046 69.9236863,28.7177734 69.6372266,28.7177734 Z M76.8035547,29.5332031 L75.8465234,29.5332031 L75.6951562,28.8740234 C75.5974995,28.795898 75.4746166,28.7307945 75.3265039,28.6787109 C75.1783912,28.6266273 75.0148186,28.6005859 74.8357812,28.6005859 C74.585129,28.6005859 74.3865632,28.6567377 74.2400781,28.769043 C74.093593,28.8813482 74.0203516,29.0221346 74.0203516,29.1914062 C74.0203516,29.3509123 74.0903378,29.4835607 74.2303125,29.5893555 C74.3702872,29.6951503 74.6502323,29.7887366 75.0701562,29.8701172 C75.7244564,30.0003262 76.2094776,30.1915677 76.5252344,30.4438477 C76.8409912,30.6961276 76.9988672,31.0436176 76.9988672,31.4863281 C76.9988672,31.9615909 76.7946049,32.3497706 76.3860742,32.6508789 C75.9775435,32.9519872 75.4396257,33.1025391 74.7723047,33.1025391 C74.3654016,33.1025391 73.9918702,33.0431321 73.6516992,32.9243164 C73.3115282,32.8055007 73.0096107,32.6354178 72.7459375,32.4140625 L72.7312891,31.2275391 L73.7273828,31.2275391 L73.9226953,31.9160156 C74.0073311,31.9876306 74.1228899,32.0405272 74.269375,32.074707 C74.4158601,32.1088869 74.5688534,32.1259766 74.7283594,32.1259766 C75.0180744,32.1259766 75.2386125,32.0738937 75.3899805,31.9697266 C75.5413484,31.8655594 75.6170312,31.7239592 75.6170312,31.5449219 C75.6170312,31.3886711 75.5405346,31.2535813 75.3875391,31.1396484 C75.2345435,31.0257156 74.9529708,30.9248051 74.5428125,30.8369141 C73.9210646,30.7099603 73.4515055,30.5219739 73.1341211,30.2729492 C72.8167367,30.0239245 72.6580469,29.6845725 72.6580469,29.2548828 C72.6580469,28.8121723 72.8403367,28.4305029 73.2049219,28.1098633 C73.569507,27.7892237 74.0887076,27.6289062 74.7625391,27.6289062 C75.1726974,27.6289062 75.5608771,27.6842442 75.9270898,27.7949219 C76.2933026,27.9055995 76.5805719,28.0471997 76.7889062,28.2197266 L76.8035547,29.5332031 Z" id="SerpFeatures" fill="#FFFFFF" fill-rule="nonzero"></path>
    <rect id="block-2-copy-4" fill-opacity="0.25" fill="#FFFFFF" x="297" y="28" width="56" height="4"></rect>
    <rect id="block-2-copy-5" fill-opacity="0.25" fill="#FFFFFF" x="88" y="28" width="48" height="4"></rect>
    <rect id="Rectangle" fill="#E5E5E5" x="0" y="199" width="370" height="1"></rect>
  </g>
</svg>
