<?xml version="1.0" encoding="UTF-8"?>
<svg xmlns="http://www.w3.org/2000/svg" viewBox="0 0 150 43.85">
  <defs>
    <style>.cls-1{fill:#8fadb6;}</style>
  </defs>
  <title>trivago-fitted</title>
  <g id="trivago">
    <path class="cls-1" d="M35.44,15.44H41.1v3h0a6.38,6.38,0,0,1,2.13-2.53,5.36,5.36,0,0,1,3.09-.84c.32,0,.65,0,1,0a4.7,4.7,0,0,1,.9.15v5.09a9.06,9.06,0,0,0-1.17-.28,7.06,7.06,0,0,0-1.21-.1,6,6,0,0,0-2.54.45,3.36,3.36,0,0,0-1.44,1.25,4.65,4.65,0,0,0-.64,1.92A18.35,18.35,0,0,0,41.11,26v7.58H35.44V15.44"></path>
    <path class="cls-1" d="M49.59,15.44H55.1V33.61H49.59Zm-.23-4.8a2.92,2.92,0,0,1,.87-2.1,3,3,0,0,1,4.19,0h0a3,3,0,0,1,0,4.2,3,3,0,0,1-4.19,0h0a2.9,2.9,0,0,1-.87-2.1"></path>
    <path class="cls-1" d="M85.87,25.72c-.42,0-1,0-1.58,0a8.13,8.13,0,0,0-1.83.3,4.17,4.17,0,0,0-1.49.78,1.79,1.79,0,0,0-.61,1.45,1.6,1.6,0,0,0,.85,1.49,3.53,3.53,0,0,0,1.79.48A5.25,5.25,0,0,0,84.58,30a4.69,4.69,0,0,0,1.36-.63,3.21,3.21,0,0,0,1-1.05,3.11,3.11,0,0,0,.36-1.5V25.72h-1.4m1.4,5.66h-.1a5.64,5.64,0,0,1-2.48,2.05,8.42,8.42,0,0,1-3.25.62A8.07,8.07,0,0,1,79,33.68,6.26,6.26,0,0,1,77,32.62a5.13,5.13,0,0,1-1.42-1.75A5.3,5.3,0,0,1,75,28.45a5.52,5.52,0,0,1,.58-2.65A5.17,5.17,0,0,1,77.15,24a7.69,7.69,0,0,1,2.25-1.09,16.59,16.59,0,0,1,2.62-.6,24.72,24.72,0,0,1,2.72-.22c.91,0,1.75,0,2.51,0a2.86,2.86,0,0,0-1.06-2.36,3.78,3.78,0,0,0-2.51-.88,5.51,5.51,0,0,0-2.52.58,6.81,6.81,0,0,0-2,1.6l-3-3.06a10.18,10.18,0,0,1,3.65-2.17A12.73,12.73,0,0,1,84.13,15a11.34,11.34,0,0,1,4,.61,6,6,0,0,1,2.54,1.81A7.1,7.1,0,0,1,92,20.38a19.83,19.83,0,0,1,.34,4v9.23H87.27Z"></path>
    <path class="cls-1" d="M118.39,24.54a5,5,0,0,0,1.06,3.31,4.15,4.15,0,0,0,5.87.1.94.94,0,0,1,.1-.1,5,5,0,0,0,1.06-3.31,5,5,0,0,0-1.06-3.32,4.14,4.14,0,0,0-5.86-.1l-.11.1a5,5,0,0,0-1.06,3.32m-5.06,0a10.4,10.4,0,0,1,.7-3.9,9.26,9.26,0,0,1,2-3,8.53,8.53,0,0,1,2.9-1.95,9.8,9.8,0,0,1,7.11,0,8.69,8.69,0,0,1,2.9,1.92,9,9,0,0,1,1.94,3,10.16,10.16,0,0,1,.71,3.89,10.21,10.21,0,0,1-.71,3.9,9,9,0,0,1-1.94,3,8.51,8.51,0,0,1-2.9,1.91,9.7,9.7,0,0,1-7.11,0,8.42,8.42,0,0,1-2.9-1.91,9.19,9.19,0,0,1-2-3,10.4,10.4,0,0,1-.7-3.9"></path>
    <path class="cls-1" d="M107.43,15.42v2.44h-.08a3.19,3.19,0,0,0-.64-.68,7.16,7.16,0,0,0-1.43-1,7.86,7.86,0,0,0-1.79-.71,9.46,9.46,0,0,0-2.31-.32,7.64,7.64,0,0,0-3.5.89,6.71,6.71,0,0,0-2.46,2A8.12,8.12,0,0,0,93.85,21a14.42,14.42,0,0,0-.39,3.7A13.74,13.74,0,0,0,94,28.55a8,8,0,0,0,1.58,3.05,6.46,6.46,0,0,0,2.63,1.8,8.76,8.76,0,0,0,3.61.62,7.48,7.48,0,0,0,2.64-.57,5.33,5.33,0,0,0,2.32-1.74h.06v1.76a4.33,4.33,0,0,1-1.09,3.2A4.9,4.9,0,0,1,102,38a10,10,0,0,1-3-.29,10.68,10.68,0,0,1-3.23-1.45l-2.72,4a12.65,12.65,0,0,0,4.33,2.11,18.6,18.6,0,0,0,4.76.54c3.54,0,6-.89,7.79-2.67s2.44-4.39,2.44-7.83V15.42h-4.95M106,27.88a4.17,4.17,0,0,1-5.88.11,1.14,1.14,0,0,0-.11-.11A5,5,0,0,1,99,24.55a5,5,0,0,1,1.07-3.33,4.15,4.15,0,0,1,5.87-.11,1.14,1.14,0,0,0,.11.11,5.08,5.08,0,0,1,1.07,3.33A5,5,0,0,1,106,27.87Z"></path>
    <path class="cls-1" d="M34,19.9H28.44V26a10.39,10.39,0,0,0,.11,1.36,2.66,2.66,0,0,0,.39,1.06,1.84,1.84,0,0,0,.89.69,4.49,4.49,0,0,0,1.58.23c.44,0,.88,0,1.31-.09A2.6,2.6,0,0,0,34,28.81v4.67a11.24,11.24,0,0,1-2.15.44,20.32,20.32,0,0,1-2.18.12,13.85,13.85,0,0,1-2.87-.3,7,7,0,0,1-2.3-1,4.6,4.6,0,0,1-1.55-1.7,5.34,5.34,0,0,1-.57-2.54V19.9H18.46V15.44h3.87V10.07h6.11v5.37H34V19.9"></path>
    <polyline class="cls-1" points="55.83 15.44 61.87 15.44 66.45 27.8 66.52 27.8 70.77 15.44 76.39 15.44 69.24 33.61 63.32 33.61 55.83 15.44"></polyline>
  </g>
</svg>
