<?xml version="1.0" encoding="UTF-8"?>
<svg xmlns="http://www.w3.org/2000/svg" viewBox="0 0 150 43.85">
  <defs>
    <style>.cls-1{fill:#8fadb6;}</style>
  </defs>
  <title>zillow-fitted</title>
  <g id="zillow">
    <path class="cls-1" d="M30.27,6.43c-2,.93-7.75,5.34-10.85,7.65,3.77-1.24,12.84-3.24,17.47-3.35C35.44,9.71,31.37,7,30.27,6.43Z"></path>
    <path class="cls-1" d="M12.18,34.93A98.45,98.45,0,0,1,36.72,29.7c.24-.94,1.46-4.06,1.69-4.91a76.29,76.29,0,0,0-24.74,6Z"></path>
    <path class="cls-1" d="M37.76,11.33s-11.25,11.22-13,12.84a66.67,66.67,0,0,1,14.89-3,26,26,0,0,1,1-2.7l6-.59S42.12,14.29,37.76,11.33Z"></path>
    <path class="cls-1" d="M14.1,29.57c3.55-3.64,16.29-15.31,16.29-15.31a119.11,119.11,0,0,0-16,4.74l-3.73,3.81c3.11-.67,4.12-.8,6.39-1.13Z"></path>
    <path class="cls-1" d="M110.68,31.27a7.64,7.64,0,0,1-6.18,2.59c-5.07,0-8.4-3.8-8.4-9.68s3.36-9.79,8.4-9.79a7.82,7.82,0,0,1,6.36,2.82C112.33,19,113,21,113,24,113,27.25,112.27,29.44,110.68,31.27Zm-4-12.28a2.69,2.69,0,0,0-4.64.92,13.35,13.35,0,0,0-.51,4.16,13.23,13.23,0,0,0,.62,4.71,2.7,2.7,0,0,0,2.48,1.54c2.12,0,3-1.9,3-6.32,0-2.52-.36-4.17-1-5Zm27.68,14.47h-4.52L128.19,27c-.4-1.49-.84-3.29-1.06-4.53-.15-.88-.19-1.13-.29-1.86-.12.8-.15,1.06-.44,2.41-.36,1.61-1.17,4.82-1.61,6.57l-1,3.84h-4.56l-5.21-18.7h5l1.49,7c.47,2.17,1,5.81,1,5.81A62.5,62.5,0,0,1,123,21l1.75-6.28h4.6l1.5,6.17c.84,3.46,1.39,6.61,1.39,6.61.11-.8.51-3.73,1-6.1l1.42-6.68h5Zm-47,0h5l0-27-5,1.12Zm-9.72,0h5l0-27-5,1.12ZM68,33.5V17.05L72.83,16V33.5Zm2.44-18.62a3,3,0,0,1,.09-6.06,3,3,0,0,1,3,3v0a3,3,0,0,1-3,3ZM63.28,33.46H47.43V29.88L57,13.42a18.43,18.43,0,0,0,1.07-2.07s-.56,0-2.1,0H48.17l1.14-4.23H64.5v3.68l-9.65,16.9c-.55.92-1,1.66-1,1.66H64.6Z"></path>
  </g>
</svg>
